<svg xmlns="http://www.w3.org/2000/svg" xmlns:xlink="http://www.w3.org/1999/xlink" width="103.226mm" height="51.943mm" viewBox="4037.5 3024.5 406.4 204.5"><title></title><style type="text/css">
*[layerid="1"] {stroke:#000000;fill:#000000;}
*[layerid="2"] {stroke:#000000;fill:#000000;}
*[layerid="3"] {stroke:#000000;fill:#000000;}
*[layerid="4"] {stroke:#000000;fill:#000000;}
*[layerid="5"] {stroke:#000000;fill:#000000;}
*[layerid="6"] {stroke:#000000;fill:#000000;}
*[layerid="7"] {stroke:#000000;fill:#000000;}
*[layerid="8"] {stroke:#000000;fill:#000000;}
*[layerid="9"] {stroke:#000000;fill:#000000;}
*[layerid="10"] {stroke:#000000;fill:#000000;}
*[layerid="11"] {stroke:#000000;fill:#000000;}
*[layerid="12"] {stroke:#000000;fill:#000000;}
*[layerid="13"] {stroke:#000000;fill:#000000;}
*[layerid="14"] {stroke:#000000;fill:#000000;}
*[layerid="15"] {stroke:#000000;fill:#000000;}
*[layerid="19"] {stroke:#000000;fill:#000000;}
*[layerid="21"] {stroke:#000000;fill:#000000;}
*[layerid="22"] {stroke:#000000;fill:#000000;}
*[layerid="23"] {stroke:#000000;fill:#000000;}
*[layerid="24"] {stroke:#000000;fill:#000000;}
*[layerid="25"] {stroke:#000000;fill:#000000;}
*[layerid="26"] {stroke:#000000;fill:#000000;}
*[layerid="27"] {stroke:#000000;fill:#000000;}
*[layerid="28"] {stroke:#000000;fill:#000000;}
*[layerid="29"] {stroke:#000000;fill:#000000;}
*[layerid="30"] {stroke:#000000;fill:#000000;}
*[layerid="31"] {stroke:#000000;fill:#000000;}
*[layerid="32"] {stroke:#000000;fill:#000000;}
*[layerid="33"] {stroke:#000000;fill:#000000;}
*[layerid="34"] {stroke:#000000;fill:#000000;}
*[layerid="35"] {stroke:#000000;fill:#000000;}
*[layerid="36"] {stroke:#000000;fill:#000000;}
*[layerid="37"] {stroke:#000000;fill:#000000;}
*[layerid="38"] {stroke:#000000;fill:#000000;}
*[layerid="39"] {stroke:#000000;fill:#000000;}
*[layerid="40"] {stroke:#000000;fill:#000000;}
*[layerid="41"] {stroke:#000000;fill:#000000;}
*[layerid="42"] {stroke:#000000;fill:#000000;}
*[layerid="43"] {stroke:#000000;fill:#000000;}
*[layerid="44"] {stroke:#000000;fill:#000000;}
*[layerid="45"] {stroke:#000000;fill:#000000;}
*[layerid="46"] {stroke:#000000;fill:#000000;}
*[layerid="47"] {stroke:#000000;fill:#000000;}
*[layerid="48"] {stroke:#000000;fill:#000000;}
*[layerid="49"] {stroke:#000000;fill:#000000;}
*[layerid="50"] {stroke:#000000;fill:#000000;}
*[layerid="51"] {stroke:#000000;fill:#000000;}
*[layerid="52"] {stroke:#000000;fill:#000000;}
*[layerid="99"] {stroke:#000000;fill:#000000;}
*[layerid="100"] {stroke:#000000;fill:#000000;}
*[layerid="101"] {stroke:#000000;fill:#000000;}
*[layerid="Hole"] {stroke:#000000;fill:#000000;}
*[layerid="DRCError"] {stroke:#000000;fill:#000000;}
*[fill="none"] {fill: none;}
*[stroke="none"] {stroke: none;}
path, polyline, polygon, line {stroke-linecap:round;}
g[c_partid="part_pad"][layerid="1"] ellipse:not([c_etype="pad_outer"]) {fill:#000000;}
g[c_partid="part_pad"][layerid="1"] polygon:not([c_etype="pad_outer"]) {fill:#000000;}
g[c_partid="part_pad"][layerid="1"] polyline:not([c_etype="pad_outer"]) {stroke:#000000;}
g[c_partid="part_pad"][layerid="2"] ellipse:not([c_etype="pad_outer"]) {fill:#000000;}
g[c_partid="part_pad"][layerid="2"] polygon:not([c_etype="pad_outer"]) {fill:#000000;}
g[c_partid="part_pad"][layerid="2"] polyline:not([c_etype="pad_outer"]) {stroke:#000000;}
g[c_partid="part_pad"][layerid="11"] ellipse:not([c_etype="pad_outer"]) {fill:#000000;}
g[c_partid="part_pad"][layerid="11"] polygon:not([c_etype="pad_outer"]) {fill:#000000;}
g[c_partid="part_pad"][layerid="11"] polyline:not([c_etype="pad_outer"]) {stroke:#000000;}
g[c_partid="part_pad"][layerid="11"] circle {fill:#FFFFFF;}
g[c_partid="part_pad"][layerid="11"] > polyline:nth-of-type(2) {stroke:#FFFFFF;}
g[c_partid="part_pad"][layerid="11"][c_shape="ELLIPSE"]  polyline:nth-last-of-type(1) {stroke:#FFFFFF;}
g[c_partid="part_pad"][layerid="11"][c_shape="RECT"]  polyline:nth-last-of-type(1) {stroke:#FFFFFF;}
g[c_partid="part_pad"][layerid="11"][c_shape="POLYGON"]  polyline:nth-last-of-type(1) {stroke:#FFFFFF;}
g[c_partid="part_via"] > * + circle, #gCurParts g[c_partid="part_via"] > * + circle {fill:#FFFFFF;}
g[c_partid="part_pad"] > polygon[c_etype="pad_outer"], #gCurParts g[c_partid="part_pad"] > polygon[c_etype="pad_outer"] {stroke-linejoin: round;stroke-miterlimit: 100;}
g[c_partid="part_hole"] > circle {fill: #FFFFFF;}path, polyline, polygon {stroke-linejoin:round;}
rect, circle, ellipse, polyline, line, polygon, path {shape-rendering:crispEdges;}
</style>
<rect x="4037.5" y="3024.5" width="406.4" height="204.5" fill="#FFFFFF" stroke="none"/><polyline points="4354.1 3171.7 4354.1 3162.3" stroke-width="1"  stroke-linecap="round" fill="none" layerid="3" net="" id="gge99" locked="0" /><polyline points="4354.1 3162.3 4378.9 3162.3" stroke-width="1"  stroke-linecap="round" fill="none" layerid="3" net="" id="gge102" locked="0" /><polyline points="4378.9 3162.3 4378.9 3171.7" stroke-width="1"  stroke-linecap="round" fill="none" layerid="3" net="" id="gge105" locked="0" /><polyline points="4378.9 3171.7 4354.1 3171.7" stroke-width="1"  stroke-linecap="round" fill="none" layerid="3" net="" id="gge108" locked="0" /><polyline points="4317.6 3187.7 4317.6 3178.3" stroke-width="1"  stroke-linecap="round" fill="none" layerid="3" net="" id="gge177" locked="0" /><polyline points="4317.6 3178.3 4342.4 3178.3" stroke-width="1"  stroke-linecap="round" fill="none" layerid="3" net="" id="gge180" locked="0" /><polyline points="4342.4 3178.3 4342.4 3187.7" stroke-width="1"  stroke-linecap="round" fill="none" layerid="3" net="" id="gge183" locked="0" /><polyline points="4342.4 3187.7 4317.6 3187.7" stroke-width="1"  stroke-linecap="round" fill="none" layerid="3" net="" id="gge186" locked="0" /><polyline points="4301.6 3172.2 4301.6 3162.8" stroke-width="1"  stroke-linecap="round" fill="none" layerid="3" net="" id="gge255" locked="0" /><polyline points="4301.6 3162.8 4326.4 3162.8" stroke-width="1"  stroke-linecap="round" fill="none" layerid="3" net="" id="gge258" locked="0" /><polyline points="4326.4 3162.8 4326.4 3172.2" stroke-width="1"  stroke-linecap="round" fill="none" layerid="3" net="" id="gge261" locked="0" /><polyline points="4326.4 3172.2 4301.6 3172.2" stroke-width="1"  stroke-linecap="round" fill="none" layerid="3" net="" id="gge264" locked="0" /><polyline points="4241.2 3196.9 4231.8 3196.9" stroke-width="1"  stroke-linecap="round" fill="none" layerid="3" net="" id="gge333" locked="0" /><polyline points="4231.8 3196.9 4231.8 3172.1" stroke-width="1"  stroke-linecap="round" fill="none" layerid="3" net="" id="gge336" locked="0" /><polyline points="4231.8 3172.1 4241.2 3172.1" stroke-width="1"  stroke-linecap="round" fill="none" layerid="3" net="" id="gge339" locked="0" /><polyline points="4241.2 3172.1 4241.2 3196.9" stroke-width="1"  stroke-linecap="round" fill="none" layerid="3" net="" id="gge342" locked="0" /><polyline points="4080.6313 3099.8344 4080.6313 3132.7144 4051.5013 3132.7144 4051.5013 3094.1344 4080.6313 3094.1344 4080.6313 3099.8344" stroke-width="1.1811"  stroke-linecap="round" fill="none" layerid="3" net="S$29" id="gge411" locked="0" /><polyline points="4071.5783 3099.0518 4078.6646 3106.1448 4077.4846 3107.7148 4070.0046 3100.6248 4071.5783 3099.0518" stroke-width="0.7874"  stroke-linecap="round" fill="none" layerid="3" net="S$60" id="gge423" locked="0" /><polyline points="4070.004 3125.9012 4077.097 3118.8149 4078.667 3119.9949 4071.577 3127.4749 4070.004 3125.9012" stroke-width="0.7874"  stroke-linecap="round" fill="none" layerid="3" net="S$60" id="gge432" locked="0" /><polyline points="4051.5 3113.5 4052.6024 3113.5 4055.752 3110.3504 4055.752 3098.5395 4051.5 3094.2875" stroke-width="0.5906"  stroke-linecap="round" fill="none" layerid="3" net="S$69" id="gge435" locked="0" /><polyline points="4051.4213 3113.4213 4052.4055 3113.4213 4055.9094 3116.9252 4055.9094 3128.3426 4051.5 3132.752" stroke-width="0.5906"  stroke-linecap="round" fill="none" layerid="3" net="S$71" id="gge438" locked="0" /><polyline points="4051.3413 3113.5044 4051.3413 3114.2044 4054.5713 3117.4344 4054.5713 3128.1444 4051.3413 3131.4544" stroke-width="0.4"  stroke-linecap="round" fill="none" layerid="3" net="S$73" id="gge441" locked="0" /><polyline points="4051.9331 3112.2796 4051.9331 3112.1614 4054.4921 3109.6024 4054.4921 3098.6182 4051.7362 3095.8623" stroke-width="0.4"  stroke-linecap="round" fill="none" layerid="3" net="S$75" id="gge444" locked="0" /><polyline points="4399.8687 3198.6656 4399.8687 3165.7856 4428.9987 3165.7856 4428.9987 3204.3656 4399.8687 3204.3656 4399.8687 3198.6656" stroke-width="1.1811"  stroke-linecap="round" fill="none" layerid="3" net="S$29" id="gge495" locked="0" /><polyline points="4408.9217 3199.4482 4401.8354 3192.3552 4403.0154 3190.7852 4410.4954 3197.8752 4408.9217 3199.4482" stroke-width="0.7874"  stroke-linecap="round" fill="none" layerid="3" net="S$60" id="gge507" locked="0" /><polyline points="4410.496 3172.5988 4403.403 3179.6851 4401.833 3178.5051 4408.923 3171.0251 4410.496 3172.5988" stroke-width="0.7874"  stroke-linecap="round" fill="none" layerid="3" net="S$60" id="gge516" locked="0" /><polyline points="4429 3185 4427.8976 3185 4424.748 3188.1496 4424.748 3199.9605 4429 3204.2125" stroke-width="0.5906"  stroke-linecap="round" fill="none" layerid="3" net="S$69" id="gge519" locked="0" /><polyline points="4429.0787 3185.0787 4428.0945 3185.0787 4424.5906 3181.5748 4424.5906 3170.1574 4429 3165.748" stroke-width="0.5906"  stroke-linecap="round" fill="none" layerid="3" net="S$71" id="gge522" locked="0" /><polyline points="4429.1587 3184.9956 4429.1587 3184.2956 4425.9287 3181.0656 4425.9287 3170.3556 4429.1587 3167.0456" stroke-width="0.4"  stroke-linecap="round" fill="none" layerid="3" net="S$73" id="gge525" locked="0" /><polyline points="4428.5669 3186.2204 4428.5669 3186.3386 4426.0079 3188.8976 4426.0079 3199.8818 4428.7638 3202.6377" stroke-width="0.4"  stroke-linecap="round" fill="none" layerid="3" net="S$75" id="gge528" locked="0" /><polyline points="4081.1313 3056.3344 4081.1313 3089.2144 4052.0013 3089.2144 4052.0013 3050.6344 4081.1313 3050.6344 4081.1313 3056.3344" stroke-width="1.1811"  stroke-linecap="round" fill="none" layerid="3" net="S$29" id="gge579" locked="0" /><polyline points="4072.0783 3055.5518 4079.1646 3062.6448 4077.9846 3064.2148 4070.5046 3057.1248 4072.0783 3055.5518" stroke-width="0.7874"  stroke-linecap="round" fill="none" layerid="3" net="S$60" id="gge591" locked="0" /><polyline points="4070.504 3082.4012 4077.597 3075.3149 4079.167 3076.4949 4072.077 3083.9749 4070.504 3082.4012" stroke-width="0.7874"  stroke-linecap="round" fill="none" layerid="3" net="S$60" id="gge600" locked="0" /><polyline points="4052 3070 4053.1024 3070 4056.252 3066.8504 4056.252 3055.0395 4052 3050.7875" stroke-width="0.5906"  stroke-linecap="round" fill="none" layerid="3" net="S$69" id="gge603" locked="0" /><polyline points="4051.9213 3069.9213 4052.9055 3069.9213 4056.4094 3073.4252 4056.4094 3084.8426 4052 3089.252" stroke-width="0.5906"  stroke-linecap="round" fill="none" layerid="3" net="S$71" id="gge606" locked="0" /><polyline points="4051.8413 3070.0044 4051.8413 3070.7044 4055.0713 3073.9344 4055.0713 3084.6444 4051.8413 3087.9544" stroke-width="0.4"  stroke-linecap="round" fill="none" layerid="3" net="S$73" id="gge609" locked="0" /><polyline points="4052.4331 3068.7796 4052.4331 3068.6614 4054.9921 3066.1024 4054.9921 3055.1182 4052.2362 3052.3623" stroke-width="0.4"  stroke-linecap="round" fill="none" layerid="3" net="S$75" id="gge612" locked="0" /><polyline points="4325.874 3215.5 4325.874 3213.5315 4349.4961 3213.5315 4349.4961 3215.5" stroke-width="1"  stroke-linecap="round" fill="none" layerid="3" net="" id="gge663" locked="0" /><polyline points="4318 3215.5 4318 3199.752 4357.37 3199.752 4357.37 3215.5 4318 3215.5" stroke-width="1"  stroke-linecap="round" fill="none" layerid="3" net="" id="gge666" locked="0" /><polyline points="4182.0118 3089.7638 4182.0118 3110.2362" stroke-width="1"  stroke-linecap="round" fill="none" layerid="3" net="" id="gge774" locked="0" /><polyline points="4182.0118 3110.2362 4170.9882 3110.2362" stroke-width="1"  stroke-linecap="round" fill="none" layerid="3" net="" id="gge777" locked="0" /><polyline points="4170.9882 3089.7638 4170.9882 3110.2362" stroke-width="1"  stroke-linecap="round" fill="none" layerid="3" net="" id="gge780" locked="0" /><polyline points="4182.0118 3089.7638 4170.9882 3089.7638" stroke-width="1"  stroke-linecap="round" fill="none" layerid="3" net="" id="gge783" locked="0" /><polyline points="4182.0118 3093.5404 4170.9882 3093.5404" stroke-width="1"  stroke-linecap="round" fill="none" layerid="3" net="" id="gge786" locked="0" /><polyline points="4226.6299 3081.1025 4226.6299 3118.8977" stroke-width="1"  stroke-linecap="round" fill="none" layerid="3" net="" id="gge843" locked="0" /><polyline points="4226.6299 3118.8977 4205.3701 3118.8977" stroke-width="1"  stroke-linecap="round" fill="none" layerid="3" net="" id="gge846" locked="0" /><polyline points="4205.3701 3118.8977 4205.3701 3081.1025" stroke-width="1"  stroke-linecap="round" fill="none" layerid="3" net="" id="gge849" locked="0" /><polyline points="4226.6299 3081.1025 4205.3701 3081.1025" stroke-width="1"  stroke-linecap="round" fill="none" layerid="3" net="" id="gge852" locked="0" /><polyline points="4226.6299 3088.5737 4205.3701 3088.5737" stroke-width="1"  stroke-linecap="round" fill="none" layerid="3" net="" id="gge855" locked="0" /><polyline points="4226.6299 3090.1737 4206 3090.1737" stroke-width="1"  stroke-linecap="round" fill="none" layerid="3" net="" id="gge858" locked="0" /><polyline points="4163.02 3128.8565 4102.02 3128.8565" stroke-width="1"  stroke-linecap="round" fill="none" layerid="3" net="" id="gge927" locked="0" /><polyline points="4163.02 3128.8565 4163.02 3053.6565" stroke-width="1"  stroke-linecap="round" fill="none" layerid="3" net="" id="gge930" locked="0" /><polyline points="4163.02 3052.6565 4102.02 3052.6565" stroke-width="1"  stroke-linecap="round" fill="none" layerid="3" net="" id="gge933" locked="0" /><polyline points="4102.02 3128.8565 4102.02 3053.6565" stroke-width="1"  stroke-linecap="round" fill="none" layerid="3" net="" id="gge936" locked="0" /><polyline points="4132.1 3059.4065 4133 3059.4065 4133 3103.5495 4147.84 3117.2765" stroke-width="1"  stroke-linecap="round" fill="none" layerid="3" net="" id="gge939" locked="0" /><polyline points="4096.5 3140 4094 3142.5 4091.5 3140 4086.5 3140 4084 3142.5 4081.5 3140 4076.5 3140 4074 3142.5 4071.5 3140 4066.5 3140 4064 3142.5 4064 3147.5 4066.5 3150 4071.5 3150 4074 3147.5 4076.5 3150 4081.5 3150 4084 3147.5 4086.5 3150 4091.5 3150 4094 3147.5 4096.5 3150 4101.5 3150 4104 3147.5 4106.5 3150 4111.5 3150 4114 3147.5 4116.5 3150 4121.5 3150 4124 3147.5 4126.5 3150 4131.5 3150 4134 3147.5 4136.5 3150 4141.5 3150 4144 3147.5 4146.5 3150 4151.5 3150 4154 3147.5 4156.5 3150 4161.5 3150 4164 3147.5 4166.5 3150 4171.5 3150 4174 3147.5 4176.5 3150 4181.5 3150 4184 3147.5 4186.5 3150 4191.5 3150 4194 3147.5 4196.5 3150 4201.5 3150 4204 3147.5 4206.5 3150 4211.5 3150 4214 3147.5 4214 3142.5 4211.5 3140" stroke-width="0.5"  stroke-linecap="round" fill="none" layerid="3" net="" id="gge1074" locked="0" /><polyline points="4206.5 3140 4204 3142.5 4201.5 3140 4224 3140 4224 3162.5 4224 3187.5 4224 3210 4206.5 3210 4201.5 3210 4204 3207.5 4206.5 3210" stroke-width="0.5"  stroke-linecap="round" fill="none" layerid="3" net="" id="gge1077" locked="0" /><polyline points="4196.5 3140 4194 3142.5 4191.5 3140" stroke-width="0.5"  stroke-linecap="round" fill="none" layerid="3" net="" id="gge1080" locked="0" /><polyline points="4201.5 3140 4186.5 3140 4184 3142.5 4181.5 3140" stroke-width="0.5"  stroke-linecap="round" fill="none" layerid="3" net="" id="gge1083" locked="0" /><polyline points="4176.5 3140 4174 3142.5 4171.5 3140" stroke-width="0.5"  stroke-linecap="round" fill="none" layerid="3" net="" id="gge1086" locked="0" /><polyline points="4166.5 3140 4164 3142.5 4161.5 3140" stroke-width="0.5"  stroke-linecap="round" fill="none" layerid="3" net="" id="gge1089" locked="0" /><polyline points="4156.5 3140 4154 3142.5 4151.5 3140" stroke-width="0.5"  stroke-linecap="round" fill="none" layerid="3" net="" id="gge1092" locked="0" /><polyline points="4146.5 3140 4144 3142.5 4141.5 3140" stroke-width="0.5"  stroke-linecap="round" fill="none" layerid="3" net="" id="gge1095" locked="0" /><polyline points="4136.5 3140 4134 3142.5 4131.5 3140" stroke-width="0.5"  stroke-linecap="round" fill="none" layerid="3" net="" id="gge1098" locked="0" /><polyline points="4126.5 3140 4124 3142.5 4121.5 3140 4091.5 3140" stroke-width="0.5"  stroke-linecap="round" fill="none" layerid="3" net="" id="gge1101" locked="0" /><polyline points="4116.5 3140 4114 3142.5 4111.5 3140" stroke-width="0.5"  stroke-linecap="round" fill="none" layerid="3" net="" id="gge1104" locked="0" /><polyline points="4106.5 3140 4104 3142.5 4101.5 3140" stroke-width="0.5"  stroke-linecap="round" fill="none" layerid="3" net="" id="gge1107" locked="0" /><polyline points="4211.5 3210 4214 3207.5 4214 3202.5 4211.5 3200 4206.5 3200 4204 3202.5 4201.5 3200 4196.5 3200 4194 3202.5 4191.5 3200 4186.5 3200 4184 3202.5 4181.5 3200 4176.5 3200 4174 3202.5 4171.5 3200 4166.5 3200 4164 3202.5 4161.5 3200 4156.5 3200 4154 3202.5 4151.5 3200 4146.5 3200 4144 3202.5 4141.5 3200 4136.5 3200 4134 3202.5 4131.5 3200 4126.5 3200 4124 3202.5 4121.5 3200 4116.5 3200 4114 3202.5 4111.5 3200 4106.5 3200 4104 3202.5 4101.5 3200 4096.5 3200 4094 3202.5 4091.5 3200 4086.5 3200 4084 3202.5 4081.5 3200 4076.5 3200 4074 3202.5 4071.5 3200 4066.5 3200 4064 3202.5 4064 3207.5 4066.5 3210 4054 3210 4054 3187.5 4084 3187.5 4084 3162.5 4054 3162.5 4049 3162.5 4049 3187.5 4054 3187.5" stroke-width="0.5"  stroke-linecap="round" fill="none" layerid="3" net="" id="gge1110" locked="0" /><polyline points="4096.5 3210 4094 3207.5 4091.5 3210 4086.5 3210 4084 3207.5 4081.5 3210 4076.5 3210 4074 3207.5 4071.5 3210 4066.5 3210" stroke-width="0.5"  stroke-linecap="round" fill="none" layerid="3" net="" id="gge1113" locked="0" /><polyline points="4186.5 3140 4121.5 3140" stroke-width="0.5"  stroke-linecap="round" fill="none" layerid="3" net="" id="gge1116" locked="0" /><polyline points="4106.5 3210 4104 3207.5 4101.5 3210 4106.5 3210 4111.5 3210 4116.5 3210 4121.5 3210 4126.5 3210 4131.5 3210 4136.5 3210 4141.5 3210 4146.5 3210 4151.5 3210 4156.5 3210 4161.5 3210 4166.5 3210 4171.5 3210 4176.5 3210 4181.5 3210 4186.5 3210 4191.5 3210 4196.5 3210 4201.5 3210" stroke-width="0.5"  stroke-linecap="round" fill="none" layerid="3" net="" id="gge1119" locked="0" /><polyline points="4111.5 3210 4114 3207.5 4116.5 3210" stroke-width="0.5"  stroke-linecap="round" fill="none" layerid="3" net="" id="gge1122" locked="0" /><polyline points="4121.5 3210 4124 3207.5 4126.5 3210" stroke-width="0.5"  stroke-linecap="round" fill="none" layerid="3" net="" id="gge1125" locked="0" /><polyline points="4131.5 3210 4134 3207.5 4136.5 3210" stroke-width="0.5"  stroke-linecap="round" fill="none" layerid="3" net="" id="gge1128" locked="0" /><polyline points="4141.5 3210 4144 3207.5 4146.5 3210" stroke-width="0.5"  stroke-linecap="round" fill="none" layerid="3" net="" id="gge1131" locked="0" /><polyline points="4151.5 3210 4154 3207.5 4156.5 3210" stroke-width="0.5"  stroke-linecap="round" fill="none" layerid="3" net="" id="gge1134" locked="0" /><polyline points="4161.5 3210 4164 3207.5 4166.5 3210" stroke-width="0.5"  stroke-linecap="round" fill="none" layerid="3" net="" id="gge1137" locked="0" /><polyline points="4171.5 3210 4174 3207.5 4176.5 3210" stroke-width="0.5"  stroke-linecap="round" fill="none" layerid="3" net="" id="gge1140" locked="0" /><polyline points="4181.5 3210 4184 3207.5 4186.5 3210" stroke-width="0.5"  stroke-linecap="round" fill="none" layerid="3" net="" id="gge1143" locked="0" /><polyline points="4191.5 3210 4194 3207.5 4196.5 3210" stroke-width="0.5"  stroke-linecap="round" fill="none" layerid="3" net="" id="gge1146" locked="0" /><polyline points="4086.5 3140 4081.5 3140" stroke-width="0.5"  stroke-linecap="round" fill="none" layerid="3" net="" id="gge1149" locked="0" /><polyline points="4076.5 3140 4071.5 3140" stroke-width="0.5"  stroke-linecap="round" fill="none" layerid="3" net="" id="gge1152" locked="0" /><polyline points="4066.5 3140 4054 3140 4054 3162.5" stroke-width="0.5"  stroke-linecap="round" fill="none" layerid="3" net="" id="gge1155" locked="0" /><polyline points="4071.5 3210 4076.5 3210" stroke-width="0.5"  stroke-linecap="round" fill="none" layerid="3" net="" id="gge1158" locked="0" /><polyline points="4081.5 3210 4086.5 3210" stroke-width="0.5"  stroke-linecap="round" fill="none" layerid="3" net="" id="gge1161" locked="0" /><polyline points="4091.5 3210 4101.5 3210" stroke-width="0.5"  stroke-linecap="round" fill="none" layerid="3" net="" id="gge1164" locked="0" /><polyline points="4144 3185 4154 3185 4154 3170 4144 3170 4144 3185" stroke-width="0.5"  stroke-linecap="round" fill="none" layerid="3" net="" id="gge1167" locked="0" /><polyline points="4276.374 3215.5 4276.374 3213.5315 4292.122 3213.5315 4292.122 3215.5" stroke-width="1"  stroke-linecap="round" fill="none" layerid="3" net="" id="gge1653" locked="0" /><polyline points="4268.5 3215.5 4268.5 3199.752 4299.996 3199.752 4299.996 3215.5 4268.5 3215.5" stroke-width="1"  stroke-linecap="round" fill="none" layerid="3" net="" id="gge1656" locked="0" /><polyline points="4284.405 3165.2051 4284.405 3180.7949" stroke-width="1"  stroke-linecap="round" fill="none" layerid="3" net="" id="gge1737" locked="0" /><polyline points="4430 3051 4430 3155 4229.5 3155 4230 3051 4430 3051" stroke-width="1"  stroke-linecap="round" fill="none" layerid="3" net="" id="gge1815" locked="0" /><polyline points="4244.8 3172.1 4254.2 3172.1" stroke-width="1"  stroke-linecap="round" fill="none" layerid="3" net="" id="gge2013" locked="0" /><polyline points="4254.2 3172.1 4254.2 3196.9" stroke-width="1"  stroke-linecap="round" fill="none" layerid="3" net="" id="gge2016" locked="0" /><polyline points="4254.2 3196.9 4244.8 3196.9" stroke-width="1"  stroke-linecap="round" fill="none" layerid="3" net="" id="gge2019" locked="0" /><polyline points="4244.8 3196.9 4244.8 3172.1" stroke-width="1"  stroke-linecap="round" fill="none" layerid="3" net="" id="gge2022" locked="0" /><g c_partid="part_pcbtext" c_etype="pinpart" c_origin="4393,3175" c_rotation="0" c_mirror="0" id="gge2604" locked="0" layerid="3" c_shapetype="group" ><path c_fontsize="8" c_fontfamily="NotoSerifCJKsc-Medium" c_text="+" d="M 4396.89 3171.9 L 4395.06 3171.9 L 4395.06 3169.95 L 4394.6 3169.95 L 4394.6 3171.9 L 4392.76 3171.9 L 4392.76 3172.32 L 4394.6 3172.32 L 4394.6 3174.3 L 4395.06 3174.3 L 4395.06 3172.32 L 4396.89 3172.32 Z "  stroke="none" stroke-width="0.8"  /></g><g c_partid="part_pcbtext" c_etype="pinpart" c_origin="4084.383,3103.579" c_rotation="0" c_mirror="0" id="gge2688" locked="0" layerid="3" c_shapetype="group" ><path c_fontsize="8" c_fontfamily="NotoSerifCJKsc-Medium" c_text="+" d="M 4088.2732 3100.4794 L 4086.4432 3100.4794 L 4086.4432 3098.5294 L 4085.9832 3098.5294 L 4085.9832 3100.4794 L 4084.1432 3100.4794 L 4084.1432 3100.8994 L 4085.9832 3100.8994 L 4085.9832 3102.8794 L 4086.4432 3102.8794 L 4086.4432 3100.8994 L 4088.2732 3100.8994 Z "  stroke="none" stroke-width="0.8"  /></g><g c_partid="part_pcbtext" c_etype="pinpart" c_origin="4085,3083.5" c_rotation="0" c_mirror="0" id="gge2700" locked="0" layerid="3" c_shapetype="group" ><path c_fontsize="8" c_fontfamily="NotoSerifCJKsc-Medium" c_text="+" d="M 4088.89 3080.4 L 4087.06 3080.4 L 4087.06 3078.45 L 4086.6 3078.45 L 4086.6 3080.4 L 4084.76 3080.4 L 4084.76 3080.82 L 4086.6 3080.82 L 4086.6 3082.8 L 4087.06 3082.8 L 4087.06 3080.82 L 4088.89 3080.82 Z "  stroke="none" stroke-width="0.8"  /></g><g c_partid="part_pcbtext" c_etype="" c_origin="4366.5,3153" c_rotation="0" c_mirror="0" id="gge87" locked="0" layerid="3" c_shapetype="group" display="none"><path c_fontsize="4.5" c_fontfamily="" c_text="300" d="M 4366.91 3148.46 L 4369.16 3148.46 L 4367.93 3150.1 L 4368.55 3150.1 L 4368.95 3150.3 L 4369.16 3150.5 L 4369.36 3151.12 L 4369.36 3151.53 L 4369.16 3152.14 L 4368.75 3152.55 L 4368.14 3152.75 L 4367.52 3152.75 L 4366.91 3152.55 L 4366.7 3152.35 L 4366.5 3151.94 M 4371.94 3148.46 L 4371.33 3148.66 L 4370.92 3149.28 L 4370.71 3150.3 L 4370.71 3150.91 L 4370.92 3151.94 L 4371.33 3152.55 L 4371.94 3152.75 L 4372.35 3152.75 L 4372.96 3152.55 L 4373.37 3151.94 L 4373.58 3150.91 L 4373.58 3150.3 L 4373.37 3149.28 L 4372.96 3148.66 L 4372.35 3148.46 L 4371.94 3148.46 M 4376.15 3148.46 L 4375.54 3148.66 L 4375.13 3149.28 L 4374.93 3150.3 L 4374.93 3150.91 L 4375.13 3151.94 L 4375.54 3152.55 L 4376.15 3152.75 L 4376.56 3152.75 L 4377.18 3152.55 L 4377.59 3151.94 L 4377.79 3150.91 L 4377.79 3150.3 L 4377.59 3149.28 L 4377.18 3148.66 L 4376.56 3148.46 L 4376.15 3148.46" fill="none"  stroke-width="0.6" c_note="note_name" /></g><g c_partid="part_pcbtext" c_etype="" c_origin="4364.5,3169.5" c_rotation="0" c_mirror="0" id="gge93" locked="0" layerid="3" c_shapetype="group" ><path c_fontsize="4.5" c_fontfamily="" c_text="R1" d="M 4364.5 3164.96 L 4364.5 3169.25 M 4364.5 3164.96 L 4366.34 3164.96 L 4366.95 3165.16 L 4367.16 3165.37 L 4367.36 3165.78 L 4367.36 3166.19 L 4367.16 3166.6 L 4366.95 3166.8 L 4366.34 3167 L 4364.5 3167 M 4365.93 3167 L 4367.36 3169.25 M 4368.71 3165.78 L 4369.12 3165.57 L 4369.74 3164.96 L 4369.74 3169.25" fill="none"  stroke-width="0.6" c_note="note_pre" /></g><g c_partid="part_pcbtext" c_etype="" c_origin="4330,3169" c_rotation="0" c_mirror="0" id="gge165" locked="0" layerid="3" c_shapetype="group" display="none"><path c_fontsize="4.5" c_fontfamily="" c_text="300" d="M 4330.41 3164.46 L 4332.66 3164.46 L 4331.43 3166.1 L 4332.05 3166.1 L 4332.45 3166.3 L 4332.66 3166.5 L 4332.86 3167.12 L 4332.86 3167.53 L 4332.66 3168.14 L 4332.25 3168.55 L 4331.64 3168.75 L 4331.02 3168.75 L 4330.41 3168.55 L 4330.2 3168.35 L 4330 3167.94 M 4335.44 3164.46 L 4334.83 3164.66 L 4334.42 3165.28 L 4334.21 3166.3 L 4334.21 3166.91 L 4334.42 3167.94 L 4334.83 3168.55 L 4335.44 3168.75 L 4335.85 3168.75 L 4336.46 3168.55 L 4336.87 3167.94 L 4337.08 3166.91 L 4337.08 3166.3 L 4336.87 3165.28 L 4336.46 3164.66 L 4335.85 3164.46 L 4335.44 3164.46 M 4339.65 3164.46 L 4339.04 3164.66 L 4338.63 3165.28 L 4338.43 3166.3 L 4338.43 3166.91 L 4338.63 3167.94 L 4339.04 3168.55 L 4339.65 3168.75 L 4340.06 3168.75 L 4340.68 3168.55 L 4341.09 3167.94 L 4341.29 3166.91 L 4341.29 3166.3 L 4341.09 3165.28 L 4340.68 3164.66 L 4340.06 3164.46 L 4339.65 3164.46" fill="none"  stroke-width="0.6" c_note="note_name" /></g><g c_partid="part_pcbtext" c_etype="" c_origin="4326.5,3186" c_rotation="0" c_mirror="0" id="gge171" locked="0" layerid="3" c_shapetype="group" ><path c_fontsize="4.5" c_fontfamily="" c_text="R2" d="M 4326.5 3181.46 L 4326.5 3185.75 M 4326.5 3181.46 L 4328.34 3181.46 L 4328.95 3181.66 L 4329.16 3181.87 L 4329.36 3182.28 L 4329.36 3182.69 L 4329.16 3183.1 L 4328.95 3183.3 L 4328.34 3183.5 L 4326.5 3183.5 M 4327.93 3183.5 L 4329.36 3185.75 M 4330.92 3182.48 L 4330.92 3182.28 L 4331.12 3181.87 L 4331.33 3181.66 L 4331.74 3181.46 L 4332.55 3181.46 L 4332.96 3181.66 L 4333.17 3181.87 L 4333.37 3182.28 L 4333.37 3182.69 L 4333.17 3183.1 L 4332.76 3183.71 L 4330.71 3185.75 L 4333.58 3185.75" fill="none"  stroke-width="0.6" c_note="note_pre" /></g><g c_partid="part_pcbtext" c_etype="" c_origin="4314,3153.5" c_rotation="0" c_mirror="0" id="gge243" locked="0" layerid="3" c_shapetype="group" display="none"><path c_fontsize="4.5" c_fontfamily="" c_text="1000" d="M 4314 3149.78 L 4314.41 3149.57 L 4315.02 3148.96 L 4315.02 3153.25 M 4317.6 3148.96 L 4316.99 3149.16 L 4316.58 3149.78 L 4316.37 3150.8 L 4316.37 3151.41 L 4316.58 3152.44 L 4316.99 3153.05 L 4317.6 3153.25 L 4318.01 3153.25 L 4318.62 3153.05 L 4319.03 3152.44 L 4319.24 3151.41 L 4319.24 3150.8 L 4319.03 3149.78 L 4318.62 3149.16 L 4318.01 3148.96 L 4317.6 3148.96 M 4321.81 3148.96 L 4321.2 3149.16 L 4320.79 3149.78 L 4320.59 3150.8 L 4320.59 3151.41 L 4320.79 3152.44 L 4321.2 3153.05 L 4321.81 3153.25 L 4322.22 3153.25 L 4322.84 3153.05 L 4323.25 3152.44 L 4323.45 3151.41 L 4323.45 3150.8 L 4323.25 3149.78 L 4322.84 3149.16 L 4322.22 3148.96 L 4321.81 3148.96 M 4326.03 3148.96 L 4325.41 3149.16 L 4325 3149.78 L 4324.8 3150.8 L 4324.8 3151.41 L 4325 3152.44 L 4325.41 3153.05 L 4326.03 3153.25 L 4326.44 3153.25 L 4327.05 3153.05 L 4327.46 3152.44 L 4327.66 3151.41 L 4327.66 3150.8 L 4327.46 3149.78 L 4327.05 3149.16 L 4326.44 3148.96 L 4326.03 3148.96" fill="none"  stroke-width="0.6" c_note="note_name" /></g><g c_partid="part_pcbtext" c_etype="" c_origin="4311,3170" c_rotation="0" c_mirror="0" id="gge249" locked="0" layerid="3" c_shapetype="group" ><path c_fontsize="4.5" c_fontfamily="" c_text="R3" d="M 4311 3165.46 L 4311 3169.75 M 4311 3165.46 L 4312.84 3165.46 L 4313.45 3165.66 L 4313.66 3165.87 L 4313.86 3166.28 L 4313.86 3166.69 L 4313.66 3167.1 L 4313.45 3167.3 L 4312.84 3167.5 L 4311 3167.5 M 4312.43 3167.5 L 4313.86 3169.75 M 4315.62 3165.46 L 4317.87 3165.46 L 4316.65 3167.1 L 4317.26 3167.1 L 4317.67 3167.3 L 4317.87 3167.5 L 4318.08 3168.12 L 4318.08 3168.53 L 4317.87 3169.14 L 4317.46 3169.55 L 4316.85 3169.75 L 4316.24 3169.75 L 4315.62 3169.55 L 4315.42 3169.35 L 4315.21 3168.94" fill="none"  stroke-width="0.6" c_note="note_pre" /></g><g c_partid="part_pcbtext" c_etype="" c_origin="4222.5,3184.5" c_rotation="90" c_mirror="0" id="gge321" locked="0" layerid="3" c_shapetype="group" display="none"><path c_fontsize="4.5" c_fontfamily="" c_text="300" d="M 4217.96 3184.09 L 4217.96 3181.84 L 4219.6 3183.07 L 4219.6 3182.45 L 4219.8 3182.05 L 4220 3181.84 L 4220.62 3181.64 L 4221.03 3181.64 L 4221.64 3181.84 L 4222.05 3182.25 L 4222.25 3182.86 L 4222.25 3183.48 L 4222.05 3184.09 L 4221.85 3184.3 L 4221.44 3184.5 M 4217.96 3179.06 L 4218.16 3179.67 L 4218.78 3180.08 L 4219.8 3180.29 L 4220.41 3180.29 L 4221.44 3180.08 L 4222.05 3179.67 L 4222.25 3179.06 L 4222.25 3178.65 L 4222.05 3178.04 L 4221.44 3177.63 L 4220.41 3177.42 L 4219.8 3177.42 L 4218.78 3177.63 L 4218.16 3178.04 L 4217.96 3178.65 L 4217.96 3179.06 M 4217.96 3174.85 L 4218.16 3175.46 L 4218.78 3175.87 L 4219.8 3176.07 L 4220.41 3176.07 L 4221.44 3175.87 L 4222.05 3175.46 L 4222.25 3174.85 L 4222.25 3174.44 L 4222.05 3173.82 L 4221.44 3173.41 L 4220.41 3173.21 L 4219.8 3173.21 L 4218.78 3173.41 L 4218.16 3173.82 L 4217.96 3174.44 L 4217.96 3174.85" fill="none"  stroke-width="0.6" c_note="note_name" /></g><g c_partid="part_pcbtext" c_etype="" c_origin="4239,3187" c_rotation="90" c_mirror="0" id="gge327" locked="0" layerid="3" c_shapetype="group" ><path c_fontsize="4.5" c_fontfamily="" c_text="R4" d="M 4234.46 3187 L 4238.75 3187 M 4234.46 3187 L 4234.46 3185.16 L 4234.66 3184.55 L 4234.87 3184.34 L 4235.28 3184.14 L 4235.69 3184.14 L 4236.1 3184.34 L 4236.3 3184.55 L 4236.5 3185.16 L 4236.5 3187 M 4236.5 3185.57 L 4238.75 3184.14 M 4234.46 3180.74 L 4237.32 3182.79 L 4237.32 3179.72 M 4234.46 3180.74 L 4238.75 3180.74" fill="none"  stroke-width="0.6" c_note="note_pre" /></g><g c_partid="part_pcbtext" c_etype="" c_origin="4093.581,3178.555" c_rotation="90" c_mirror="0" id="gge399" locked="0" layerid="3" c_shapetype="group" display="none"><path c_fontsize="4.5" c_fontfamily="" c_text="TERMINAL BLOCK 2P" d="M 4089.0413 3177.1245 L 4093.3313 3177.1245 M 4089.0413 3178.5545 L 4089.0413 3175.6945 M 4089.0413 3174.3445 L 4093.3313 3174.3445 M 4089.0413 3174.3445 L 4089.0413 3171.6845 M 4091.0813 3174.3445 L 4091.0813 3172.7045 M 4093.3313 3174.3445 L 4093.3313 3171.6845 M 4089.0413 3170.3345 L 4093.3313 3170.3345 M 4089.0413 3170.3345 L 4089.0413 3168.4945 L 4089.2413 3167.8745 L 4089.4513 3167.6745 L 4089.8613 3167.4645 L 4090.2713 3167.4645 L 4090.6813 3167.6745 L 4090.8813 3167.8745 L 4091.0813 3168.4945 L 4091.0813 3170.3345 M 4091.0813 3168.9045 L 4093.3313 3167.4645 M 4089.0413 3166.1145 L 4093.3313 3166.1145 M 4089.0413 3166.1145 L 4093.3313 3164.4845 M 4089.0413 3162.8445 L 4093.3313 3164.4845 M 4089.0413 3162.8445 L 4093.3313 3162.8445 M 4089.0413 3161.4945 L 4093.3313 3161.4945 M 4089.0413 3160.1445 L 4093.3313 3160.1445 M 4089.0413 3160.1445 L 4093.3313 3157.2845 M 4089.0413 3157.2845 L 4093.3313 3157.2845 M 4089.0413 3154.2945 L 4093.3313 3155.9345 M 4089.0413 3154.2945 L 4093.3313 3152.6545 M 4091.9013 3155.3145 L 4091.9013 3153.2745 M 4089.0413 3151.3045 L 4093.3313 3151.3045 M 4093.3313 3151.3045 L 4093.3313 3148.8545 M 4089.0413 3144.3545 L 4093.3313 3144.3545 M 4089.0413 3144.3545 L 4089.0413 3142.5145 L 4089.2413 3141.9045 L 4089.4513 3141.6945 L 4089.8613 3141.4945 L 4090.2713 3141.4945 L 4090.6813 3141.6945 L 4090.8813 3141.9045 L 4091.0813 3142.5145 M 4091.0813 3144.3545 L 4091.0813 3142.5145 L 4091.2913 3141.9045 L 4091.4913 3141.6945 L 4091.9013 3141.4945 L 4092.5213 3141.4945 L 4092.9313 3141.6945 L 4093.1313 3141.9045 L 4093.3313 3142.5145 L 4093.3313 3144.3545 M 4089.0413 3140.1445 L 4093.3313 3140.1445 M 4093.3313 3140.1445 L 4093.3313 3137.6845 M 4089.0413 3135.1045 L 4089.2413 3135.5145 L 4089.6513 3135.9245 L 4090.0613 3136.1345 L 4090.6813 3136.3345 L 4091.7013 3136.3345 L 4092.3113 3136.1345 L 4092.7213 3135.9245 L 4093.1313 3135.5145 L 4093.3313 3135.1045 L 4093.3313 3134.2945 L 4093.1313 3133.8845 L 4092.7213 3133.4745 L 4092.3113 3133.2645 L 4091.7013 3133.0645 L 4090.6813 3133.0645 L 4090.0613 3133.2645 L 4089.6513 3133.4745 L 4089.2413 3133.8845 L 4089.0413 3134.2945 L 4089.0413 3135.1045 M 4090.0613 3128.6445 L 4089.6513 3128.8545 L 4089.2413 3129.2545 L 4089.0413 3129.6645 L 4089.0413 3130.4845 L 4089.2413 3130.8945 L 4089.6513 3131.3045 L 4090.0613 3131.5045 L 4090.6813 3131.7145 L 4091.7013 3131.7145 L 4092.3113 3131.5045 L 4092.7213 3131.3045 L 4093.1313 3130.8945 L 4093.3313 3130.4845 L 4093.3313 3129.6645 L 4093.1313 3129.2545 L 4092.7213 3128.8545 L 4092.3113 3128.6445 M 4089.0413 3127.2945 L 4093.3313 3127.2945 M 4089.0413 3124.4345 L 4091.9013 3127.2945 M 4090.8813 3126.2745 L 4093.3313 3124.4345 M 4090.0613 3119.7245 L 4089.8613 3119.7245 L 4089.4513 3119.5245 L 4089.2413 3119.3145 L 4089.0413 3118.9045 L 4089.0413 3118.0945 L 4089.2413 3117.6845 L 4089.4513 3117.4745 L 4089.8613 3117.2745 L 4090.2713 3117.2745 L 4090.6813 3117.4745 L 4091.2913 3117.8845 L 4093.3313 3119.9345 L 4093.3313 3117.0645 M 4089.0413 3115.7145 L 4093.3313 3115.7145 M 4089.0413 3115.7145 L 4089.0413 3113.8745 L 4089.2413 3113.2645 L 4089.4513 3113.0545 L 4089.8613 3112.8545 L 4090.4713 3112.8545 L 4090.8813 3113.0545 L 4091.0813 3113.2645 L 4091.2913 3113.8745 L 4091.2913 3115.7145" fill="none"  stroke-width="0.6" c_note="note_name" /></g><g c_partid="part_pcbtext" c_etype="" c_origin="4089.5,3099.5" c_rotation="270" c_mirror="0" id="gge405" locked="0" layerid="3" c_shapetype="group" ><path c_fontsize="4.5" c_fontfamily="" c_text="BATTERY" d="M 4094.04 3099.5 L 4089.75 3099.5 M 4094.04 3099.5 L 4094.04 3101.34 L 4093.84 3101.95 L 4093.63 3102.16 L 4093.22 3102.36 L 4092.81 3102.36 L 4092.4 3102.16 L 4092.2 3101.95 L 4092 3101.34 M 4092 3099.5 L 4092 3101.34 L 4091.79 3101.95 L 4091.59 3102.16 L 4091.18 3102.36 L 4090.56 3102.36 L 4090.15 3102.16 L 4089.95 3101.95 L 4089.75 3101.34 L 4089.75 3099.5 M 4094.04 3105.35 L 4089.75 3103.71 M 4094.04 3105.35 L 4089.75 3106.99 M 4091.18 3104.33 L 4091.18 3106.37 M 4094.04 3109.77 L 4089.75 3109.77 M 4094.04 3108.34 L 4094.04 3111.2 M 4094.04 3113.98 L 4089.75 3113.98 M 4094.04 3112.55 L 4094.04 3115.41 M 4094.04 3116.76 L 4089.75 3116.76 M 4094.04 3116.76 L 4094.04 3119.42 M 4092 3116.76 L 4092 3118.4 M 4089.75 3116.76 L 4089.75 3119.42 M 4094.04 3120.77 L 4089.75 3120.77 M 4094.04 3120.77 L 4094.04 3122.61 L 4093.84 3123.23 L 4093.63 3123.43 L 4093.22 3123.64 L 4092.81 3123.64 L 4092.4 3123.43 L 4092.2 3123.23 L 4092 3122.61 L 4092 3120.77 M 4092 3122.2 L 4089.75 3123.64 M 4094.04 3124.99 L 4092 3126.62 L 4089.75 3126.62 M 4094.04 3128.26 L 4092 3126.62" fill="none"  stroke-width="0.6" c_note="note_pre" /></g><g c_partid="part_pcbtext" c_etype="" c_origin="4391.709,3185.646" c_rotation="90" c_mirror="0" id="gge483" locked="0" layerid="3" c_shapetype="group" display="none"><path c_fontsize="4.5" c_fontfamily="" c_text="TERMINAL BLOCK 2P" d="M 4387.1687 3184.2156 L 4391.4587 3184.2156 M 4387.1687 3185.6456 L 4387.1687 3182.7856 M 4387.1687 3181.4356 L 4391.4587 3181.4356 M 4387.1687 3181.4356 L 4387.1687 3178.7756 M 4389.2087 3181.4356 L 4389.2087 3179.7956 M 4391.4587 3181.4356 L 4391.4587 3178.7756 M 4387.1687 3177.4256 L 4391.4587 3177.4256 M 4387.1687 3177.4256 L 4387.1687 3175.5856 L 4387.3687 3174.9656 L 4387.5787 3174.7656 L 4387.9887 3174.5556 L 4388.3987 3174.5556 L 4388.8087 3174.7656 L 4389.0087 3174.9656 L 4389.2087 3175.5856 L 4389.2087 3177.4256 M 4389.2087 3175.9956 L 4391.4587 3174.5556 M 4387.1687 3173.2056 L 4391.4587 3173.2056 M 4387.1687 3173.2056 L 4391.4587 3171.5756 M 4387.1687 3169.9356 L 4391.4587 3171.5756 M 4387.1687 3169.9356 L 4391.4587 3169.9356 M 4387.1687 3168.5856 L 4391.4587 3168.5856 M 4387.1687 3167.2356 L 4391.4587 3167.2356 M 4387.1687 3167.2356 L 4391.4587 3164.3756 M 4387.1687 3164.3756 L 4391.4587 3164.3756 M 4387.1687 3161.3856 L 4391.4587 3163.0256 M 4387.1687 3161.3856 L 4391.4587 3159.7456 M 4390.0287 3162.4056 L 4390.0287 3160.3656 M 4387.1687 3158.3956 L 4391.4587 3158.3956 M 4391.4587 3158.3956 L 4391.4587 3155.9456 M 4387.1687 3151.4456 L 4391.4587 3151.4456 M 4387.1687 3151.4456 L 4387.1687 3149.6056 L 4387.3687 3148.9956 L 4387.5787 3148.7856 L 4387.9887 3148.5856 L 4388.3987 3148.5856 L 4388.8087 3148.7856 L 4389.0087 3148.9956 L 4389.2087 3149.6056 M 4389.2087 3151.4456 L 4389.2087 3149.6056 L 4389.4187 3148.9956 L 4389.6187 3148.7856 L 4390.0287 3148.5856 L 4390.6487 3148.5856 L 4391.0587 3148.7856 L 4391.2587 3148.9956 L 4391.4587 3149.6056 L 4391.4587 3151.4456 M 4387.1687 3147.2356 L 4391.4587 3147.2356 M 4391.4587 3147.2356 L 4391.4587 3144.7756 M 4387.1687 3142.1956 L 4387.3687 3142.6056 L 4387.7787 3143.0156 L 4388.1887 3143.2256 L 4388.8087 3143.4256 L 4389.8287 3143.4256 L 4390.4387 3143.2256 L 4390.8487 3143.0156 L 4391.2587 3142.6056 L 4391.4587 3142.1956 L 4391.4587 3141.3856 L 4391.2587 3140.9756 L 4390.8487 3140.5656 L 4390.4387 3140.3556 L 4389.8287 3140.1556 L 4388.8087 3140.1556 L 4388.1887 3140.3556 L 4387.7787 3140.5656 L 4387.3687 3140.9756 L 4387.1687 3141.3856 L 4387.1687 3142.1956 M 4388.1887 3135.7356 L 4387.7787 3135.9456 L 4387.3687 3136.3456 L 4387.1687 3136.7556 L 4387.1687 3137.5756 L 4387.3687 3137.9856 L 4387.7787 3138.3956 L 4388.1887 3138.5956 L 4388.8087 3138.8056 L 4389.8287 3138.8056 L 4390.4387 3138.5956 L 4390.8487 3138.3956 L 4391.2587 3137.9856 L 4391.4587 3137.5756 L 4391.4587 3136.7556 L 4391.2587 3136.3456 L 4390.8487 3135.9456 L 4390.4387 3135.7356 M 4387.1687 3134.3856 L 4391.4587 3134.3856 M 4387.1687 3131.5256 L 4390.0287 3134.3856 M 4389.0087 3133.3656 L 4391.4587 3131.5256 M 4388.1887 3126.8156 L 4387.9887 3126.8156 L 4387.5787 3126.6156 L 4387.3687 3126.4056 L 4387.1687 3125.9956 L 4387.1687 3125.1856 L 4387.3687 3124.7756 L 4387.5787 3124.5656 L 4387.9887 3124.3656 L 4388.3987 3124.3656 L 4388.8087 3124.5656 L 4389.4187 3124.9756 L 4391.4587 3127.0256 L 4391.4587 3124.1556 M 4387.1687 3122.8056 L 4391.4587 3122.8056 M 4387.1687 3122.8056 L 4387.1687 3120.9656 L 4387.3687 3120.3556 L 4387.5787 3120.1456 L 4387.9887 3119.9456 L 4388.5987 3119.9456 L 4389.0087 3120.1456 L 4389.2087 3120.3556 L 4389.4187 3120.9656 L 4389.4187 3122.8056" fill="none"  stroke-width="0.6" c_note="note_name" /></g><g c_partid="part_pcbtext" c_etype="" c_origin="4397,3204.5" c_rotation="90" c_mirror="0" id="gge489" locked="0" layerid="3" c_shapetype="group" ><path c_fontsize="4.5" c_fontfamily="" c_text="CHARGER" d="M 4393.48 3201.43 L 4393.07 3201.64 L 4392.66 3202.05 L 4392.46 3202.45 L 4392.46 3203.27 L 4392.66 3203.68 L 4393.07 3204.09 L 4393.48 3204.3 L 4394.1 3204.5 L 4395.12 3204.5 L 4395.73 3204.3 L 4396.14 3204.09 L 4396.55 3203.68 L 4396.75 3203.27 L 4396.75 3202.45 L 4396.55 3202.05 L 4396.14 3201.64 L 4395.73 3201.43 M 4392.46 3200.08 L 4396.75 3200.08 M 4392.46 3197.22 L 4396.75 3197.22 M 4394.5 3200.08 L 4394.5 3197.22 M 4392.46 3194.23 L 4396.75 3195.87 M 4392.46 3194.23 L 4396.75 3192.6 M 4395.32 3195.25 L 4395.32 3193.21 M 4392.46 3191.25 L 4396.75 3191.25 M 4392.46 3191.25 L 4392.46 3189.4 L 4392.66 3188.79 L 4392.87 3188.59 L 4393.28 3188.38 L 4393.69 3188.38 L 4394.1 3188.59 L 4394.3 3188.79 L 4394.5 3189.4 L 4394.5 3191.25 M 4394.5 3189.81 L 4396.75 3188.38 M 4393.48 3183.96 L 4393.07 3184.17 L 4392.66 3184.58 L 4392.46 3184.99 L 4392.46 3185.8 L 4392.66 3186.21 L 4393.07 3186.62 L 4393.48 3186.83 L 4394.1 3187.03 L 4395.12 3187.03 L 4395.73 3186.83 L 4396.14 3186.62 L 4396.55 3186.21 L 4396.75 3185.8 L 4396.75 3184.99 L 4396.55 3184.58 L 4396.14 3184.17 L 4395.73 3183.96 L 4395.12 3183.96 M 4395.12 3184.99 L 4395.12 3183.96 M 4392.46 3182.61 L 4396.75 3182.61 M 4392.46 3182.61 L 4392.46 3179.95 M 4394.5 3182.61 L 4394.5 3180.98 M 4396.75 3182.61 L 4396.75 3179.95 M 4392.46 3178.6 L 4396.75 3178.6 M 4392.46 3178.6 L 4392.46 3176.76 L 4392.66 3176.15 L 4392.87 3175.95 L 4393.28 3175.74 L 4393.69 3175.74 L 4394.1 3175.95 L 4394.3 3176.15 L 4394.5 3176.76 L 4394.5 3178.6 M 4394.5 3177.17 L 4396.75 3175.74" fill="none"  stroke-width="0.6" c_note="note_pre" /></g><g c_partid="part_pcbtext" c_etype="" c_origin="4094.081,3135.055" c_rotation="90" c_mirror="0" id="gge567" locked="0" layerid="3" c_shapetype="group" display="none"><path c_fontsize="4.5" c_fontfamily="" c_text="TERMINAL BLOCK 2P" d="M 4089.5413 3133.6245 L 4093.8313 3133.6245 M 4089.5413 3135.0545 L 4089.5413 3132.1945 M 4089.5413 3130.8445 L 4093.8313 3130.8445 M 4089.5413 3130.8445 L 4089.5413 3128.1845 M 4091.5813 3130.8445 L 4091.5813 3129.2045 M 4093.8313 3130.8445 L 4093.8313 3128.1845 M 4089.5413 3126.8345 L 4093.8313 3126.8345 M 4089.5413 3126.8345 L 4089.5413 3124.9945 L 4089.7413 3124.3745 L 4089.9513 3124.1745 L 4090.3613 3123.9645 L 4090.7713 3123.9645 L 4091.1813 3124.1745 L 4091.3813 3124.3745 L 4091.5813 3124.9945 L 4091.5813 3126.8345 M 4091.5813 3125.4045 L 4093.8313 3123.9645 M 4089.5413 3122.6145 L 4093.8313 3122.6145 M 4089.5413 3122.6145 L 4093.8313 3120.9845 M 4089.5413 3119.3445 L 4093.8313 3120.9845 M 4089.5413 3119.3445 L 4093.8313 3119.3445 M 4089.5413 3117.9945 L 4093.8313 3117.9945 M 4089.5413 3116.6445 L 4093.8313 3116.6445 M 4089.5413 3116.6445 L 4093.8313 3113.7845 M 4089.5413 3113.7845 L 4093.8313 3113.7845 M 4089.5413 3110.7945 L 4093.8313 3112.4345 M 4089.5413 3110.7945 L 4093.8313 3109.1545 M 4092.4013 3111.8145 L 4092.4013 3109.7745 M 4089.5413 3107.8045 L 4093.8313 3107.8045 M 4093.8313 3107.8045 L 4093.8313 3105.3545 M 4089.5413 3100.8545 L 4093.8313 3100.8545 M 4089.5413 3100.8545 L 4089.5413 3099.0145 L 4089.7413 3098.4045 L 4089.9513 3098.1945 L 4090.3613 3097.9945 L 4090.7713 3097.9945 L 4091.1813 3098.1945 L 4091.3813 3098.4045 L 4091.5813 3099.0145 M 4091.5813 3100.8545 L 4091.5813 3099.0145 L 4091.7913 3098.4045 L 4091.9913 3098.1945 L 4092.4013 3097.9945 L 4093.0213 3097.9945 L 4093.4313 3098.1945 L 4093.6313 3098.4045 L 4093.8313 3099.0145 L 4093.8313 3100.8545 M 4089.5413 3096.6445 L 4093.8313 3096.6445 M 4093.8313 3096.6445 L 4093.8313 3094.1845 M 4089.5413 3091.6045 L 4089.7413 3092.0145 L 4090.1513 3092.4245 L 4090.5613 3092.6345 L 4091.1813 3092.8345 L 4092.2013 3092.8345 L 4092.8113 3092.6345 L 4093.2213 3092.4245 L 4093.6313 3092.0145 L 4093.8313 3091.6045 L 4093.8313 3090.7945 L 4093.6313 3090.3845 L 4093.2213 3089.9745 L 4092.8113 3089.7645 L 4092.2013 3089.5645 L 4091.1813 3089.5645 L 4090.5613 3089.7645 L 4090.1513 3089.9745 L 4089.7413 3090.3845 L 4089.5413 3090.7945 L 4089.5413 3091.6045 M 4090.5613 3085.1445 L 4090.1513 3085.3545 L 4089.7413 3085.7545 L 4089.5413 3086.1645 L 4089.5413 3086.9845 L 4089.7413 3087.3945 L 4090.1513 3087.8045 L 4090.5613 3088.0045 L 4091.1813 3088.2145 L 4092.2013 3088.2145 L 4092.8113 3088.0045 L 4093.2213 3087.8045 L 4093.6313 3087.3945 L 4093.8313 3086.9845 L 4093.8313 3086.1645 L 4093.6313 3085.7545 L 4093.2213 3085.3545 L 4092.8113 3085.1445 M 4089.5413 3083.7945 L 4093.8313 3083.7945 M 4089.5413 3080.9345 L 4092.4013 3083.7945 M 4091.3813 3082.7745 L 4093.8313 3080.9345 M 4090.5613 3076.2245 L 4090.3613 3076.2245 L 4089.9513 3076.0245 L 4089.7413 3075.8145 L 4089.5413 3075.4045 L 4089.5413 3074.5945 L 4089.7413 3074.1845 L 4089.9513 3073.9745 L 4090.3613 3073.7745 L 4090.7713 3073.7745 L 4091.1813 3073.9745 L 4091.7913 3074.3845 L 4093.8313 3076.4345 L 4093.8313 3073.5645 M 4089.5413 3072.2145 L 4093.8313 3072.2145 M 4089.5413 3072.2145 L 4089.5413 3070.3745 L 4089.7413 3069.7645 L 4089.9513 3069.5545 L 4090.3613 3069.3545 L 4090.9713 3069.3545 L 4091.3813 3069.5545 L 4091.5813 3069.7645 L 4091.7913 3070.3745 L 4091.7913 3072.2145" fill="none"  stroke-width="0.6" c_note="note_name" /></g><g c_partid="part_pcbtext" c_etype="" c_origin="4089.5,3065" c_rotation="270" c_mirror="0" id="gge573" locked="0" layerid="3" c_shapetype="group" ><path c_fontsize="4.5" c_fontfamily="" c_text="OUT" d="M 4094.04 3066.23 L 4093.84 3065.82 L 4093.43 3065.41 L 4093.02 3065.2 L 4092.4 3065 L 4091.38 3065 L 4090.77 3065.2 L 4090.36 3065.41 L 4089.95 3065.82 L 4089.75 3066.23 L 4089.75 3067.05 L 4089.95 3067.45 L 4090.36 3067.86 L 4090.77 3068.07 L 4091.38 3068.27 L 4092.4 3068.27 L 4093.02 3068.07 L 4093.43 3067.86 L 4093.84 3067.45 L 4094.04 3067.05 L 4094.04 3066.23 M 4094.04 3069.62 L 4090.97 3069.62 L 4090.36 3069.83 L 4089.95 3070.24 L 4089.75 3070.85 L 4089.75 3071.26 L 4089.95 3071.87 L 4090.36 3072.28 L 4090.97 3072.49 L 4094.04 3072.49 M 4094.04 3075.27 L 4089.75 3075.27 M 4094.04 3073.84 L 4094.04 3076.7" fill="none"  stroke-width="0.6" c_note="note_pre" /></g><g c_partid="part_pcbtext" c_etype="" c_origin="4309.874,3207.626" c_rotation="90" c_mirror="0" id="gge651" locked="0" layerid="3" c_shapetype="group" display="none"><path c_fontsize="4.5" c_fontfamily="" c_text="JST-PH2.0-4PINS" d="M 4305.334 3205.576 L 4308.604 3205.576 L 4309.224 3205.786 L 4309.424 3205.986 L 4309.624 3206.396 L 4309.624 3206.806 L 4309.424 3207.216 L 4309.224 3207.426 L 4308.604 3207.626 L 4308.194 3207.626 M 4305.944 3201.366 L 4305.534 3201.776 L 4305.334 3202.386 L 4305.334 3203.206 L 4305.534 3203.826 L 4305.944 3204.226 L 4306.354 3204.226 L 4306.764 3204.026 L 4306.974 3203.826 L 4307.174 3203.416 L 4307.584 3202.186 L 4307.784 3201.776 L 4307.994 3201.576 L 4308.404 3201.366 L 4309.014 3201.366 L 4309.424 3201.776 L 4309.624 3202.386 L 4309.624 3203.206 L 4309.424 3203.826 L 4309.014 3204.226 M 4305.334 3198.586 L 4309.624 3198.586 M 4305.334 3200.016 L 4305.334 3197.156 M 4307.784 3195.806 L 4307.784 3192.126 M 4305.334 3190.776 L 4309.624 3190.776 M 4305.334 3190.776 L 4305.334 3188.926 L 4305.534 3188.316 L 4305.744 3188.116 L 4306.154 3187.906 L 4306.764 3187.906 L 4307.174 3188.116 L 4307.374 3188.316 L 4307.584 3188.926 L 4307.584 3190.776 M 4305.334 3186.556 L 4309.624 3186.556 M 4305.334 3183.696 L 4309.624 3183.696 M 4307.374 3186.556 L 4307.374 3183.696 M 4306.354 3182.136 L 4306.154 3182.136 L 4305.744 3181.936 L 4305.534 3181.726 L 4305.334 3181.326 L 4305.334 3180.506 L 4305.534 3180.096 L 4305.744 3179.886 L 4306.154 3179.686 L 4306.564 3179.686 L 4306.974 3179.886 L 4307.584 3180.296 L 4309.624 3182.346 L 4309.624 3179.476 M 4308.604 3177.926 L 4308.814 3178.126 L 4309.014 3177.926 L 4308.814 3177.726 L 4308.604 3177.926 M 4305.334 3175.146 L 4305.534 3175.756 L 4306.154 3176.166 L 4307.174 3176.376 L 4307.784 3176.376 L 4308.814 3176.166 L 4309.424 3175.756 L 4309.624 3175.146 L 4309.624 3174.736 L 4309.424 3174.126 L 4308.814 3173.716 L 4307.784 3173.506 L 4307.174 3173.506 L 4306.154 3173.716 L 4305.534 3174.126 L 4305.334 3174.736 L 4305.334 3175.146 M 4307.784 3172.156 L 4307.784 3168.476 M 4305.334 3165.076 L 4308.194 3167.126 L 4308.194 3164.056 M 4305.334 3165.076 L 4309.624 3165.076 M 4305.334 3162.706 L 4309.624 3162.706 M 4305.334 3162.706 L 4305.334 3160.866 L 4305.534 3160.256 L 4305.744 3160.046 L 4306.154 3159.846 L 4306.764 3159.846 L 4307.174 3160.046 L 4307.374 3160.256 L 4307.584 3160.866 L 4307.584 3162.706 M 4305.334 3158.496 L 4309.624 3158.496 M 4305.334 3157.146 L 4309.624 3157.146 M 4305.334 3157.146 L 4309.624 3154.276 M 4305.334 3154.276 L 4309.624 3154.276 M 4305.944 3150.066 L 4305.534 3150.476 L 4305.334 3151.086 L 4305.334 3151.906 L 4305.534 3152.526 L 4305.944 3152.926 L 4306.354 3152.926 L 4306.764 3152.726 L 4306.974 3152.526 L 4307.174 3152.116 L 4307.584 3150.886 L 4307.784 3150.476 L 4307.994 3150.276 L 4308.404 3150.066 L 4309.014 3150.066 L 4309.424 3150.476 L 4309.624 3151.086 L 4309.624 3151.906 L 4309.424 3152.526 L 4309.014 3152.926" fill="none"  stroke-width="0.6" c_note="note_name" /></g><g c_partid="part_pcbtext" c_etype="" c_origin="4325.5,3197.5" c_rotation="0" c_mirror="0" id="gge657" locked="0" layerid="3" c_shapetype="group" ><path c_fontsize="4.5" c_fontfamily="" c_text="BUTTON" d="M 4325.5 3192.96 L 4325.5 3197.25 M 4325.5 3192.96 L 4327.34 3192.96 L 4327.95 3193.16 L 4328.16 3193.37 L 4328.36 3193.78 L 4328.36 3194.19 L 4328.16 3194.6 L 4327.95 3194.8 L 4327.34 3195 M 4325.5 3195 L 4327.34 3195 L 4327.95 3195.21 L 4328.16 3195.41 L 4328.36 3195.82 L 4328.36 3196.44 L 4328.16 3196.85 L 4327.95 3197.05 L 4327.34 3197.25 L 4325.5 3197.25 M 4329.71 3192.96 L 4329.71 3196.03 L 4329.92 3196.64 L 4330.33 3197.05 L 4330.94 3197.25 L 4331.35 3197.25 L 4331.96 3197.05 L 4332.37 3196.64 L 4332.58 3196.03 L 4332.58 3192.96 M 4335.36 3192.96 L 4335.36 3197.25 M 4333.93 3192.96 L 4336.79 3192.96 M 4339.57 3192.96 L 4339.57 3197.25 M 4338.14 3192.96 L 4341 3192.96 M 4343.58 3192.96 L 4343.17 3193.16 L 4342.76 3193.57 L 4342.56 3193.98 L 4342.35 3194.6 L 4342.35 3195.62 L 4342.56 3196.23 L 4342.76 3196.64 L 4343.17 3197.05 L 4343.58 3197.25 L 4344.4 3197.25 L 4344.81 3197.05 L 4345.22 3196.64 L 4345.42 3196.23 L 4345.63 3195.62 L 4345.63 3194.6 L 4345.42 3193.98 L 4345.22 3193.57 L 4344.81 3193.16 L 4344.4 3192.96 L 4343.58 3192.96 M 4346.98 3192.96 L 4346.98 3197.25 M 4346.98 3192.96 L 4349.84 3197.25 M 4349.84 3192.96 L 4349.84 3197.25" fill="none"  stroke-width="0.6" c_note="note_pre" /></g><g c_partid="part_pcbtext" c_etype="" c_origin="4199.29,3122.05" c_rotation="90" c_mirror="0" id="gge735" locked="0" layerid="3" c_shapetype="group" display="none"><path c_fontsize="4.5" c_fontfamily="" c_text="1N4007" d="M 4195.57 3122.0498 L 4195.36 3121.6398 L 4194.75 3121.0298 L 4199.04 3121.0298 M 4194.75 3119.6798 L 4199.04 3119.6798 M 4194.75 3119.6798 L 4199.04 3116.8098 M 4194.75 3116.8098 L 4199.04 3116.8098 M 4194.75 3113.4198 L 4197.61 3115.4598 L 4197.61 3112.3998 M 4194.75 3113.4198 L 4199.04 3113.4198 M 4194.75 3109.8198 L 4194.95 3110.4298 L 4195.57 3110.8398 L 4196.59 3111.0498 L 4197.2 3111.0498 L 4198.23 3110.8398 L 4198.84 3110.4298 L 4199.04 3109.8198 L 4199.04 3109.4098 L 4198.84 3108.7998 L 4198.23 3108.3898 L 4197.2 3108.1798 L 4196.59 3108.1798 L 4195.57 3108.3898 L 4194.95 3108.7998 L 4194.75 3109.4098 L 4194.75 3109.8198 M 4194.75 3105.5998 L 4194.95 3106.2198 L 4195.57 3106.6298 L 4196.59 3106.8298 L 4197.2 3106.8298 L 4198.23 3106.6298 L 4198.84 3106.2198 L 4199.04 3105.5998 L 4199.04 3105.1998 L 4198.84 3104.5798 L 4198.23 3104.1698 L 4197.2 3103.9698 L 4196.59 3103.9698 L 4195.57 3104.1698 L 4194.95 3104.5798 L 4194.75 3105.1998 L 4194.75 3105.5998 M 4194.75 3099.7498 L 4199.04 3101.7998 M 4194.75 3102.6198 L 4194.75 3099.7498" fill="none"  stroke-width="0.6" c_note="note_name" /></g><g c_partid="part_pcbtext" c_etype="" c_origin="4178.5,3104" c_rotation="90" c_mirror="0" id="gge741" locked="0" layerid="3" c_shapetype="group" ><path c_fontsize="4.5" c_fontfamily="" c_text="D1" d="M 4173.96 3104 L 4178.25 3104 M 4173.96 3104 L 4173.96 3102.57 L 4174.16 3101.95 L 4174.57 3101.55 L 4174.98 3101.34 L 4175.6 3101.14 L 4176.62 3101.14 L 4177.23 3101.34 L 4177.64 3101.55 L 4178.05 3101.95 L 4178.25 3102.57 L 4178.25 3104 M 4174.78 3099.79 L 4174.57 3099.38 L 4173.96 3098.76 L 4178.25 3098.76" fill="none"  stroke-width="0.6" c_note="note_pre" /></g><g c_partid="part_pcbtext" c_etype="" c_origin="4239.29,3121.862" c_rotation="90" c_mirror="0" id="gge831" locked="0" layerid="3" c_shapetype="group" display="none"><path c_fontsize="4.5" c_fontfamily="" c_text="SB5100" d="M 4235.36 3119.0018 L 4234.95 3119.4118 L 4234.75 3120.0218 L 4234.75 3120.8418 L 4234.95 3121.4518 L 4235.36 3121.8618 L 4235.77 3121.8618 L 4236.18 3121.6618 L 4236.39 3121.4518 L 4236.59 3121.0418 L 4237 3119.8118 L 4237.2 3119.4118 L 4237.41 3119.2018 L 4237.82 3119.0018 L 4238.43 3119.0018 L 4238.84 3119.4118 L 4239.04 3120.0218 L 4239.04 3120.8418 L 4238.84 3121.4518 L 4238.43 3121.8618 M 4234.75 3117.6518 L 4239.04 3117.6518 M 4234.75 3117.6518 L 4234.75 3115.8118 L 4234.95 3115.1918 L 4235.16 3114.9918 L 4235.57 3114.7818 L 4235.98 3114.7818 L 4236.39 3114.9918 L 4236.59 3115.1918 L 4236.79 3115.8118 M 4236.79 3117.6518 L 4236.79 3115.8118 L 4237 3115.1918 L 4237.2 3114.9918 L 4237.61 3114.7818 L 4238.23 3114.7818 L 4238.64 3114.9918 L 4238.84 3115.1918 L 4239.04 3115.8118 L 4239.04 3117.6518 M 4234.75 3110.9818 L 4234.75 3113.0218 L 4236.59 3113.2318 L 4236.39 3113.0218 L 4236.18 3112.4118 L 4236.18 3111.8018 L 4236.39 3111.1818 L 4236.79 3110.7718 L 4237.41 3110.5718 L 4237.82 3110.5718 L 4238.43 3110.7718 L 4238.84 3111.1818 L 4239.04 3111.8018 L 4239.04 3112.4118 L 4238.84 3113.0218 L 4238.64 3113.2318 L 4238.23 3113.4318 M 4235.57 3109.2218 L 4235.36 3108.8118 L 4234.75 3108.2018 L 4239.04 3108.2018 M 4234.75 3105.6218 L 4234.95 3106.2318 L 4235.57 3106.6418 L 4236.59 3106.8518 L 4237.2 3106.8518 L 4238.23 3106.6418 L 4238.84 3106.2318 L 4239.04 3105.6218 L 4239.04 3105.2118 L 4238.84 3104.6018 L 4238.23 3104.1918 L 4237.2 3103.9818 L 4236.59 3103.9818 L 4235.57 3104.1918 L 4234.95 3104.6018 L 4234.75 3105.2118 L 4234.75 3105.6218 M 4234.75 3101.4118 L 4234.95 3102.0218 L 4235.57 3102.4318 L 4236.59 3102.6318 L 4237.2 3102.6318 L 4238.23 3102.4318 L 4238.84 3102.0218 L 4239.04 3101.4118 L 4239.04 3101.0018 L 4238.84 3100.3818 L 4238.23 3099.9718 L 4237.2 3099.7718 L 4236.59 3099.7718 L 4235.57 3099.9718 L 4234.95 3100.3818 L 4234.75 3101.0018 L 4234.75 3101.4118" fill="none"  stroke-width="0.6" c_note="note_name" /></g><g c_partid="part_pcbtext" c_etype="" c_origin="4213.5,3100" c_rotation="270" c_mirror="0" id="gge837" locked="0" layerid="3" c_shapetype="group" ><path c_fontsize="4.5" c_fontfamily="" c_text="D2" d="M 4218.04 3100 L 4213.75 3100 M 4218.04 3100 L 4218.04 3101.43 L 4217.84 3102.05 L 4217.43 3102.45 L 4217.02 3102.66 L 4216.4 3102.86 L 4215.38 3102.86 L 4214.77 3102.66 L 4214.36 3102.45 L 4213.95 3102.05 L 4213.75 3101.43 L 4213.75 3100 M 4217.02 3104.42 L 4217.22 3104.42 L 4217.63 3104.62 L 4217.84 3104.83 L 4218.04 3105.24 L 4218.04 3106.05 L 4217.84 3106.46 L 4217.63 3106.67 L 4217.22 3106.87 L 4216.81 3106.87 L 4216.4 3106.67 L 4215.79 3106.26 L 4213.75 3104.21 L 4213.75 3107.08" fill="none"  stroke-width="0.6" c_note="note_pre" /></g><g c_partid="part_pcbtext" c_etype="" c_origin="4176.79,3149.776" c_rotation="90" c_mirror="0" id="gge915" locked="0" layerid="3" c_shapetype="group" display="none"><path c_fontsize="4.5" c_fontfamily="" c_text="HK3FF-DC5V-SHG" d="M 4172.25 3149.7763 L 4176.54 3149.7763 M 4172.25 3146.9163 L 4176.54 3146.9163 M 4174.29 3149.7763 L 4174.29 3146.9163 M 4172.25 3145.5663 L 4176.54 3145.5663 M 4172.25 3142.6963 L 4175.11 3145.5663 M 4174.09 3144.5363 L 4176.54 3142.6963 M 4172.25 3140.9363 L 4172.25 3138.6863 L 4173.89 3139.9163 L 4173.89 3139.3063 L 4174.09 3138.8963 L 4174.29 3138.6863 L 4174.91 3138.4863 L 4175.32 3138.4863 L 4175.93 3138.6863 L 4176.34 3139.0963 L 4176.54 3139.7163 L 4176.54 3140.3263 L 4176.34 3140.9363 L 4176.14 3141.1463 L 4175.73 3141.3463 M 4172.25 3137.1363 L 4176.54 3137.1363 M 4172.25 3137.1363 L 4172.25 3134.4763 M 4174.29 3137.1363 L 4174.29 3135.4963 M 4172.25 3133.1263 L 4176.54 3133.1263 M 4172.25 3133.1263 L 4172.25 3130.4663 M 4174.29 3133.1263 L 4174.29 3131.4863 M 4174.7 3129.1163 L 4174.7 3125.4363 M 4172.25 3124.0863 L 4176.54 3124.0863 M 4172.25 3124.0863 L 4172.25 3122.6563 L 4172.45 3122.0363 L 4172.86 3121.6263 L 4173.27 3121.4263 L 4173.89 3121.2263 L 4174.91 3121.2263 L 4175.52 3121.4263 L 4175.93 3121.6263 L 4176.34 3122.0363 L 4176.54 3122.6563 L 4176.54 3124.0863 M 4173.27 3116.8063 L 4172.86 3117.0063 L 4172.45 3117.4163 L 4172.25 3117.8263 L 4172.25 3118.6463 L 4172.45 3119.0563 L 4172.86 3119.4663 L 4173.27 3119.6663 L 4173.89 3119.8763 L 4174.91 3119.8763 L 4175.52 3119.6663 L 4175.93 3119.4663 L 4176.34 3119.0563 L 4176.54 3118.6463 L 4176.54 3117.8263 L 4176.34 3117.4163 L 4175.93 3117.0063 L 4175.52 3116.8063 M 4172.25 3112.9963 L 4172.25 3115.0463 L 4174.09 3115.2463 L 4173.89 3115.0463 L 4173.68 3114.4263 L 4173.68 3113.8163 L 4173.89 3113.2063 L 4174.29 3112.7963 L 4174.91 3112.5863 L 4175.32 3112.5863 L 4175.93 3112.7963 L 4176.34 3113.2063 L 4176.54 3113.8163 L 4176.54 3114.4263 L 4176.34 3115.0463 L 4176.14 3115.2463 L 4175.73 3115.4563 M 4172.25 3111.2363 L 4176.54 3109.6063 M 4172.25 3107.9663 L 4176.54 3109.6063 M 4174.7 3106.6163 L 4174.7 3102.9363 M 4172.86 3098.7263 L 4172.45 3099.1263 L 4172.25 3099.7463 L 4172.25 3100.5663 L 4172.45 3101.1763 L 4172.86 3101.5863 L 4173.27 3101.5863 L 4173.68 3101.3763 L 4173.89 3101.1763 L 4174.09 3100.7663 L 4174.5 3099.5363 L 4174.7 3099.1263 L 4174.91 3098.9263 L 4175.32 3098.7263 L 4175.93 3098.7263 L 4176.34 3099.1263 L 4176.54 3099.7463 L 4176.54 3100.5663 L 4176.34 3101.1763 L 4175.93 3101.5863 M 4172.25 3097.3763 L 4176.54 3097.3763 M 4172.25 3094.5063 L 4176.54 3094.5063 M 4174.29 3097.3763 L 4174.29 3094.5063 M 4173.27 3090.0863 L 4172.86 3090.2963 L 4172.45 3090.7063 L 4172.25 3091.1163 L 4172.25 3091.9263 L 4172.45 3092.3363 L 4172.86 3092.7463 L 4173.27 3092.9563 L 4173.89 3093.1563 L 4174.91 3093.1563 L 4175.52 3092.9563 L 4175.93 3092.7463 L 4176.34 3092.3363 L 4176.54 3091.9263 L 4176.54 3091.1163 L 4176.34 3090.7063 L 4175.93 3090.2963 L 4175.52 3090.0863 L 4174.91 3090.0863 M 4174.91 3091.1163 L 4174.91 3090.0863" fill="none"  stroke-width="0.6" c_note="note_name" /></g><g c_partid="part_pcbtext" c_etype="" c_origin="4154,3089.5" c_rotation="270" c_mirror="0" id="gge921" locked="0" layerid="3" c_shapetype="group" ><path c_fontsize="4.5" c_fontfamily="" c_text="K1" d="M 4158.54 3089.5 L 4154.25 3089.5 M 4158.54 3092.36 L 4155.68 3089.5 M 4156.7 3090.52 L 4154.25 3092.36 M 4157.72 3093.71 L 4157.93 3094.12 L 4158.54 3094.74 L 4154.25 3094.74" fill="none"  stroke-width="0.6" c_note="note_pre" /></g><g c_partid="part_pcbtext" c_etype="" c_origin="4136,3132" c_rotation="0" c_mirror="0" id="gge1062" locked="0" layerid="3" c_shapetype="group" display="none"><path c_fontsize="4.5" c_fontfamily="" c_text="ARDUINO-NANO-3.0" d="M 4137.64 3127.46 L 4136 3131.75 M 4137.64 3127.46 L 4139.27 3131.75 M 4136.61 3130.32 L 4138.66 3130.32 M 4140.62 3127.46 L 4140.62 3131.75 M 4140.62 3127.46 L 4142.46 3127.46 L 4143.08 3127.66 L 4143.28 3127.87 L 4143.49 3128.28 L 4143.49 3128.69 L 4143.28 3129.1 L 4143.08 3129.3 L 4142.46 3129.5 L 4140.62 3129.5 M 4142.05 3129.5 L 4143.49 3131.75 M 4144.84 3127.46 L 4144.84 3131.75 M 4144.84 3127.46 L 4146.27 3127.46 L 4146.88 3127.66 L 4147.29 3128.07 L 4147.5 3128.48 L 4147.7 3129.1 L 4147.7 3130.12 L 4147.5 3130.73 L 4147.29 3131.14 L 4146.88 3131.55 L 4146.27 3131.75 L 4144.84 3131.75 M 4149.05 3127.46 L 4149.05 3130.53 L 4149.25 3131.14 L 4149.66 3131.55 L 4150.28 3131.75 L 4150.69 3131.75 L 4151.3 3131.55 L 4151.71 3131.14 L 4151.91 3130.53 L 4151.91 3127.46 M 4153.26 3127.46 L 4153.26 3131.75 M 4154.61 3127.46 L 4154.61 3131.75 M 4154.61 3127.46 L 4157.48 3131.75 M 4157.48 3127.46 L 4157.48 3131.75 M 4160.05 3127.46 L 4159.65 3127.66 L 4159.24 3128.07 L 4159.03 3128.48 L 4158.83 3129.1 L 4158.83 3130.12 L 4159.03 3130.73 L 4159.24 3131.14 L 4159.65 3131.55 L 4160.05 3131.75 L 4160.87 3131.75 L 4161.28 3131.55 L 4161.69 3131.14 L 4161.9 3130.73 L 4162.1 3130.12 L 4162.1 3129.1 L 4161.9 3128.48 L 4161.69 3128.07 L 4161.28 3127.66 L 4160.87 3127.46 L 4160.05 3127.46 M 4163.45 3129.91 L 4167.13 3129.91 M 4168.48 3127.46 L 4168.48 3131.75 M 4168.48 3127.46 L 4171.35 3131.75 M 4171.35 3127.46 L 4171.35 3131.75 M 4174.33 3127.46 L 4172.7 3131.75 M 4174.33 3127.46 L 4175.97 3131.75 M 4173.31 3130.32 L 4175.35 3130.32 M 4177.32 3127.46 L 4177.32 3131.75 M 4177.32 3127.46 L 4180.18 3131.75 M 4180.18 3127.46 L 4180.18 3131.75 M 4182.76 3127.46 L 4182.35 3127.66 L 4181.94 3128.07 L 4181.74 3128.48 L 4181.53 3129.1 L 4181.53 3130.12 L 4181.74 3130.73 L 4181.94 3131.14 L 4182.35 3131.55 L 4182.76 3131.75 L 4183.58 3131.75 L 4183.99 3131.55 L 4184.4 3131.14 L 4184.6 3130.73 L 4184.8 3130.12 L 4184.8 3129.1 L 4184.6 3128.48 L 4184.4 3128.07 L 4183.99 3127.66 L 4183.58 3127.46 L 4182.76 3127.46 M 4186.15 3129.91 L 4189.84 3129.91 M 4191.6 3127.46 L 4193.85 3127.46 L 4192.62 3129.1 L 4193.23 3129.1 L 4193.64 3129.3 L 4193.85 3129.5 L 4194.05 3130.12 L 4194.05 3130.53 L 4193.85 3131.14 L 4193.44 3131.55 L 4192.82 3131.75 L 4192.21 3131.75 L 4191.6 3131.55 L 4191.39 3131.35 L 4191.19 3130.94 M 4195.6 3130.73 L 4195.4 3130.94 L 4195.6 3131.14 L 4195.81 3130.94 L 4195.6 3130.73 M 4198.39 3127.46 L 4197.77 3127.66 L 4197.36 3128.28 L 4197.16 3129.3 L 4197.16 3129.91 L 4197.36 3130.94 L 4197.77 3131.55 L 4198.39 3131.75 L 4198.8 3131.75 L 4199.41 3131.55 L 4199.82 3130.94 L 4200.02 3129.91 L 4200.02 3129.3 L 4199.82 3128.28 L 4199.41 3127.66 L 4198.8 3127.46 L 4198.39 3127.46" fill="none"  stroke-width="0.6" c_note="note_name" /></g><g c_partid="part_pcbtext" c_etype="" c_origin="4100,3176.5" c_rotation="0" c_mirror="0" id="gge1068" locked="0" layerid="3" c_shapetype="group" ><path c_fontsize="4.5" c_fontfamily="" c_text="MCU" d="M 4100 3171.96 L 4100 3176.25 M 4100 3171.96 L 4101.64 3176.25 M 4103.27 3171.96 L 4101.64 3176.25 M 4103.27 3171.96 L 4103.27 3176.25 M 4107.69 3172.98 L 4107.49 3172.57 L 4107.08 3172.16 L 4106.67 3171.96 L 4105.85 3171.96 L 4105.44 3172.16 L 4105.03 3172.57 L 4104.83 3172.98 L 4104.62 3173.6 L 4104.62 3174.62 L 4104.83 3175.23 L 4105.03 3175.64 L 4105.44 3176.05 L 4105.85 3176.25 L 4106.67 3176.25 L 4107.08 3176.05 L 4107.49 3175.64 L 4107.69 3175.23 M 4109.04 3171.96 L 4109.04 3175.03 L 4109.25 3175.64 L 4109.65 3176.05 L 4110.27 3176.25 L 4110.68 3176.25 L 4111.29 3176.05 L 4111.7 3175.64 L 4111.9 3175.03 L 4111.9 3171.96" fill="none"  stroke-width="0.6" c_note="note_pre" /></g><g c_partid="part_pcbtext" c_etype="" c_origin="4057.39,3175" c_rotation="0" c_mirror="0" id="gge1623" locked="0" layerid="3" c_shapetype="group" ><path c_fontsize="8.6" c_fontfamily="" c_text="USB" d="M 4057.39 3166.32 L 4057.39 3172.19 L 4057.78 3173.36 L 4058.56 3174.14 L 4059.74 3174.53 L 4060.52 3174.53 L 4061.69 3174.14 L 4062.47 3173.36 L 4062.86 3172.19 L 4062.86 3166.32 M 4070.92 3167.49 L 4070.13 3166.71 L 4068.96 3166.32 L 4067.4 3166.32 L 4066.22 3166.71 L 4065.44 3167.49 L 4065.44 3168.28 L 4065.83 3169.06 L 4066.22 3169.45 L 4067.01 3169.84 L 4069.35 3170.62 L 4070.13 3171.01 L 4070.52 3171.4 L 4070.92 3172.19 L 4070.92 3173.36 L 4070.13 3174.14 L 4068.96 3174.53 L 4067.4 3174.53 L 4066.22 3174.14 L 4065.44 3173.36 M 4073.5 3166.32 L 4073.5 3174.53 M 4073.5 3166.32 L 4077.01 3166.32 L 4078.19 3166.71 L 4078.58 3167.1 L 4078.97 3167.89 L 4078.97 3168.67 L 4078.58 3169.45 L 4078.19 3169.84 L 4077.01 3170.23 M 4073.5 3170.23 L 4077.01 3170.23 L 4078.19 3170.62 L 4078.58 3171.01 L 4078.97 3171.79 L 4078.97 3172.97 L 4078.58 3173.75 L 4078.19 3174.14 L 4077.01 3174.53 L 4073.5 3174.53" fill="none"  stroke-width="0.688"  /></g><g c_partid="part_pcbtext" c_etype="" c_origin="4169,3195.5" c_rotation="90" c_mirror="0" id="gge1629" locked="0" layerid="3" c_shapetype="group" ><path c_fontsize="8.6" c_fontfamily="" c_text="RESET" d="M 4160.32 3195.5 L 4168.53 3195.5 M 4160.32 3195.5 L 4160.32 3191.98 L 4160.71 3190.81 L 4161.1 3190.42 L 4161.89 3190.03 L 4162.67 3190.03 L 4163.45 3190.42 L 4163.84 3190.81 L 4164.23 3191.98 L 4164.23 3195.5 M 4164.23 3192.76 L 4168.53 3190.03 M 4160.32 3187.45 L 4168.53 3187.45 M 4160.32 3187.45 L 4160.32 3182.37 M 4164.23 3187.45 L 4164.23 3184.32 M 4168.53 3187.45 L 4168.53 3182.37 M 4161.49 3174.31 L 4160.71 3175.09 L 4160.32 3176.27 L 4160.32 3177.83 L 4160.71 3179 L 4161.49 3179.79 L 4162.28 3179.79 L 4163.06 3179.39 L 4163.45 3179 L 4163.84 3178.22 L 4164.62 3175.88 L 4165.01 3175.09 L 4165.4 3174.7 L 4166.19 3174.31 L 4167.36 3174.31 L 4168.14 3175.09 L 4168.53 3176.27 L 4168.53 3177.83 L 4168.14 3179 L 4167.36 3179.79 M 4160.32 3171.73 L 4168.53 3171.73 M 4160.32 3171.73 L 4160.32 3166.65 M 4164.23 3171.73 L 4164.23 3168.61 M 4168.53 3171.73 L 4168.53 3166.65 M 4160.32 3161.33 L 4168.53 3161.33 M 4160.32 3164.07 L 4160.32 3158.6" fill="none"  stroke-width="0.688"  /></g><g c_partid="part_pcbtext" c_etype="" c_origin="4260.374,3207.626" c_rotation="90" c_mirror="0" id="gge1641" locked="0" layerid="3" c_shapetype="group" display="none"><path c_fontsize="4.5" c_fontfamily="" c_text="JST-PH2.0-3PINS" d="M 4255.834 3205.576 L 4259.104 3205.576 L 4259.724 3205.786 L 4259.924 3205.986 L 4260.124 3206.396 L 4260.124 3206.806 L 4259.924 3207.216 L 4259.724 3207.426 L 4259.104 3207.626 L 4258.694 3207.626 M 4256.444 3201.366 L 4256.034 3201.776 L 4255.834 3202.386 L 4255.834 3203.206 L 4256.034 3203.826 L 4256.444 3204.226 L 4256.854 3204.226 L 4257.264 3204.026 L 4257.474 3203.826 L 4257.674 3203.416 L 4258.084 3202.186 L 4258.284 3201.776 L 4258.494 3201.576 L 4258.904 3201.366 L 4259.514 3201.366 L 4259.924 3201.776 L 4260.124 3202.386 L 4260.124 3203.206 L 4259.924 3203.826 L 4259.514 3204.226 M 4255.834 3198.586 L 4260.124 3198.586 M 4255.834 3200.016 L 4255.834 3197.156 M 4258.284 3195.806 L 4258.284 3192.126 M 4255.834 3190.776 L 4260.124 3190.776 M 4255.834 3190.776 L 4255.834 3188.926 L 4256.034 3188.316 L 4256.244 3188.116 L 4256.654 3187.906 L 4257.264 3187.906 L 4257.674 3188.116 L 4257.874 3188.316 L 4258.084 3188.926 L 4258.084 3190.776 M 4255.834 3186.556 L 4260.124 3186.556 M 4255.834 3183.696 L 4260.124 3183.696 M 4257.874 3186.556 L 4257.874 3183.696 M 4256.854 3182.136 L 4256.654 3182.136 L 4256.244 3181.936 L 4256.034 3181.726 L 4255.834 3181.326 L 4255.834 3180.506 L 4256.034 3180.096 L 4256.244 3179.886 L 4256.654 3179.686 L 4257.064 3179.686 L 4257.474 3179.886 L 4258.084 3180.296 L 4260.124 3182.346 L 4260.124 3179.476 M 4259.104 3177.926 L 4259.314 3178.126 L 4259.514 3177.926 L 4259.314 3177.726 L 4259.104 3177.926 M 4255.834 3175.146 L 4256.034 3175.756 L 4256.654 3176.166 L 4257.674 3176.376 L 4258.284 3176.376 L 4259.314 3176.166 L 4259.924 3175.756 L 4260.124 3175.146 L 4260.124 3174.736 L 4259.924 3174.126 L 4259.314 3173.716 L 4258.284 3173.506 L 4257.674 3173.506 L 4256.654 3173.716 L 4256.034 3174.126 L 4255.834 3174.736 L 4255.834 3175.146 M 4258.284 3172.156 L 4258.284 3168.476 M 4255.834 3166.716 L 4255.834 3164.466 L 4257.474 3165.696 L 4257.474 3165.076 L 4257.674 3164.676 L 4257.874 3164.466 L 4258.494 3164.266 L 4258.904 3164.266 L 4259.514 3164.466 L 4259.924 3164.876 L 4260.124 3165.486 L 4260.124 3166.106 L 4259.924 3166.716 L 4259.724 3166.926 L 4259.314 3167.126 M 4255.834 3162.916 L 4260.124 3162.916 M 4255.834 3162.916 L 4255.834 3161.076 L 4256.034 3160.456 L 4256.244 3160.256 L 4256.654 3160.046 L 4257.264 3160.046 L 4257.674 3160.256 L 4257.874 3160.456 L 4258.084 3161.076 L 4258.084 3162.916 M 4255.834 3158.696 L 4260.124 3158.696 M 4255.834 3157.346 L 4260.124 3157.346 M 4255.834 3157.346 L 4260.124 3154.486 M 4255.834 3154.486 L 4260.124 3154.486 M 4256.444 3150.276 L 4256.034 3150.676 L 4255.834 3151.296 L 4255.834 3152.116 L 4256.034 3152.726 L 4256.444 3153.136 L 4256.854 3153.136 L 4257.264 3152.926 L 4257.474 3152.726 L 4257.674 3152.316 L 4258.084 3151.086 L 4258.284 3150.676 L 4258.494 3150.476 L 4258.904 3150.276 L 4259.514 3150.276 L 4259.924 3150.676 L 4260.124 3151.296 L 4260.124 3152.116 L 4259.924 3152.726 L 4259.514 3153.136" fill="none"  stroke-width="0.6" c_note="note_name" /></g><g c_partid="part_pcbtext" c_etype="" c_origin="4264,3197" c_rotation="0" c_mirror="0" id="gge1647" locked="0" layerid="3" c_shapetype="group" ><path c_fontsize="4.5" c_fontfamily="" c_text="MOTHERBOARD" d="M 4264 3192.46 L 4264 3196.75 M 4264 3192.46 L 4265.64 3196.75 M 4267.27 3192.46 L 4265.64 3196.75 M 4267.27 3192.46 L 4267.27 3196.75 M 4269.85 3192.46 L 4269.44 3192.66 L 4269.03 3193.07 L 4268.83 3193.48 L 4268.62 3194.1 L 4268.62 3195.12 L 4268.83 3195.73 L 4269.03 3196.14 L 4269.44 3196.55 L 4269.85 3196.75 L 4270.67 3196.75 L 4271.08 3196.55 L 4271.49 3196.14 L 4271.69 3195.73 L 4271.9 3195.12 L 4271.9 3194.1 L 4271.69 3193.48 L 4271.49 3193.07 L 4271.08 3192.66 L 4270.67 3192.46 L 4269.85 3192.46 M 4274.68 3192.46 L 4274.68 3196.75 M 4273.25 3192.46 L 4276.11 3192.46 M 4277.46 3192.46 L 4277.46 3196.75 M 4280.32 3192.46 L 4280.32 3196.75 M 4277.46 3194.5 L 4280.32 3194.5 M 4281.67 3192.46 L 4281.67 3196.75 M 4281.67 3192.46 L 4284.33 3192.46 M 4281.67 3194.5 L 4283.31 3194.5 M 4281.67 3196.75 L 4284.33 3196.75 M 4285.68 3192.46 L 4285.68 3196.75 M 4285.68 3192.46 L 4287.52 3192.46 L 4288.14 3192.66 L 4288.34 3192.87 L 4288.55 3193.28 L 4288.55 3193.69 L 4288.34 3194.1 L 4288.14 3194.3 L 4287.52 3194.5 L 4285.68 3194.5 M 4287.11 3194.5 L 4288.55 3196.75 M 4289.9 3192.46 L 4289.9 3196.75 M 4289.9 3192.46 L 4291.74 3192.46 L 4292.35 3192.66 L 4292.55 3192.87 L 4292.76 3193.28 L 4292.76 3193.69 L 4292.55 3194.1 L 4292.35 3194.3 L 4291.74 3194.5 M 4289.9 3194.5 L 4291.74 3194.5 L 4292.35 3194.71 L 4292.55 3194.91 L 4292.76 3195.32 L 4292.76 3195.94 L 4292.55 3196.35 L 4292.35 3196.55 L 4291.74 3196.75 L 4289.9 3196.75 M 4295.34 3192.46 L 4294.93 3192.66 L 4294.52 3193.07 L 4294.31 3193.48 L 4294.11 3194.1 L 4294.11 3195.12 L 4294.31 3195.73 L 4294.52 3196.14 L 4294.93 3196.55 L 4295.34 3196.75 L 4296.15 3196.75 L 4296.56 3196.55 L 4296.97 3196.14 L 4297.18 3195.73 L 4297.38 3195.12 L 4297.38 3194.1 L 4297.18 3193.48 L 4296.97 3193.07 L 4296.56 3192.66 L 4296.15 3192.46 L 4295.34 3192.46 M 4300.37 3192.46 L 4298.73 3196.75 M 4300.37 3192.46 L 4302 3196.75 M 4299.35 3195.32 L 4301.39 3195.32 M 4303.35 3192.46 L 4303.35 3196.75 M 4303.35 3192.46 L 4305.2 3192.46 L 4305.81 3192.66 L 4306.01 3192.87 L 4306.22 3193.28 L 4306.22 3193.69 L 4306.01 3194.1 L 4305.81 3194.3 L 4305.2 3194.5 L 4303.35 3194.5 M 4304.79 3194.5 L 4306.22 3196.75 M 4307.57 3192.46 L 4307.57 3196.75 M 4307.57 3192.46 L 4309 3192.46 L 4309.61 3192.66 L 4310.02 3193.07 L 4310.23 3193.48 L 4310.43 3194.1 L 4310.43 3195.12 L 4310.23 3195.73 L 4310.02 3196.14 L 4309.61 3196.55 L 4309 3196.75 L 4307.57 3196.75" fill="none"  stroke-width="0.6" c_note="note_pre" /></g><g c_partid="part_pcbtext" c_etype="" c_origin="4259,3174" c_rotation="90" c_mirror="0" id="gge1710" locked="0" layerid="3" c_shapetype="group" display="none"><path c_fontsize="4.5" c_fontfamily="" c_text="2SC945P" d="M 4255.48 3173.8 L 4255.28 3173.8 L 4254.87 3173.59 L 4254.66 3173.39 L 4254.46 3172.98 L 4254.46 3172.16 L 4254.66 3171.75 L 4254.87 3171.55 L 4255.28 3171.34 L 4255.69 3171.34 L 4256.1 3171.55 L 4256.71 3171.95 L 4258.75 3174 L 4258.75 3171.14 M 4255.07 3166.92 L 4254.66 3167.33 L 4254.46 3167.95 L 4254.46 3168.76 L 4254.66 3169.38 L 4255.07 3169.79 L 4255.48 3169.79 L 4255.89 3169.58 L 4256.1 3169.38 L 4256.3 3168.97 L 4256.71 3167.74 L 4256.91 3167.33 L 4257.12 3167.13 L 4257.53 3166.92 L 4258.14 3166.92 L 4258.55 3167.33 L 4258.75 3167.95 L 4258.75 3168.76 L 4258.55 3169.38 L 4258.14 3169.79 M 4255.48 3162.5 L 4255.07 3162.71 L 4254.66 3163.12 L 4254.46 3163.53 L 4254.46 3164.35 L 4254.66 3164.75 L 4255.07 3165.16 L 4255.48 3165.37 L 4256.1 3165.57 L 4257.12 3165.57 L 4257.73 3165.37 L 4258.14 3165.16 L 4258.55 3164.75 L 4258.75 3164.35 L 4258.75 3163.53 L 4258.55 3163.12 L 4258.14 3162.71 L 4257.73 3162.5 M 4255.89 3158.5 L 4256.5 3158.7 L 4256.91 3159.11 L 4257.12 3159.72 L 4257.12 3159.93 L 4256.91 3160.54 L 4256.5 3160.95 L 4255.89 3161.15 L 4255.69 3161.15 L 4255.07 3160.95 L 4254.66 3160.54 L 4254.46 3159.93 L 4254.46 3159.72 L 4254.66 3159.11 L 4255.07 3158.7 L 4255.89 3158.5 L 4256.91 3158.5 L 4257.94 3158.7 L 4258.55 3159.11 L 4258.75 3159.72 L 4258.75 3160.13 L 4258.55 3160.75 L 4258.14 3160.95 M 4254.46 3155.1 L 4257.32 3157.15 L 4257.32 3154.08 M 4254.46 3155.1 L 4258.75 3155.1 M 4254.46 3150.27 L 4254.46 3152.32 L 4256.3 3152.52 L 4256.1 3152.32 L 4255.89 3151.7 L 4255.89 3151.09 L 4256.1 3150.48 L 4256.5 3150.07 L 4257.12 3149.86 L 4257.53 3149.86 L 4258.14 3150.07 L 4258.55 3150.48 L 4258.75 3151.09 L 4258.75 3151.7 L 4258.55 3152.32 L 4258.35 3152.52 L 4257.94 3152.73 M 4254.46 3148.51 L 4258.75 3148.51 M 4254.46 3148.51 L 4254.46 3146.67 L 4254.66 3146.06 L 4254.87 3145.85 L 4255.28 3145.65 L 4255.89 3145.65 L 4256.3 3145.85 L 4256.5 3146.06 L 4256.71 3146.67 L 4256.71 3148.51" fill="none"  stroke-width="0.6" c_note="note_name" /></g><g c_partid="part_pcbtext" c_etype="" c_origin="4266,3174" c_rotation="90" c_mirror="0" id="gge1716" locked="0" layerid="3" c_shapetype="group" ><path c_fontsize="4.5" c_fontfamily="" c_text="Q1" d="M 4261.46 3172.77 L 4261.66 3173.18 L 4262.07 3173.59 L 4262.48 3173.8 L 4263.1 3174 L 4264.12 3174 L 4264.73 3173.8 L 4265.14 3173.59 L 4265.55 3173.18 L 4265.75 3172.77 L 4265.75 3171.95 L 4265.55 3171.55 L 4265.14 3171.14 L 4264.73 3170.93 L 4264.12 3170.73 L 4263.1 3170.73 L 4262.48 3170.93 L 4262.07 3171.14 L 4261.66 3171.55 L 4261.46 3171.95 L 4261.46 3172.77 M 4264.94 3172.16 L 4266.16 3170.93 M 4262.28 3169.38 L 4262.07 3168.97 L 4261.46 3168.35 L 4265.75 3168.35" fill="none"  stroke-width="0.6" c_note="note_pre" /></g><g c_partid="part_pcbtext" c_etype="" c_origin="4442.79,3216.36" c_rotation="90" c_mirror="0" id="gge1803" locked="0" layerid="3" c_shapetype="group" display="none"><path c_fontsize="4.5" c_fontfamily="" c_text="XLSEMI-XL4015E1-DC-DC-MODULE" d="M 4438.25 3216.3601 L 4442.54 3213.5001 M 4438.25 3213.5001 L 4442.54 3216.3601 M 4438.25 3212.1501 L 4442.54 3212.1501 M 4442.54 3212.1501 L 4442.54 3209.6901 M 4438.86 3205.4801 L 4438.45 3205.8901 L 4438.25 3206.5001 L 4438.25 3207.3201 L 4438.45 3207.9301 L 4438.86 3208.3401 L 4439.27 3208.3401 L 4439.68 3208.1401 L 4439.89 3207.9301 L 4440.09 3207.5201 L 4440.5 3206.3001 L 4440.7 3205.8901 L 4440.91 3205.6801 L 4441.32 3205.4801 L 4441.93 3205.4801 L 4442.34 3205.8901 L 4442.54 3206.5001 L 4442.54 3207.3201 L 4442.34 3207.9301 L 4441.93 3208.3401 M 4438.25 3204.1301 L 4442.54 3204.1301 M 4438.25 3204.1301 L 4438.25 3201.4701 M 4440.29 3204.1301 L 4440.29 3202.4901 M 4442.54 3204.1301 L 4442.54 3201.4701 M 4438.25 3200.1201 L 4442.54 3200.1201 M 4438.25 3200.1201 L 4442.54 3198.4801 M 4438.25 3196.8501 L 4442.54 3198.4801 M 4438.25 3196.8501 L 4442.54 3196.8501 M 4438.25 3195.5001 L 4442.54 3195.5001 M 4440.7 3194.1501 L 4440.7 3190.4601 M 4438.25 3189.1101 L 4442.54 3186.2501 M 4438.25 3186.2501 L 4442.54 3189.1101 M 4438.25 3184.9001 L 4442.54 3184.9001 M 4442.54 3184.9001 L 4442.54 3182.4501 M 4438.25 3179.0501 L 4441.11 3181.1001 L 4441.11 3178.0301 M 4438.25 3179.0501 L 4442.54 3179.0501 M 4438.25 3175.4501 L 4438.45 3176.0601 L 4439.07 3176.4701 L 4440.09 3176.6801 L 4440.7 3176.6801 L 4441.73 3176.4701 L 4442.34 3176.0601 L 4442.54 3175.4501 L 4442.54 3175.0401 L 4442.34 3174.4301 L 4441.73 3174.0201 L 4440.7 3173.8101 L 4440.09 3173.8101 L 4439.07 3174.0201 L 4438.45 3174.4301 L 4438.25 3175.0401 L 4438.25 3175.4501 M 4439.07 3172.4601 L 4438.86 3172.0601 L 4438.25 3171.4401 L 4442.54 3171.4401 M 4438.25 3167.6401 L 4438.25 3169.6801 L 4440.09 3169.8901 L 4439.89 3169.6801 L 4439.68 3169.0701 L 4439.68 3168.4601 L 4439.89 3167.8401 L 4440.29 3167.4301 L 4440.91 3167.2301 L 4441.32 3167.2301 L 4441.93 3167.4301 L 4442.34 3167.8401 L 4442.54 3168.4601 L 4442.54 3169.0701 L 4442.34 3169.6801 L 4442.14 3169.8901 L 4441.73 3170.0901 M 4438.25 3165.8801 L 4442.54 3165.8801 M 4438.25 3165.8801 L 4438.25 3163.2201 M 4440.29 3165.8801 L 4440.29 3164.2401 M 4442.54 3165.8801 L 4442.54 3163.2201 M 4439.07 3161.8701 L 4438.86 3161.4601 L 4438.25 3160.8501 L 4442.54 3160.8501 M 4440.7 3159.5001 L 4440.7 3155.8101 M 4438.25 3154.4601 L 4442.54 3154.4601 M 4438.25 3154.4601 L 4438.25 3153.0301 L 4438.45 3152.4201 L 4438.86 3152.0101 L 4439.27 3151.8101 L 4439.89 3151.6001 L 4440.91 3151.6001 L 4441.52 3151.8101 L 4441.93 3152.0101 L 4442.34 3152.4201 L 4442.54 3153.0301 L 4442.54 3154.4601 M 4439.27 3147.1801 L 4438.86 3147.3901 L 4438.45 3147.8001 L 4438.25 3148.2101 L 4438.25 3149.0201 L 4438.45 3149.4301 L 4438.86 3149.8401 L 4439.27 3150.0501 L 4439.89 3150.2501 L 4440.91 3150.2501 L 4441.52 3150.0501 L 4441.93 3149.8401 L 4442.34 3149.4301 L 4442.54 3149.0201 L 4442.54 3148.2101 L 4442.34 3147.8001 L 4441.93 3147.3901 L 4441.52 3147.1801 M 4440.7 3145.8301 L 4440.7 3142.1501 M 4438.25 3140.8001 L 4442.54 3140.8001 M 4438.25 3140.8001 L 4438.25 3139.3701 L 4438.45 3138.7601 L 4438.86 3138.3501 L 4439.27 3138.1401 L 4439.89 3137.9401 L 4440.91 3137.9401 L 4441.52 3138.1401 L 4441.93 3138.3501 L 4442.34 3138.7601 L 4442.54 3139.3701 L 4442.54 3140.8001 M 4439.27 3133.5201 L 4438.86 3133.7201 L 4438.45 3134.1301 L 4438.25 3134.5401 L 4438.25 3135.3601 L 4438.45 3135.7701 L 4438.86 3136.1801 L 4439.27 3136.3801 L 4439.89 3136.5901 L 4440.91 3136.5901 L 4441.52 3136.3801 L 4441.93 3136.1801 L 4442.34 3135.7701 L 4442.54 3135.3601 L 4442.54 3134.5401 L 4442.34 3134.1301 L 4441.93 3133.7201 L 4441.52 3133.5201 M 4440.7 3132.1701 L 4440.7 3128.4901 M 4438.25 3127.1401 L 4442.54 3127.1401 M 4438.25 3127.1401 L 4442.54 3125.5001 M 4438.25 3123.8601 L 4442.54 3125.5001 M 4438.25 3123.8601 L 4442.54 3123.8601 M 4438.25 3121.2901 L 4438.45 3121.7001 L 4438.86 3122.1101 L 4439.27 3122.3101 L 4439.89 3122.5101 L 4440.91 3122.5101 L 4441.52 3122.3101 L 4441.93 3122.1101 L 4442.34 3121.7001 L 4442.54 3121.2901 L 4442.54 3120.4701 L 4442.34 3120.0601 L 4441.93 3119.6501 L 4441.52 3119.4501 L 4440.91 3119.2401 L 4439.89 3119.2401 L 4439.27 3119.4501 L 4438.86 3119.6501 L 4438.45 3120.0601 L 4438.25 3120.4701 L 4438.25 3121.2901 M 4438.25 3117.8901 L 4442.54 3117.8901 M 4438.25 3117.8901 L 4438.25 3116.4601 L 4438.45 3115.8501 L 4438.86 3115.4401 L 4439.27 3115.2301 L 4439.89 3115.0301 L 4440.91 3115.0301 L 4441.52 3115.2301 L 4441.93 3115.4401 L 4442.34 3115.8501 L 4442.54 3116.4601 L 4442.54 3117.8901 M 4438.25 3113.6801 L 4441.32 3113.6801 L 4441.93 3113.4701 L 4442.34 3113.0601 L 4442.54 3112.4501 L 4442.54 3112.0401 L 4442.34 3111.4301 L 4441.93 3111.0201 L 4441.32 3110.8101 L 4438.25 3110.8101 M 4438.25 3109.4601 L 4442.54 3109.4601 M 4442.54 3109.4601 L 4442.54 3107.0101 M 4438.25 3105.6601 L 4442.54 3105.6601 M 4438.25 3105.6601 L 4438.25 3103.0001 M 4440.29 3105.6601 L 4440.29 3104.0201 M 4442.54 3105.6601 L 4442.54 3103.0001" fill="none"  stroke-width="0.6" c_note="note_name" /></g><g c_partid="part_pcbtext" c_etype="" c_origin="4423,3103" c_rotation="270" c_mirror="0" id="gge1809" locked="0" layerid="3" c_shapetype="group" ><path c_fontsize="4.5" c_fontfamily="" c_text="U7" d="M 4427.54 3103 L 4424.47 3103 L 4423.86 3103.2 L 4423.45 3103.61 L 4423.25 3104.23 L 4423.25 3104.64 L 4423.45 3105.25 L 4423.86 3105.66 L 4424.47 3105.86 L 4427.54 3105.86 M 4427.54 3110.08 L 4423.25 3108.03 M 4427.54 3107.21 L 4427.54 3110.08" fill="none"  stroke-width="0.6" c_note="note_pre" /></g><g c_partid="part_pcbtext" c_etype="pinpart" c_origin="4251.5,3063.5" c_rotation="0" c_mirror="0" id="gge1818" locked="0" layerid="3" c_shapetype="group" ><path c_fontsize="8" c_fontfamily="" c_text="OUT-" d="M 4253.68 3055.43 L 4252.95 3055.79 L 4252.23 3056.52 L 4251.86 3057.25 L 4251.5 3058.34 L 4251.5 3060.15 L 4251.86 3061.25 L 4252.23 3061.97 L 4252.95 3062.7 L 4253.68 3063.06 L 4255.14 3063.06 L 4255.86 3062.7 L 4256.59 3061.97 L 4256.95 3061.25 L 4257.32 3060.15 L 4257.32 3058.34 L 4256.95 3057.25 L 4256.59 3056.52 L 4255.86 3055.79 L 4255.14 3055.43 L 4253.68 3055.43 M 4259.72 3055.43 L 4259.72 3060.88 L 4260.08 3061.97 L 4260.81 3062.7 L 4261.9 3063.06 L 4262.63 3063.06 L 4263.72 3062.7 L 4264.45 3061.97 L 4264.81 3060.88 L 4264.81 3055.43 M 4269.75 3055.43 L 4269.75 3063.06 M 4267.21 3055.43 L 4272.3 3055.43 M 4274.7 3059.79 L 4281.25 3059.79" fill="none"  stroke-width="0.8"  /></g><g c_partid="part_pcbtext" c_etype="pinpart" c_origin="4250.5,3151" c_rotation="0" c_mirror="0" id="gge1824" locked="0" layerid="3" c_shapetype="group" ><path c_fontsize="8" c_fontfamily="" c_text="OUT+" d="M 4252.68 3142.93 L 4251.95 3143.29 L 4251.23 3144.02 L 4250.86 3144.75 L 4250.5 3145.84 L 4250.5 3147.65 L 4250.86 3148.75 L 4251.23 3149.47 L 4251.95 3150.2 L 4252.68 3150.56 L 4254.14 3150.56 L 4254.86 3150.2 L 4255.59 3149.47 L 4255.95 3148.75 L 4256.32 3147.65 L 4256.32 3145.84 L 4255.95 3144.75 L 4255.59 3144.02 L 4254.86 3143.29 L 4254.14 3142.93 L 4252.68 3142.93 M 4258.72 3142.93 L 4258.72 3148.38 L 4259.08 3149.47 L 4259.81 3150.2 L 4260.9 3150.56 L 4261.63 3150.56 L 4262.72 3150.2 L 4263.45 3149.47 L 4263.81 3148.38 L 4263.81 3142.93 M 4268.75 3142.93 L 4268.75 3150.56 M 4266.21 3142.93 L 4271.3 3142.93 M 4276.97 3144.02 L 4276.97 3150.56 M 4273.7 3147.29 L 4280.25 3147.29" fill="none"  stroke-width="0.8"  /></g><g c_partid="part_pcbtext" c_etype="pinpart" c_origin="4391,3063" c_rotation="0" c_mirror="0" id="gge1830" locked="0" layerid="3" c_shapetype="group" ><path c_fontsize="8" c_fontfamily="" c_text="-IN" d="M 4391 3059.29 L 4397.55 3059.29 M 4399.95 3054.93 L 4399.95 3062.56 M 4402.35 3054.93 L 4402.35 3062.56 M 4402.35 3054.93 L 4407.44 3062.56 M 4407.44 3054.93 L 4407.44 3062.56" fill="none"  stroke-width="0.8"  /></g><g c_partid="part_pcbtext" c_etype="pinpart" c_origin="4390.5,3150.5" c_rotation="0" c_mirror="0" id="gge1836" locked="0" layerid="3" c_shapetype="group" ><path c_fontsize="8" c_fontfamily="" c_text="+IN" d="M 4393.77 3143.52 L 4393.77 3150.06 M 4390.5 3146.79 L 4397.05 3146.79 M 4399.45 3142.43 L 4399.45 3150.06 M 4401.85 3142.43 L 4401.85 3150.06 M 4401.85 3142.43 L 4406.94 3150.06 M 4406.94 3142.43 L 4406.94 3150.06" fill="none"  stroke-width="0.8"  /></g><g c_partid="part_pcbtext" c_etype="pinpart" c_origin="4278,3105.5" c_rotation="0" c_mirror="0" id="gge1842" locked="0" layerid="3" c_shapetype="group" ><path c_fontsize="8" c_fontfamily="" c_text="XL4015E1 DC-DC" d="M 4278 3097.43 L 4283.09 3105.06 M 4283.09 3097.43 L 4278 3105.06 M 4285.49 3097.43 L 4285.49 3105.06 M 4285.49 3105.06 L 4289.85 3105.06 M 4295.89 3097.43 L 4292.25 3102.52 L 4297.71 3102.52 M 4295.89 3097.43 L 4295.89 3105.06 M 4302.29 3097.43 L 4301.2 3097.79 L 4300.47 3098.88 L 4300.11 3100.7 L 4300.11 3101.79 L 4300.47 3103.61 L 4301.2 3104.7 L 4302.29 3105.06 L 4303.02 3105.06 L 4304.11 3104.7 L 4304.84 3103.61 L 4305.2 3101.79 L 4305.2 3100.7 L 4304.84 3098.88 L 4304.11 3097.79 L 4303.02 3097.43 L 4302.29 3097.43 M 4307.6 3098.88 L 4308.33 3098.52 L 4309.42 3097.43 L 4309.42 3105.06 M 4316.18 3097.43 L 4312.55 3097.43 L 4312.18 3100.7 L 4312.55 3100.34 L 4313.64 3099.97 L 4314.73 3099.97 L 4315.82 3100.34 L 4316.55 3101.06 L 4316.91 3102.15 L 4316.91 3102.88 L 4316.55 3103.97 L 4315.82 3104.7 L 4314.73 3105.06 L 4313.64 3105.06 L 4312.55 3104.7 L 4312.18 3104.34 L 4311.82 3103.61 M 4319.31 3097.43 L 4319.31 3105.06 M 4319.31 3097.43 L 4324.04 3097.43 M 4319.31 3101.06 L 4322.22 3101.06 M 4319.31 3105.06 L 4324.04 3105.06 M 4326.44 3098.88 L 4327.16 3098.52 L 4328.25 3097.43 L 4328.25 3105.06 M 4336.25 3097.43 L 4336.25 3105.06 M 4336.25 3097.43 L 4338.8 3097.43 L 4339.89 3097.79 L 4340.62 3098.52 L 4340.98 3099.25 L 4341.35 3100.34 L 4341.35 3102.15 L 4340.98 3103.25 L 4340.62 3103.97 L 4339.89 3104.7 L 4338.8 3105.06 L 4336.25 3105.06 M 4349.2 3099.25 L 4348.84 3098.52 L 4348.11 3097.79 L 4347.38 3097.43 L 4345.93 3097.43 L 4345.2 3097.79 L 4344.47 3098.52 L 4344.11 3099.25 L 4343.75 3100.34 L 4343.75 3102.15 L 4344.11 3103.25 L 4344.47 3103.97 L 4345.2 3104.7 L 4345.93 3105.06 L 4347.38 3105.06 L 4348.11 3104.7 L 4348.84 3103.97 L 4349.2 3103.25 M 4351.6 3101.79 L 4358.15 3101.79 M 4360.55 3097.43 L 4360.55 3105.06 M 4360.55 3097.43 L 4363.09 3097.43 L 4364.18 3097.79 L 4364.91 3098.52 L 4365.27 3099.25 L 4365.64 3100.34 L 4365.64 3102.15 L 4365.27 3103.25 L 4364.91 3103.97 L 4364.18 3104.7 L 4363.09 3105.06 L 4360.55 3105.06 M 4373.49 3099.25 L 4373.13 3098.52 L 4372.4 3097.79 L 4371.67 3097.43 L 4370.22 3097.43 L 4369.49 3097.79 L 4368.76 3098.52 L 4368.4 3099.25 L 4368.04 3100.34 L 4368.04 3102.15 L 4368.4 3103.25 L 4368.76 3103.97 L 4369.49 3104.7 L 4370.22 3105.06 L 4371.67 3105.06 L 4372.4 3104.7 L 4373.13 3103.97 L 4373.49 3103.25" fill="none"  stroke-width="0.8"  /></g><g c_partid="part_pcbtext" c_etype="" c_origin="4268.29,3195.59" c_rotation="90" c_mirror="0" id="gge9" locked="0" layerid="3" c_shapetype="group" display="none"><path c_fontsize="4.5" c_fontfamily="" c_text="900" d="M 4265.18 3192.9298 L 4265.79 3193.1398 L 4266.2 3193.5398 L 4266.41 3194.1598 L 4266.41 3194.3598 L 4266.2 3194.9798 L 4265.79 3195.3898 L 4265.18 3195.5898 L 4264.98 3195.5898 L 4264.36 3195.3898 L 4263.95 3194.9798 L 4263.75 3194.3598 L 4263.75 3194.1598 L 4263.95 3193.5398 L 4264.36 3193.1398 L 4265.18 3192.9298 L 4266.2 3192.9298 L 4267.23 3193.1398 L 4267.84 3193.5398 L 4268.04 3194.1598 L 4268.04 3194.5698 L 4267.84 3195.1798 L 4267.43 3195.3898 M 4263.75 3190.3498 L 4263.95 3190.9698 L 4264.57 3191.3798 L 4265.59 3191.5798 L 4266.2 3191.5798 L 4267.23 3191.3798 L 4267.84 3190.9698 L 4268.04 3190.3498 L 4268.04 3189.9398 L 4267.84 3189.3298 L 4267.23 3188.9198 L 4266.2 3188.7198 L 4265.59 3188.7198 L 4264.57 3188.9198 L 4263.95 3189.3298 L 4263.75 3189.9398 L 4263.75 3190.3498 M 4263.75 3186.1398 L 4263.95 3186.7498 L 4264.57 3187.1598 L 4265.59 3187.3698 L 4266.2 3187.3698 L 4267.23 3187.1598 L 4267.84 3186.7498 L 4268.04 3186.1398 L 4268.04 3185.7298 L 4267.84 3185.1198 L 4267.23 3184.7098 L 4266.2 3184.4998 L 4265.59 3184.4998 L 4264.57 3184.7098 L 4263.95 3185.1198 L 4263.75 3185.7298 L 4263.75 3186.1398" fill="none"  stroke-width="0.6" c_note="note_name" /></g><g c_partid="part_pcbtext" c_etype="" c_origin="4247.5,3181" c_rotation="270" c_mirror="0" id="gge15" locked="0" layerid="3" c_shapetype="group" ><path c_fontsize="4.5" c_fontfamily="" c_text="R5" d="M 4252.04 3181 L 4247.75 3181 M 4252.04 3181 L 4252.04 3182.84 L 4251.84 3183.45 L 4251.63 3183.66 L 4251.22 3183.86 L 4250.81 3183.86 L 4250.4 3183.66 L 4250.2 3183.45 L 4250 3182.84 L 4250 3181 M 4250 3182.43 L 4247.75 3183.86 M 4252.04 3187.67 L 4252.04 3185.62 L 4250.2 3185.42 L 4250.4 3185.62 L 4250.61 3186.24 L 4250.61 3186.85 L 4250.4 3187.46 L 4250 3187.87 L 4249.38 3188.08 L 4248.97 3188.08 L 4248.36 3187.87 L 4247.95 3187.46 L 4247.75 3186.85 L 4247.75 3186.24 L 4247.95 3185.62 L 4248.15 3185.42 L 4248.56 3185.21" fill="none"  stroke-width="0.6" c_note="note_pre" /></g><path d="M 4071.972 3099.8392 A 4.4437 4.4437 0 0 1 4078.2712 3105.7447" locked="0"  fill="none" stroke-width="0.1969" c_helper_type="arc2" net="" layerid="3" id="gge417" /><path d="M 4077.0901 3107.3195 A 4.7851 4.7851 0 0 1 4070.3972 3101.0203" locked="0"  fill="none" stroke-width="0.1969" c_helper_type="arc2" net="" layerid="3" id="gge420" /><path d="M 4070.7914 3125.5075 A 4.4437 4.4437 0 0 1 4076.6969 3119.2083" locked="0"  fill="none" stroke-width="0.1969" c_helper_type="arc2" net="" layerid="3" id="gge429" /><path d="M 4408.528 3198.6608 A 4.4437 4.4437 0 0 1 4402.2288 3192.7553" locked="0"  fill="none" stroke-width="0.1969" c_helper_type="arc2" net="" layerid="3" id="gge501" /><path d="M 4403.4099 3191.1805 A 4.7851 4.7851 0 0 1 4410.1028 3197.4797" locked="0"  fill="none" stroke-width="0.1969" c_helper_type="arc2" net="" layerid="3" id="gge504" /><path d="M 4409.7086 3172.9925 A 4.4437 4.4437 0 0 1 4403.8031 3179.2917" locked="0"  fill="none" stroke-width="0.1969" c_helper_type="arc2" net="" layerid="3" id="gge513" /><path d="M 4072.472 3056.3392 A 4.4437 4.4437 0 0 1 4078.7712 3062.2447" locked="0"  fill="none" stroke-width="0.1969" c_helper_type="arc2" net="" layerid="3" id="gge585" /><path d="M 4077.5901 3063.8195 A 4.7851 4.7851 0 0 1 4070.8972 3057.5203" locked="0"  fill="none" stroke-width="0.1969" c_helper_type="arc2" net="" layerid="3" id="gge588" /><path d="M 4071.2914 3082.0075 A 4.4437 4.4437 0 0 1 4077.1969 3075.7083" locked="0"  fill="none" stroke-width="0.1969" c_helper_type="arc2" net="" layerid="3" id="gge597" /><path d="M 4143.78 3069.6565 A 5.909 5.909 0 0 0 4155.59 3069.2665" locked="0"  fill="none" stroke-width="1" c_helper_type="arc2" net="" layerid="3" id="gge942" /><path d="M 4131.97 3070.0465 A 5.909 5.909 0 0 0 4143.78 3069.6565" locked="0"  fill="none" stroke-width="1" c_helper_type="arc2" net="" layerid="3" id="gge945" /><path d="M 4120.16 3070.4365 A 5.909 5.909 0 0 0 4131.97 3070.0465" locked="0"  fill="none" stroke-width="1" c_helper_type="arc2" net="" layerid="3" id="gge948" /><path d="M 4108.35 3070.8365 A 5.909 5.909 0 0 0 4120.16 3070.4465" locked="0"  fill="none" stroke-width="1" c_helper_type="arc2" net="" layerid="3" id="gge951" /><path d="M 4152 3177.5 A 3 3 0 1 0 4152 3177.516" locked="0"  fill="none" stroke-width="0.5" c_helper_type="arc2" net="" layerid="3" id="gge1170" /><path d="M 4284.41 3165.2 A 9.7796 9.7796 0 1 0 4284.41 3180.8" locked="0"  fill="none" stroke-width="1" c_helper_type="arc2" net="" layerid="3" id="gge1740" /><circle cx="4074.334" cy="3103.578" r="5.231" stroke-width="0.7874" fill="none" layerid="3" id="gge414" locked="0"  /><circle cx="4074.531" cy="3123.145" r="5.231" stroke-width="0.7874" fill="none" layerid="3" id="gge426" locked="0"  /><circle cx="4406.166" cy="3194.922" r="5.231" stroke-width="0.7874" fill="none" layerid="3" id="gge498" locked="0"  /><circle cx="4405.969" cy="3175.355" r="5.231" stroke-width="0.7874" fill="none" layerid="3" id="gge510" locked="0"  /><circle cx="4074.834" cy="3060.078" r="5.231" stroke-width="0.7874" fill="none" layerid="3" id="gge582" locked="0"  /><circle cx="4075.031" cy="3079.645" r="5.231" stroke-width="0.7874" fill="none" layerid="3" id="gge594" locked="0"  /><polyline points="4047.5 3046.5 4194.56 3046.5 4433.94 3046.5 4433.94 3219.02 4047.5 3219.02 4047.5 3046.5" stroke-width="1"  stroke-linecap="round" fill="none" layerid="10" net="" id="gge2001" locked="0" /></svg>