<svg xmlns="http://www.w3.org/2000/svg" xmlns:xlink="http://www.w3.org/1999/xlink" width="103.226mm" height="51.943mm" viewBox="4037.5 3024.5 406.4 204.5"><title></title><style type="text/css">
*[layerid="1"] {stroke:#000000;fill:#000000;}
*[layerid="2"] {stroke:#000000;fill:#000000;}
*[layerid="3"] {stroke:#000000;fill:#000000;}
*[layerid="4"] {stroke:#000000;fill:#000000;}
*[layerid="5"] {stroke:#000000;fill:#000000;}
*[layerid="6"] {stroke:#000000;fill:#000000;}
*[layerid="7"] {stroke:#000000;fill:#000000;}
*[layerid="8"] {stroke:#000000;fill:#000000;}
*[layerid="9"] {stroke:#000000;fill:#000000;}
*[layerid="10"] {stroke:#000000;fill:#000000;}
*[layerid="11"] {stroke:#000000;fill:#000000;}
*[layerid="12"] {stroke:#000000;fill:#000000;}
*[layerid="13"] {stroke:#000000;fill:#000000;}
*[layerid="14"] {stroke:#000000;fill:#000000;}
*[layerid="15"] {stroke:#000000;fill:#000000;}
*[layerid="19"] {stroke:#000000;fill:#000000;}
*[layerid="21"] {stroke:#000000;fill:#000000;}
*[layerid="22"] {stroke:#000000;fill:#000000;}
*[layerid="23"] {stroke:#000000;fill:#000000;}
*[layerid="24"] {stroke:#000000;fill:#000000;}
*[layerid="25"] {stroke:#000000;fill:#000000;}
*[layerid="26"] {stroke:#000000;fill:#000000;}
*[layerid="27"] {stroke:#000000;fill:#000000;}
*[layerid="28"] {stroke:#000000;fill:#000000;}
*[layerid="29"] {stroke:#000000;fill:#000000;}
*[layerid="30"] {stroke:#000000;fill:#000000;}
*[layerid="31"] {stroke:#000000;fill:#000000;}
*[layerid="32"] {stroke:#000000;fill:#000000;}
*[layerid="33"] {stroke:#000000;fill:#000000;}
*[layerid="34"] {stroke:#000000;fill:#000000;}
*[layerid="35"] {stroke:#000000;fill:#000000;}
*[layerid="36"] {stroke:#000000;fill:#000000;}
*[layerid="37"] {stroke:#000000;fill:#000000;}
*[layerid="38"] {stroke:#000000;fill:#000000;}
*[layerid="39"] {stroke:#000000;fill:#000000;}
*[layerid="40"] {stroke:#000000;fill:#000000;}
*[layerid="41"] {stroke:#000000;fill:#000000;}
*[layerid="42"] {stroke:#000000;fill:#000000;}
*[layerid="43"] {stroke:#000000;fill:#000000;}
*[layerid="44"] {stroke:#000000;fill:#000000;}
*[layerid="45"] {stroke:#000000;fill:#000000;}
*[layerid="46"] {stroke:#000000;fill:#000000;}
*[layerid="47"] {stroke:#000000;fill:#000000;}
*[layerid="48"] {stroke:#000000;fill:#000000;}
*[layerid="49"] {stroke:#000000;fill:#000000;}
*[layerid="50"] {stroke:#000000;fill:#000000;}
*[layerid="51"] {stroke:#000000;fill:#000000;}
*[layerid="52"] {stroke:#000000;fill:#000000;}
*[layerid="99"] {stroke:#000000;fill:#000000;}
*[layerid="100"] {stroke:#000000;fill:#000000;}
*[layerid="101"] {stroke:#000000;fill:#000000;}
*[layerid="Hole"] {stroke:#000000;fill:#000000;}
*[layerid="DRCError"] {stroke:#000000;fill:#000000;}
*[fill="none"] {fill: none;}
*[stroke="none"] {stroke: none;}
path, polyline, polygon, line {stroke-linecap:round;}
g[c_partid="part_pad"][layerid="1"] ellipse:not([c_etype="pad_outer"]) {fill:#000000;}
g[c_partid="part_pad"][layerid="1"] polygon:not([c_etype="pad_outer"]) {fill:#000000;}
g[c_partid="part_pad"][layerid="1"] polyline:not([c_etype="pad_outer"]) {stroke:#000000;}
g[c_partid="part_pad"][layerid="2"] ellipse:not([c_etype="pad_outer"]) {fill:#000000;}
g[c_partid="part_pad"][layerid="2"] polygon:not([c_etype="pad_outer"]) {fill:#000000;}
g[c_partid="part_pad"][layerid="2"] polyline:not([c_etype="pad_outer"]) {stroke:#000000;}
g[c_partid="part_pad"][layerid="11"] ellipse:not([c_etype="pad_outer"]) {fill:#000000;}
g[c_partid="part_pad"][layerid="11"] polygon:not([c_etype="pad_outer"]) {fill:#000000;}
g[c_partid="part_pad"][layerid="11"] polyline:not([c_etype="pad_outer"]) {stroke:#000000;}
g[c_partid="part_pad"][layerid="11"] circle {fill:#FFFFFF;}
g[c_partid="part_pad"][layerid="11"] > polyline:nth-of-type(2) {stroke:#FFFFFF;}
g[c_partid="part_pad"][layerid="11"][c_shape="ELLIPSE"]  polyline:nth-last-of-type(1) {stroke:#FFFFFF;}
g[c_partid="part_pad"][layerid="11"][c_shape="RECT"]  polyline:nth-last-of-type(1) {stroke:#FFFFFF;}
g[c_partid="part_pad"][layerid="11"][c_shape="POLYGON"]  polyline:nth-last-of-type(1) {stroke:#FFFFFF;}
g[c_partid="part_via"] > * + circle, #gCurParts g[c_partid="part_via"] > * + circle {fill:#FFFFFF;}
g[c_partid="part_pad"] > polygon[c_etype="pad_outer"], #gCurParts g[c_partid="part_pad"] > polygon[c_etype="pad_outer"] {stroke-linejoin: round;stroke-miterlimit: 100;}
g[c_partid="part_hole"] > circle {fill: #FFFFFF;}path, polyline, polygon {stroke-linejoin:round;}
rect, circle, ellipse, polyline, line, polygon, path {shape-rendering:crispEdges;}
</style>
<rect x="4037.5" y="3024.5" width="406.4" height="204.5" fill="#FFFFFF" stroke="none"/><g transform="matrix(-1, 0, 0, 1, 8481.4, 0)"><g c_partid="part_pcbtext" c_etype="pinpart" c_origin="4384,3088.5" c_rotation="0" c_mirror="1" id="gge2556" locked="0" layerid="4" c_shapetype="group" ><path c_fontsize="8" c_fontfamily="NotoSerifCJKsc-Medium" c_text="POWER-CONTROLLER-v1.0.2" d="M 4381.9 3082.98 C 4380.85 3082.98 4380.38 3083.48 4380.38 3084.37 C 4380.38 3085.22 4380.82 3085.8 4381.92 3085.8 L 4382.48 3085.8 L 4382.48 3085.36 C 4382.48 3084.56 4382.48 3083.76 4382.46 3082.98 Z  M 4382.01 3086.16 C 4380.24 3086.16 4379.56 3085.35 4379.56 3084.37 C 4379.56 3083.33 4380.28 3082.64 4381.76 3082.64 L 4384.11 3082.64 L 4384.11 3082.94 L 4383.29 3083.03 C 4383.28 3083.8 4383.28 3084.57 4383.28 3085.36 L 4383.28 3085.79 C 4383.28 3086.57 4383.28 3087.34 4383.29 3088.11 L 4384.11 3088.2 L 4384.11 3088.5 L 4381.63 3088.5 L 4381.63 3088.2 L 4382.46 3088.1 C 4382.48 3087.44 4382.48 3086.8 4382.48 3086.16 Z  M 4378.01 3085.56 C 4378.01 3084.19 4377.46 3082.88 4376.24 3082.88 C 4375.02 3082.88 4374.48 3084.19 4374.48 3085.56 C 4374.48 3086.95 4375.02 3088.25 4376.24 3088.25 C 4377.46 3088.25 4378.01 3086.95 4378.01 3085.56 Z  M 4376.24 3082.5 C 4377.61 3082.5 4378.92 3083.64 4378.92 3085.56 C 4378.92 3087.56 4377.62 3088.63 4376.24 3088.63 C 4374.86 3088.63 4373.57 3087.49 4373.57 3085.56 C 4373.57 3083.59 4374.88 3082.5 4376.24 3082.5 Z  M 4365.04 3082.64 L 4367.04 3082.64 L 4367.04 3082.94 L 4366.21 3083.05 L 4367.34 3087.27 L 4368.68 3083.04 L 4367.78 3082.94 L 4367.78 3082.64 L 4370.13 3082.64 L 4370.13 3082.94 L 4369.25 3083.04 L 4370.6 3087.24 L 4371.74 3083.04 L 4370.92 3082.94 L 4370.92 3082.64 L 4373.28 3082.64 L 4373.28 3082.94 L 4372.56 3083.02 L 4370.97 3088.56 L 4370.61 3088.56 L 4369.16 3083.92 L 4367.65 3088.56 L 4367.28 3088.56 L 4365.8 3083.04 L 4365.04 3082.94 Z  M 4360.43 3086.94 L 4360.66 3088.12 L 4362.91 3088.12 C 4362.92 3087.34 4362.92 3086.56 4362.92 3085.69 L 4361.6 3085.69 L 4361.48 3086.54 L 4361.12 3086.54 L 4361.12 3084.48 L 4361.48 3084.48 L 4361.6 3085.34 L 4362.92 3085.34 C 4362.92 3084.55 4362.92 3083.78 4362.91 3083.02 L 4360.83 3083.02 L 4360.6 3084.18 L 4360.16 3084.18 L 4360.21 3082.64 L 4364.56 3082.64 L 4364.56 3082.94 L 4363.74 3083.03 C 4363.72 3083.8 4363.72 3084.57 4363.72 3085.36 L 4363.72 3085.79 C 4363.72 3086.57 4363.72 3087.34 4363.74 3088.11 L 4364.56 3088.2 L 4364.56 3088.5 L 4360.04 3088.5 L 4360 3086.94 Z  M 4357.64 3085.43 C 4357.64 3084.52 4357.64 3083.76 4357.63 3082.98 L 4356.87 3082.98 C 4355.95 3082.98 4355.53 3083.41 4355.53 3084.16 C 4355.53 3084.89 4356 3085.43 4356.93 3085.43 Z  M 4354.76 3088.13 L 4355.16 3086.76 C 4355.36 3086.08 4355.66 3085.77 4356.21 3085.65 C 4355.21 3085.48 4354.71 3084.86 4354.71 3084.17 C 4354.71 3083.2 4355.49 3082.64 4356.82 3082.64 L 4359.28 3082.64 L 4359.28 3082.94 L 4358.46 3083.03 C 4358.44 3083.8 4358.44 3084.57 4358.44 3085.36 L 4358.44 3085.79 C 4358.44 3086.57 4358.44 3087.34 4358.46 3088.11 L 4359.28 3088.2 L 4359.28 3088.5 L 4356.81 3088.5 L 4356.81 3088.2 L 4357.63 3088.1 C 4357.64 3087.35 4357.64 3086.58 4357.64 3085.76 L 4357.18 3085.76 C 4356.45 3085.76 4356.16 3085.92 4355.99 3086.64 L 4355.63 3088.03 C 4355.53 3088.44 4355.28 3088.59 4354.74 3088.59 C 4354.47 3088.59 4354.24 3088.56 4354.08 3088.5 L 4354.08 3088.2 Z  M 4353.72 3086.56 L 4351.68 3086.56 L 4351.68 3086.04 L 4353.72 3086.04 Z  M 4346.56 3086.92 L 4346.77 3088.03 C 4347.11 3088.19 4347.45 3088.24 4347.78 3088.24 C 4349.04 3088.24 4349.92 3087.32 4349.92 3085.56 C 4349.92 3083.82 4348.96 3082.88 4347.75 3082.88 C 4347.45 3082.88 4347.16 3082.95 4346.85 3083.1 L 4346.64 3084.22 L 4346.16 3084.22 L 4346.17 3082.93 C 4346.75 3082.6 4347.34 3082.5 4347.84 3082.5 C 4349.56 3082.5 4350.82 3083.77 4350.82 3085.56 C 4350.82 3087.39 4349.61 3088.63 4347.84 3088.63 C 4347.22 3088.63 4346.64 3088.5 4346.09 3088.2 L 4346.08 3086.92 Z  M 4344.38 3085.56 C 4344.38 3084.19 4343.83 3082.88 4342.6 3082.88 C 4341.39 3082.88 4340.85 3084.19 4340.85 3085.56 C 4340.85 3086.95 4341.39 3088.25 4342.6 3088.25 C 4343.83 3088.25 4344.38 3086.95 4344.38 3085.56 Z  M 4342.6 3082.5 C 4343.98 3082.5 4345.28 3083.64 4345.28 3085.56 C 4345.28 3087.56 4343.99 3088.63 4342.6 3088.63 C 4341.23 3088.63 4339.94 3087.49 4339.94 3085.56 C 4339.94 3083.59 4341.24 3082.5 4342.6 3082.5 Z  M 4333.59 3082.64 L 4335.66 3082.64 L 4335.66 3082.94 L 4334.72 3083.05 L 4334.71 3087.12 L 4337.95 3082.64 L 4339.3 3082.64 L 4339.3 3082.94 L 4338.68 3083.02 L 4338.59 3083.13 L 4338.6 3088.09 L 4339.34 3088.2 L 4339.34 3088.5 L 4337.27 3088.5 L 4337.27 3088.2 L 4338.2 3088.08 L 4338.22 3083.64 L 4334.64 3088.56 L 4334.33 3088.56 L 4334.32 3083.04 L 4333.59 3082.94 Z  M 4328.8 3083.02 L 4328.56 3084.2 L 4328.13 3084.2 L 4328.19 3082.64 L 4333 3082.64 L 4333.07 3084.2 L 4332.63 3084.2 L 4332.39 3083.02 L 4331.01 3083.02 C 4331 3083.79 4331 3084.57 4331 3085.36 L 4331 3085.79 C 4331 3086.57 4331 3087.34 4331.01 3088.1 L 4331.92 3088.2 L 4331.92 3088.5 L 4329.28 3088.5 L 4329.28 3088.2 L 4330.18 3088.1 C 4330.2 3087.33 4330.2 3086.56 4330.2 3085.79 L 4330.2 3085.36 C 4330.2 3084.57 4330.2 3083.79 4330.18 3083.02 Z  M 4325.93 3085.43 C 4325.93 3084.52 4325.93 3083.76 4325.92 3082.98 L 4325.16 3082.98 C 4324.24 3082.98 4323.82 3083.41 4323.82 3084.16 C 4323.82 3084.89 4324.28 3085.43 4325.22 3085.43 Z  M 4323.04 3088.13 L 4323.45 3086.76 C 4323.65 3086.08 4323.95 3085.77 4324.5 3085.65 C 4323.5 3085.48 4323 3084.86 4323 3084.17 C 4323 3083.2 4323.78 3082.64 4325.11 3082.64 L 4327.56 3082.64 L 4327.56 3082.94 L 4326.75 3083.03 C 4326.73 3083.8 4326.73 3084.57 4326.73 3085.36 L 4326.73 3085.79 C 4326.73 3086.57 4326.73 3087.34 4326.75 3088.11 L 4327.56 3088.2 L 4327.56 3088.5 L 4325.1 3088.5 L 4325.1 3088.2 L 4325.92 3088.1 C 4325.93 3087.35 4325.93 3086.58 4325.93 3085.76 L 4325.47 3085.76 C 4324.74 3085.76 4324.45 3085.92 4324.28 3086.64 L 4323.92 3088.03 C 4323.82 3088.44 4323.57 3088.59 4323.03 3088.59 C 4322.76 3088.59 4322.53 3088.56 4322.36 3088.5 L 4322.36 3088.2 Z  M 4321.08 3085.56 C 4321.08 3084.19 4320.52 3082.88 4319.3 3082.88 C 4318.08 3082.88 4317.55 3084.19 4317.55 3085.56 C 4317.55 3086.95 4318.08 3088.25 4319.3 3088.25 C 4320.52 3088.25 4321.08 3086.95 4321.08 3085.56 Z  M 4319.3 3082.5 C 4320.68 3082.5 4321.98 3083.64 4321.98 3085.56 C 4321.98 3087.56 4320.68 3088.63 4319.3 3088.63 C 4317.92 3088.63 4316.64 3087.49 4316.64 3085.56 C 4316.64 3083.59 4317.94 3082.5 4319.3 3082.5 Z  M 4312.08 3086.85 L 4312.36 3088.12 L 4314.38 3088.12 C 4314.4 3087.36 4314.4 3086.6 4314.4 3085.93 L 4314.4 3085.35 C 4314.4 3084.57 4314.4 3083.8 4314.38 3083.03 L 4313.56 3082.94 L 4313.56 3082.64 L 4316.03 3082.64 L 4316.03 3082.94 L 4315.21 3083.03 C 4315.2 3083.79 4315.2 3084.57 4315.2 3085.36 L 4315.2 3085.81 C 4315.2 3086.56 4315.2 3087.33 4315.21 3088.11 L 4316.03 3088.2 L 4316.03 3088.5 L 4311.68 3088.5 L 4311.62 3086.85 Z  M 4307.04 3086.85 L 4307.32 3088.12 L 4309.34 3088.12 C 4309.36 3087.36 4309.36 3086.6 4309.36 3085.93 L 4309.36 3085.35 C 4309.36 3084.57 4309.36 3083.8 4309.34 3083.03 L 4308.52 3082.94 L 4308.52 3082.64 L 4310.99 3082.64 L 4310.99 3082.94 L 4310.17 3083.03 C 4310.16 3083.79 4310.16 3084.57 4310.16 3085.36 L 4310.16 3085.81 C 4310.16 3086.56 4310.16 3087.33 4310.17 3088.11 L 4310.99 3088.2 L 4310.99 3088.5 L 4306.64 3088.5 L 4306.58 3086.85 Z  M 4301.82 3086.94 L 4302.05 3088.12 L 4304.3 3088.12 C 4304.32 3087.34 4304.32 3086.56 4304.32 3085.69 L 4302.99 3085.69 L 4302.87 3086.54 L 4302.51 3086.54 L 4302.51 3084.48 L 4302.87 3084.48 L 4303 3085.34 L 4304.32 3085.34 C 4304.32 3084.55 4304.32 3083.78 4304.3 3083.02 L 4302.22 3083.02 L 4301.99 3084.18 L 4301.56 3084.18 L 4301.6 3082.64 L 4305.95 3082.64 L 4305.95 3082.94 L 4305.13 3083.03 C 4305.12 3083.8 4305.12 3084.57 4305.12 3085.36 L 4305.12 3085.79 C 4305.12 3086.57 4305.12 3087.34 4305.13 3088.11 L 4305.95 3088.2 L 4305.95 3088.5 L 4301.44 3088.5 L 4301.39 3086.94 Z  M 4299.04 3085.43 C 4299.04 3084.52 4299.04 3083.76 4299.02 3082.98 L 4298.26 3082.98 C 4297.34 3082.98 4296.92 3083.41 4296.92 3084.16 C 4296.92 3084.89 4297.39 3085.43 4298.32 3085.43 Z  M 4296.15 3088.13 L 4296.56 3086.76 C 4296.76 3086.08 4297.05 3085.77 4297.6 3085.65 C 4296.6 3085.48 4296.1 3084.86 4296.1 3084.17 C 4296.1 3083.2 4296.88 3082.64 4298.21 3082.64 L 4300.67 3082.64 L 4300.67 3082.94 L 4299.85 3083.03 C 4299.84 3083.8 4299.84 3084.57 4299.84 3085.36 L 4299.84 3085.79 C 4299.84 3086.57 4299.84 3087.34 4299.85 3088.11 L 4300.67 3088.2 L 4300.67 3088.5 L 4298.2 3088.5 L 4298.2 3088.2 L 4299.02 3088.1 C 4299.04 3087.35 4299.04 3086.58 4299.04 3085.76 L 4298.57 3085.76 C 4297.84 3085.76 4297.56 3085.92 4297.38 3086.64 L 4297.02 3088.03 C 4296.92 3088.44 4296.68 3088.59 4296.13 3088.59 C 4295.86 3088.59 4295.64 3088.56 4295.47 3088.5 L 4295.47 3088.2 Z  M 4295.11 3086.56 L 4293.07 3086.56 L 4293.07 3086.04 L 4295.11 3086.04 Z  M 4288.44 3084.35 L 4290.05 3084.35 L 4290.05 3084.64 L 4289.33 3084.75 L 4290.35 3087.68 L 4291.46 3084.72 L 4290.7 3084.64 L 4290.7 3084.35 L 4292.8 3084.35 L 4292.8 3084.64 L 4292.3 3084.71 L 4290.72 3088.56 L 4290.36 3088.56 L 4288.93 3084.75 L 4288.44 3084.64 Z  M 4285.7 3088.05 C 4285.71 3087.59 4285.72 3087.12 4285.72 3086.65 L 4285.72 3083.9 L 4285.68 3082.64 L 4285.8 3082.55 L 4287.6 3083.02 L 4287.6 3083.32 L 4286.44 3083.21 L 4286.44 3086.65 C 4286.44 3087.12 4286.44 3087.59 4286.45 3088.05 L 4287.7 3088.23 L 4287.7 3088.5 L 4284.47 3088.5 L 4284.47 3088.23 Z  M 4282.65 3088.61 C 4282.32 3088.61 4282.05 3088.34 4282.05 3088.03 C 4282.05 3087.69 4282.32 3087.42 4282.65 3087.42 C 4282.98 3087.42 4283.24 3087.69 4283.24 3088.03 C 4283.24 3088.34 4282.98 3088.61 4282.65 3088.61 Z  M 4280.2 3085.52 C 4280.2 3083.42 4279.68 3082.87 4279.12 3082.87 C 4278.59 3082.87 4278.08 3083.42 4278.08 3085.52 C 4278.08 3087.7 4278.59 3088.28 4279.12 3088.28 C 4279.68 3088.28 4280.2 3087.71 4280.2 3085.52 Z  M 4279.12 3082.52 C 4280.07 3082.52 4280.97 3083.33 4280.97 3085.52 C 4280.97 3087.79 4280.07 3088.61 4279.12 3088.61 C 4278.2 3088.61 4277.3 3087.79 4277.3 3085.52 C 4277.3 3083.33 4278.2 3082.52 4279.12 3082.52 Z  M 4275.63 3088.61 C 4275.29 3088.61 4275.03 3088.34 4275.03 3088.03 C 4275.03 3087.69 4275.29 3087.42 4275.63 3087.42 C 4275.96 3087.42 4276.22 3087.69 4276.22 3088.03 C 4276.22 3088.34 4275.96 3088.61 4275.63 3088.61 Z  M 4273.32 3087.82 C 4272.91 3087.4 4272.52 3087 4272.28 3086.76 C 4270.97 3085.39 4270.52 3084.83 4270.52 3084.07 C 4270.52 3083.16 4271.03 3082.52 4272.16 3082.52 C 4273.03 3082.52 4273.8 3082.96 4273.92 3083.84 C 4273.83 3084 4273.68 3084.11 4273.49 3084.11 C 4273.27 3084.11 4273.12 3083.96 4273.01 3083.56 L 4272.84 3082.92 C 4272.65 3082.88 4272.49 3082.86 4272.36 3082.86 C 4271.71 3082.86 4271.29 3083.36 4271.29 3084.11 C 4271.29 3084.81 4271.69 3085.48 4272.55 3086.45 C 4272.93 3086.89 4273.4 3087.42 4273.88 3087.96 L 4273.88 3088.5 L 4270.28 3088.5 L 4270.28 3087.82 Z "  stroke="none" stroke-width="0.8"  /></g><g c_partid="part_pcbtext" c_etype="pinpart" c_origin="4368,3102.5" c_rotation="0" c_mirror="1" id="gge2580" locked="0" layerid="4" c_shapetype="group" ><path c_fontsize="8" c_fontfamily="NotoSerifCJKsc-Medium" c_text="Yurii Alieksieiev 2022" d="M 4363.8 3096.54 L 4363.04 3096.44 L 4363.04 3096.14 L 4365.03 3096.14 L 4365.03 3096.44 L 4364.2 3096.54 L 4365.5 3099.29 L 4366.78 3096.53 L 4365.92 3096.44 L 4365.92 3096.14 L 4368.36 3096.14 L 4368.36 3096.44 L 4367.69 3096.51 L 4366.12 3099.71 C 4366.12 3100.46 4366.12 3101.04 4366.13 3101.6 L 4367.04 3101.7 L 4367.04 3102 L 4364.4 3102 L 4364.4 3101.7 L 4365.31 3101.6 C 4365.32 3101.02 4365.32 3100.43 4365.32 3099.68 Z  M 4359.43 3101.64 L 4359.43 3099.11 L 4359.4 3097.87 L 4359.48 3097.78 L 4360.75 3097.92 L 4360.75 3098.18 L 4360.12 3098.3 L 4360.15 3100.97 C 4360.53 3101.35 4360.95 3101.54 4361.37 3101.54 C 4361.85 3101.54 4362.1 3101.27 4362.1 3100.49 L 4362.1 3099.11 L 4362.06 3097.87 L 4362.15 3097.78 L 4363.44 3097.91 L 4363.44 3098.17 L 4362.8 3098.3 L 4362.83 3100.53 C 4362.84 3101.7 4362.4 3102.11 4361.68 3102.11 C 4361.13 3102.11 4360.57 3101.83 4360.12 3101.28 L 4360.04 3102.07 L 4358.83 3102 L 4358.83 3101.74 Z  M 4356.87 3097.82 L 4356.99 3097.74 L 4358.22 3098.22 L 4358.22 3098.48 L 4357.52 3098.55 C 4357.51 3098.9 4357.5 3099.21 4357.5 3099.7 L 4357.5 3100.16 C 4357.5 3100.57 4357.51 3101.19 4357.52 3101.63 L 4358.16 3101.73 L 4358.16 3102 L 4356.03 3102 L 4356.03 3101.73 L 4356.76 3101.62 C 4356.76 3101.18 4356.77 3100.57 4356.77 3100.16 L 4356.77 3099.47 C 4356.6 3098.94 4356.37 3098.58 4356.01 3098.31 L 4355.91 3098.41 C 4355.74 3098.56 4355.57 3098.66 4355.36 3098.66 C 4355.01 3098.66 4354.87 3098.42 4354.87 3098.06 C 4354.97 3097.85 4355.23 3097.73 4355.5 3097.73 C 4355.99 3097.73 4356.49 3098.15 4356.78 3098.87 Z  M 4353.47 3096.73 C 4353.16 3096.73 4352.91 3096.5 4352.91 3096.18 C 4352.91 3095.86 4353.16 3095.65 4353.47 3095.65 C 4353.79 3095.65 4354.04 3095.86 4354.04 3096.18 C 4354.04 3096.5 4353.79 3096.73 4353.47 3096.73 Z  M 4353.08 3101.63 C 4353.09 3101.18 4353.1 3100.57 4353.1 3100.16 L 4353.1 3098.98 L 4353.08 3097.82 L 4353.2 3097.74 L 4354.55 3098.21 L 4354.55 3098.47 L 4353.84 3098.54 C 4353.82 3098.92 4353.81 3099.21 4353.81 3099.7 L 4353.81 3100.16 C 4353.81 3100.57 4353.82 3101.18 4353.83 3101.63 L 4354.5 3101.73 L 4354.5 3102 L 4352.48 3102 L 4352.48 3101.73 Z  M 4350.84 3096.73 C 4350.53 3096.73 4350.28 3096.5 4350.28 3096.18 C 4350.28 3095.86 4350.53 3095.65 4350.84 3095.65 C 4351.16 3095.65 4351.4 3095.86 4351.4 3096.18 C 4351.4 3096.5 4351.16 3096.73 4350.84 3096.73 Z  M 4350.45 3101.63 C 4350.46 3101.18 4350.47 3100.57 4350.47 3100.16 L 4350.47 3098.98 L 4350.45 3097.82 L 4350.57 3097.74 L 4351.92 3098.21 L 4351.92 3098.47 L 4351.2 3098.54 C 4351.19 3098.92 4351.18 3099.21 4351.18 3099.7 L 4351.18 3100.16 C 4351.18 3100.57 4351.19 3101.18 4351.2 3101.63 L 4351.87 3101.73 L 4351.87 3102 L 4349.85 3102 L 4349.85 3101.73 Z  M 4345.72 3099.71 L 4344.83 3096.99 L 4343.92 3099.71 Z  M 4342.46 3101.62 L 4344.35 3096.1 L 4344.86 3096.1 L 4346.72 3101.58 L 4347.44 3101.7 L 4347.44 3102 L 4345.48 3102 L 4345.48 3101.7 L 4346.34 3101.58 L 4345.84 3100.06 L 4343.8 3100.06 L 4343.29 3101.59 L 4344.16 3101.7 L 4344.16 3102 L 4341.77 3102 L 4341.77 3101.7 Z  M 4340 3101.63 C 4340.01 3101.15 4340.02 3100.64 4340.02 3100.16 L 4340.02 3096.83 L 4339.98 3095.58 L 4340.1 3095.52 L 4341.45 3095.89 L 4341.45 3096.15 L 4340.74 3096.22 L 4340.74 3100.16 C 4340.74 3100.64 4340.75 3101.15 4340.76 3101.63 L 4341.45 3101.73 L 4341.45 3102 L 4339.3 3102 L 4339.3 3101.73 Z  M 4337.72 3096.73 C 4337.41 3096.73 4337.16 3096.5 4337.16 3096.18 C 4337.16 3095.86 4337.41 3095.65 4337.72 3095.65 C 4338.04 3095.65 4338.28 3095.86 4338.28 3096.18 C 4338.28 3096.5 4338.04 3096.73 4337.72 3096.73 Z  M 4337.33 3101.63 C 4337.34 3101.18 4337.35 3100.57 4337.35 3100.16 L 4337.35 3098.98 L 4337.33 3097.82 L 4337.45 3097.74 L 4338.8 3098.21 L 4338.8 3098.47 L 4338.08 3098.54 C 4338.07 3098.92 4338.06 3099.21 4338.06 3099.7 L 4338.06 3100.16 C 4338.06 3100.57 4338.07 3101.18 4338.08 3101.63 L 4338.75 3101.73 L 4338.75 3102 L 4336.73 3102 L 4336.73 3101.73 Z  M 4335.26 3099.55 C 4335.17 3098.51 4334.6 3098.06 4334.07 3098.06 C 4333.5 3098.06 4333.1 3098.54 4333.1 3099.08 C 4333.1 3099.37 4333.19 3099.57 4333.57 3099.57 Z  M 4332.45 3099.89 C 4332.41 3099.77 4332.39 3099.6 4332.39 3099.4 C 4332.39 3098.37 4333.08 3097.73 4334.03 3097.73 C 4335.11 3097.73 4336.04 3098.6 4336.04 3099.95 C 4336.04 3101.32 4335.24 3102.11 4334.06 3102.11 C 4333.28 3102.11 4332.72 3101.73 4332.4 3101.11 L 4332.58 3100.99 C 4332.89 3101.37 4333.24 3101.62 4333.81 3101.62 C 4334.67 3101.62 4335.25 3101.04 4335.27 3099.88 Z  M 4327.84 3101.65 L 4329.32 3099.26 L 4328.31 3098.25 L 4327.49 3098.14 L 4327.49 3097.85 L 4329.51 3097.85 L 4329.51 3098.14 L 4328.82 3098.28 L 4330.4 3099.91 L 4330.4 3096.83 L 4330.36 3095.58 L 4330.48 3095.52 L 4331.84 3095.89 L 4331.84 3096.15 L 4331.12 3096.22 L 4331.12 3100.16 C 4331.12 3100.63 4331.13 3101.15 4331.14 3101.63 L 4331.83 3101.73 L 4331.83 3102 L 4329.7 3102 L 4329.7 3101.73 L 4330.39 3101.63 C 4330.4 3101.22 4330.4 3100.78 4330.4 3100.36 L 4329.82 3099.77 L 4328.46 3102 L 4327.27 3102 L 4327.27 3101.73 Z  M 4325.37 3099.49 C 4325.96 3099.27 4326.19 3099.1 4326.19 3098.71 C 4326.19 3098.33 4325.89 3098.07 4325.33 3098.07 C 4325.12 3098.07 4324.91 3098.13 4324.7 3098.23 L 4324.53 3098.98 L 4324.14 3098.98 L 4324.11 3098.09 C 4324.49 3097.86 4324.86 3097.73 4325.33 3097.73 C 4326.32 3097.73 4326.86 3098.3 4326.86 3098.95 C 4326.86 3099.55 4326.44 3099.9 4325.79 3100.14 L 4325.38 3100.27 C 4324.8 3100.49 4324.56 3100.69 4324.56 3101.07 C 4324.56 3101.49 4324.88 3101.78 4325.57 3101.78 C 4325.85 3101.78 4326.08 3101.73 4326.29 3101.63 L 4326.48 3100.82 L 4326.9 3100.82 L 4326.88 3101.78 C 4326.45 3102 4326.07 3102.11 4325.56 3102.11 C 4324.45 3102.11 4323.87 3101.54 4323.87 3100.86 C 4323.87 3100.31 4324.2 3099.9 4325.07 3099.6 Z  M 4322.19 3096.73 C 4321.88 3096.73 4321.63 3096.5 4321.63 3096.18 C 4321.63 3095.86 4321.88 3095.65 4322.19 3095.65 C 4322.51 3095.65 4322.76 3095.86 4322.76 3096.18 C 4322.76 3096.5 4322.51 3096.73 4322.19 3096.73 Z  M 4321.8 3101.63 C 4321.81 3101.18 4321.82 3100.57 4321.82 3100.16 L 4321.82 3098.98 L 4321.8 3097.82 L 4321.92 3097.74 L 4323.27 3098.21 L 4323.27 3098.47 L 4322.56 3098.54 C 4322.54 3098.92 4322.53 3099.21 4322.53 3099.7 L 4322.53 3100.16 C 4322.53 3100.57 4322.54 3101.18 4322.55 3101.63 L 4323.22 3101.73 L 4323.22 3102 L 4321.2 3102 L 4321.2 3101.73 Z  M 4319.73 3099.55 C 4319.64 3098.51 4319.08 3098.06 4318.54 3098.06 C 4317.97 3098.06 4317.57 3098.54 4317.57 3099.08 C 4317.57 3099.37 4317.66 3099.57 4318.04 3099.57 Z  M 4316.92 3099.89 C 4316.88 3099.77 4316.86 3099.6 4316.86 3099.4 C 4316.86 3098.37 4317.56 3097.73 4318.5 3097.73 C 4319.58 3097.73 4320.51 3098.6 4320.51 3099.95 C 4320.51 3101.32 4319.71 3102.11 4318.53 3102.11 C 4317.76 3102.11 4317.2 3101.73 4316.88 3101.11 L 4317.05 3100.99 C 4317.36 3101.37 4317.71 3101.62 4318.28 3101.62 C 4319.14 3101.62 4319.72 3101.04 4319.74 3099.88 Z  M 4315.11 3096.73 C 4314.8 3096.73 4314.55 3096.5 4314.55 3096.18 C 4314.55 3095.86 4314.8 3095.65 4315.11 3095.65 C 4315.43 3095.65 4315.68 3095.86 4315.68 3096.18 C 4315.68 3096.5 4315.43 3096.73 4315.11 3096.73 Z  M 4314.72 3101.63 C 4314.73 3101.18 4314.74 3100.57 4314.74 3100.16 L 4314.74 3098.98 L 4314.72 3097.82 L 4314.84 3097.74 L 4316.19 3098.21 L 4316.19 3098.47 L 4315.48 3098.54 C 4315.46 3098.92 4315.45 3099.21 4315.45 3099.7 L 4315.45 3100.16 C 4315.45 3100.57 4315.46 3101.18 4315.47 3101.63 L 4316.14 3101.73 L 4316.14 3102 L 4314.12 3102 L 4314.12 3101.73 Z  M 4312.65 3099.55 C 4312.56 3098.51 4312 3098.06 4311.46 3098.06 C 4310.89 3098.06 4310.49 3098.54 4310.49 3099.08 C 4310.49 3099.37 4310.58 3099.57 4310.96 3099.57 Z  M 4309.84 3099.89 C 4309.8 3099.77 4309.78 3099.6 4309.78 3099.4 C 4309.78 3098.37 4310.48 3097.73 4311.42 3097.73 C 4312.5 3097.73 4313.43 3098.6 4313.43 3099.95 C 4313.43 3101.32 4312.63 3102.11 4311.45 3102.11 C 4310.68 3102.11 4310.12 3101.73 4309.8 3101.11 L 4309.97 3100.99 C 4310.28 3101.37 4310.63 3101.62 4311.2 3101.62 C 4312.06 3101.62 4312.64 3101.04 4312.66 3099.88 Z  M 4305.09 3097.85 L 4306.71 3097.85 L 4306.71 3098.14 L 4305.99 3098.25 L 4307 3101.18 L 4308.12 3098.22 L 4307.36 3098.14 L 4307.36 3097.85 L 4309.45 3097.85 L 4309.45 3098.14 L 4308.96 3098.21 L 4307.38 3102.06 L 4307.02 3102.06 L 4305.59 3098.25 L 4305.09 3098.14 Z  M 4301.97 3101.32 C 4301.56 3100.9 4301.17 3100.5 4300.94 3100.26 C 4299.63 3098.89 4299.18 3098.33 4299.18 3097.57 C 4299.18 3096.66 4299.68 3096.02 4300.81 3096.02 C 4301.68 3096.02 4302.45 3096.46 4302.57 3097.34 C 4302.48 3097.5 4302.33 3097.61 4302.15 3097.61 C 4301.92 3097.61 4301.77 3097.46 4301.67 3097.06 L 4301.49 3096.42 C 4301.31 3096.38 4301.15 3096.36 4301.02 3096.36 C 4300.36 3096.36 4299.95 3096.86 4299.95 3097.61 C 4299.95 3098.31 4300.35 3098.98 4301.2 3099.95 C 4301.59 3100.39 4302.05 3100.92 4302.53 3101.46 L 4302.53 3102 L 4298.93 3102 L 4298.93 3101.32 Z  M 4297.44 3099.02 C 4297.44 3096.92 4296.92 3096.37 4296.36 3096.37 C 4295.83 3096.37 4295.32 3096.92 4295.32 3099.02 C 4295.32 3101.2 4295.83 3101.78 4296.36 3101.78 C 4296.92 3101.78 4297.44 3101.21 4297.44 3099.02 Z  M 4296.36 3096.02 C 4297.31 3096.02 4298.21 3096.83 4298.21 3099.02 C 4298.21 3101.29 4297.31 3102.11 4296.36 3102.11 C 4295.44 3102.11 4294.54 3101.29 4294.54 3099.02 C 4294.54 3096.83 4295.44 3096.02 4296.36 3096.02 Z  M 4293.19 3101.32 C 4292.78 3100.9 4292.39 3100.5 4292.16 3100.26 C 4290.84 3098.89 4290.4 3098.33 4290.4 3097.57 C 4290.4 3096.66 4290.9 3096.02 4292.03 3096.02 C 4292.9 3096.02 4293.67 3096.46 4293.79 3097.34 C 4293.7 3097.5 4293.55 3097.61 4293.36 3097.61 C 4293.14 3097.61 4292.99 3097.46 4292.88 3097.06 L 4292.71 3096.42 C 4292.52 3096.38 4292.36 3096.36 4292.24 3096.36 C 4291.58 3096.36 4291.16 3096.86 4291.16 3097.61 C 4291.16 3098.31 4291.56 3098.98 4292.42 3099.95 C 4292.8 3100.39 4293.27 3100.92 4293.75 3101.46 L 4293.75 3102 L 4290.15 3102 L 4290.15 3101.32 Z  M 4288.8 3101.32 C 4288.39 3100.9 4288 3100.5 4287.76 3100.26 C 4286.45 3098.89 4286 3098.33 4286 3097.57 C 4286 3096.66 4286.51 3096.02 4287.64 3096.02 C 4288.51 3096.02 4289.28 3096.46 4289.4 3097.34 C 4289.31 3097.5 4289.16 3097.61 4288.97 3097.61 C 4288.75 3097.61 4288.6 3097.46 4288.49 3097.06 L 4288.32 3096.42 C 4288.13 3096.38 4287.97 3096.36 4287.84 3096.36 C 4287.19 3096.36 4286.77 3096.86 4286.77 3097.61 C 4286.77 3098.31 4287.17 3098.98 4288.03 3099.95 C 4288.41 3100.39 4288.88 3100.92 4289.36 3101.46 L 4289.36 3102 L 4285.76 3102 L 4285.76 3101.32 Z "  stroke="none" stroke-width="0.8"  /></g></g><g transform="matrix(-1, 0, 0, 1, 8481.4, 0)"><polyline points="4047.5 3046.5 4194.56 3046.5 4433.94 3046.5 4433.94 3219.02 4047.5 3219.02 4047.5 3046.5" stroke-width="1"  stroke-linecap="round" fill="none" layerid="10" net="" id="gge2001" locked="0" /></g></svg>