<svg xmlns="http://www.w3.org/2000/svg" xmlns:xlink="http://www.w3.org/1999/xlink" width="266.192mm" height="114.681mm" viewBox="3804.5 2684 1048 451.5"><title></title><style type="text/css">
*[layerid="1"] {stroke:#000000;fill:#000000;}
*[layerid="2"] {stroke:#000000;fill:#000000;}
*[layerid="3"] {stroke:#000000;fill:#000000;}
*[layerid="4"] {stroke:#000000;fill:#000000;}
*[layerid="5"] {stroke:#000000;fill:#000000;}
*[layerid="6"] {stroke:#000000;fill:#000000;}
*[layerid="7"] {stroke:#000000;fill:#000000;}
*[layerid="8"] {stroke:#000000;fill:#000000;}
*[layerid="9"] {stroke:#000000;fill:#000000;}
*[layerid="10"] {stroke:#000000;fill:#000000;}
*[layerid="11"] {stroke:#000000;fill:#000000;}
*[layerid="12"] {stroke:#000000;fill:#000000;}
*[layerid="13"] {stroke:#000000;fill:#000000;}
*[layerid="14"] {stroke:#000000;fill:#000000;}
*[layerid="15"] {stroke:#000000;fill:#000000;}
*[layerid="19"] {stroke:#000000;fill:#000000;}
*[layerid="21"] {stroke:#000000;fill:#000000;}
*[layerid="22"] {stroke:#000000;fill:#000000;}
*[layerid="23"] {stroke:#000000;fill:#000000;}
*[layerid="24"] {stroke:#000000;fill:#000000;}
*[layerid="25"] {stroke:#000000;fill:#000000;}
*[layerid="26"] {stroke:#000000;fill:#000000;}
*[layerid="27"] {stroke:#000000;fill:#000000;}
*[layerid="28"] {stroke:#000000;fill:#000000;}
*[layerid="29"] {stroke:#000000;fill:#000000;}
*[layerid="30"] {stroke:#000000;fill:#000000;}
*[layerid="31"] {stroke:#000000;fill:#000000;}
*[layerid="32"] {stroke:#000000;fill:#000000;}
*[layerid="33"] {stroke:#000000;fill:#000000;}
*[layerid="34"] {stroke:#000000;fill:#000000;}
*[layerid="35"] {stroke:#000000;fill:#000000;}
*[layerid="36"] {stroke:#000000;fill:#000000;}
*[layerid="37"] {stroke:#000000;fill:#000000;}
*[layerid="38"] {stroke:#000000;fill:#000000;}
*[layerid="39"] {stroke:#000000;fill:#000000;}
*[layerid="40"] {stroke:#000000;fill:#000000;}
*[layerid="41"] {stroke:#000000;fill:#000000;}
*[layerid="42"] {stroke:#000000;fill:#000000;}
*[layerid="43"] {stroke:#000000;fill:#000000;}
*[layerid="44"] {stroke:#000000;fill:#000000;}
*[layerid="45"] {stroke:#000000;fill:#000000;}
*[layerid="46"] {stroke:#000000;fill:#000000;}
*[layerid="47"] {stroke:#000000;fill:#000000;}
*[layerid="48"] {stroke:#000000;fill:#000000;}
*[layerid="49"] {stroke:#000000;fill:#000000;}
*[layerid="50"] {stroke:#000000;fill:#000000;}
*[layerid="51"] {stroke:#000000;fill:#000000;}
*[layerid="52"] {stroke:#000000;fill:#000000;}
*[layerid="99"] {stroke:#000000;fill:#000000;}
*[layerid="100"] {stroke:#000000;fill:#000000;}
*[layerid="101"] {stroke:#000000;fill:#000000;}
*[layerid="Hole"] {stroke:#000000;fill:#000000;}
*[layerid="DRCError"] {stroke:#000000;fill:#000000;}
*[fill="none"] {fill: none;}
*[stroke="none"] {stroke: none;}
path, polyline, polygon, line {stroke-linecap:round;}
g[c_partid="part_pad"][layerid="1"] ellipse:not([c_etype="pad_outer"]) {fill:#000000;}
g[c_partid="part_pad"][layerid="1"] polygon:not([c_etype="pad_outer"]) {fill:#000000;}
g[c_partid="part_pad"][layerid="1"] polyline:not([c_etype="pad_outer"]) {stroke:#000000;}
g[c_partid="part_pad"][layerid="2"] ellipse:not([c_etype="pad_outer"]) {fill:#000000;}
g[c_partid="part_pad"][layerid="2"] polygon:not([c_etype="pad_outer"]) {fill:#000000;}
g[c_partid="part_pad"][layerid="2"] polyline:not([c_etype="pad_outer"]) {stroke:#000000;}
g[c_partid="part_pad"][layerid="11"] ellipse:not([c_etype="pad_outer"]) {fill:#000000;}
g[c_partid="part_pad"][layerid="11"] polygon:not([c_etype="pad_outer"]) {fill:#000000;}
g[c_partid="part_pad"][layerid="11"] polyline:not([c_etype="pad_outer"]) {stroke:#000000;}
g[c_partid="part_pad"][layerid="11"] circle {fill:#FFFFFF;}
g[c_partid="part_pad"][layerid="11"] > polyline:nth-of-type(2) {stroke:#FFFFFF;}
g[c_partid="part_pad"][layerid="11"][c_shape="ELLIPSE"]  polyline:nth-last-of-type(1) {stroke:#FFFFFF;}
g[c_partid="part_pad"][layerid="11"][c_shape="RECT"]  polyline:nth-last-of-type(1) {stroke:#FFFFFF;}
g[c_partid="part_pad"][layerid="11"][c_shape="POLYGON"]  polyline:nth-last-of-type(1) {stroke:#FFFFFF;}
g[c_partid="part_via"] > * + circle, #gCurParts g[c_partid="part_via"] > * + circle {fill:#FFFFFF;}
g[c_partid="part_pad"] > polygon[c_etype="pad_outer"], #gCurParts g[c_partid="part_pad"] > polygon[c_etype="pad_outer"] {stroke-linejoin: round;stroke-miterlimit: 100;}
g[c_partid="part_hole"] > circle {fill: #FFFFFF;}path, polyline, polygon {stroke-linejoin:round;}
rect, circle, ellipse, polyline, line, polygon, path {shape-rendering:crispEdges;}
</style>
<rect x="3804.5" y="2684" width="1048" height="451.5" fill="#FFFFFF" stroke="none"/><polyline points="4020 2694 4768 2694 4768 2772.5" stroke-width="1"  stroke-linecap="round" fill="none" layerid="10" net="S$9581" id="gge9580" locked="1" /><polyline points="4768 2772.5 4842.5 2772.5 4842.5 2844" stroke-width="1"  stroke-linecap="round" fill="none" layerid="10" net="S$9600" id="gge9599" locked="1" /><polyline points="4020 2814 4020 2844 3814.5 2844 3814.5 2924 3988 2924 3988 2992.5" stroke-width="1"  stroke-linecap="round" fill="none" layerid="10" net="S$9625" id="gge9624" locked="1" /><polyline points="4842.5 2844 4800 2844 4800 2924" stroke-width="1"  stroke-linecap="round" fill="none" layerid="10" net="S$9610" id="gge9609" locked="1" /><polyline points="4800 2924 4690.5 2924" stroke-width="1"  stroke-linecap="round" fill="none" layerid="10" net="S$9617" id="gge9616" locked="1" /><polyline points="4690.5 2924 4690.5999 3010.4" stroke-width="1"  stroke-linecap="round" fill="none" layerid="10" net="S$9632" id="gge9631" locked="1" /><polyline points="4020 2694 4020 2814" stroke-width="1"  stroke-linecap="round" fill="none" layerid="10" net="S$9621" id="gge9620" locked="0" /><path d="M3988,2992.5 A560.803,560.803 0 0 0 4690.4983,3010.4978" locked="1"  fill="none" stroke-width="1" c_helper_type="arc2" net="" layerid="10" id="gge9822" /><polyline points="4700.354 2820.492 4434.646 2820.492 4434.646 2694.508 4700.354 2694.508 4700.354 2820.492" stroke-width="0.394"  stroke-linecap="round" fill="none" layerid="12" net="" id="gge39598" locked="0" /><polyline points="4438.583 2708.445 4438.583 2806.555" stroke-width="0.787"  stroke-linecap="round" fill="none" layerid="12" net="" id="gge39634" locked="0" /><polyline points="4448.425 2816.555 4684.645 2816.555" stroke-width="0.787"  stroke-linecap="round" fill="none" layerid="12" net="" id="gge39640" locked="0" /><polyline points="4694.488 2806.555 4694.488 2708.445" stroke-width="0.787"  stroke-linecap="round" fill="none" layerid="12" net="" id="gge39646" locked="0" /><polyline points="4684.645 2698.445 4448.425 2698.445" stroke-width="0.787"  stroke-linecap="round" fill="none" layerid="12" net="" id="gge39652" locked="0" /><polyline points="4174.75 2776 4179.75 2776" stroke-width="0.8"  stroke-linecap="round" fill="none" layerid="12" net="" id="gge17492" locked="0" /><g c_partid="part_pcbtext" c_etype="" c_origin="4246.825,2739.187" c_rotation="0" c_mirror="0" id="gge17546" locked="0" layerid="12" c_shapetype="group" ><path c_fontsize="3.2" c_fontfamily="" c_text="2,0" d="M 4246.97 2738.17 L 4246.97 2738.02 L 4247.12 2737.73 L 4247.26 2737.59 L 4247.55 2737.44 L 4248.13 2737.44 L 4248.43 2737.59 L 4248.57 2737.73 L 4248.72 2738.02 L 4248.72 2738.31 L 4248.57 2738.61 L 4248.28 2739.04 L 4246.83 2740.5 L 4248.86 2740.5 M 4250.11 2739.91 L 4249.97 2740.06 L 4249.82 2739.91 L 4249.97 2739.77 L 4250.11 2739.91 L 4250.11 2740.21 L 4249.82 2740.5 M 4251.95 2737.44 L 4251.51 2737.59 L 4251.22 2738.02 L 4251.07 2738.75 L 4251.07 2739.19 L 4251.22 2739.91 L 4251.51 2740.35 L 4251.95 2740.5 L 4252.24 2740.5 L 4252.67 2740.35 L 4252.96 2739.91 L 4253.11 2739.19 L 4253.11 2738.75 L 4252.96 2738.02 L 4252.67 2737.59 L 4252.24 2737.44 L 4251.95 2737.44" fill="none"  stroke-width="0.256"  /></g><g c_partid="part_pcbtext" c_etype="" c_origin="4246.825,2781.187" c_rotation="0" c_mirror="0" id="gge17552" locked="0" layerid="12" c_shapetype="group" ><path c_fontsize="3.2" c_fontfamily="" c_text="2,0" d="M 4246.97 2780.17 L 4246.97 2780.02 L 4247.12 2779.73 L 4247.26 2779.59 L 4247.55 2779.44 L 4248.13 2779.44 L 4248.43 2779.59 L 4248.57 2779.73 L 4248.72 2780.02 L 4248.72 2780.31 L 4248.57 2780.61 L 4248.28 2781.04 L 4246.83 2782.5 L 4248.86 2782.5 M 4250.11 2781.91 L 4249.97 2782.06 L 4249.82 2781.91 L 4249.97 2781.77 L 4250.11 2781.91 L 4250.11 2782.21 L 4249.82 2782.5 M 4251.95 2779.44 L 4251.51 2779.59 L 4251.22 2780.02 L 4251.07 2780.75 L 4251.07 2781.19 L 4251.22 2781.91 L 4251.51 2782.35 L 4251.95 2782.5 L 4252.24 2782.5 L 4252.67 2782.35 L 4252.96 2781.91 L 4253.11 2781.19 L 4253.11 2780.75 L 4252.96 2780.02 L 4252.67 2779.59 L 4252.24 2779.44 L 4251.95 2779.44" fill="none"  stroke-width="0.256"  /></g><path d="M 4448.425 2698.445 A 9.853 9.853 0 0 0 4438.583 2708.445" locked="0"  fill="none" stroke-width="0.787" c_helper_type="arc2" net="" layerid="12" id="gge39631" /><path d="M 4438.583 2806.555 A 9.853 9.853 0 0 0 4448.425 2816.555" locked="0"  fill="none" stroke-width="0.787" c_helper_type="arc2" net="" layerid="12" id="gge39637" /><path d="M 4684.645 2816.555 A 9.853 9.853 0 0 0 4694.488 2806.555" locked="0"  fill="none" stroke-width="0.787" c_helper_type="arc2" net="" layerid="12" id="gge39643" /><path d="M 4694.488 2708.445 A 10.009 10.009 0 0 0 4684.645 2698.445" locked="0"  fill="none" stroke-width="0.787" c_helper_type="arc2" net="" layerid="12" id="gge39649" /><circle cx="4469" cy="3035.981" r="1.181" stroke-width="2.3622" fill="none" layerid="12" id="gge11246" locked="0"  /><circle cx="4781.039" cy="2791.965" r="0.787" stroke-width="1.5748" fill="none" layerid="12" id="gge5424" locked="0"  /><circle cx="3884.961" cy="2891.035" r="0.787" stroke-width="1.5748" fill="none" layerid="12" id="gge5661" locked="0"  /><circle cx="4317.499" cy="3022.48" r="1.181" stroke-width="2.3622" fill="none" layerid="12" id="gge5919" locked="0"  /><circle cx="4210.519" cy="3021.999" r="1.181" stroke-width="2.3622" fill="none" layerid="12" id="gge6018" locked="0"  /><circle cx="4711.499" cy="2896.481" r="1.181" stroke-width="2.3622" fill="none" layerid="12" id="gge6117" locked="0"  /><circle cx="4371.499" cy="3022.481" r="1.181" stroke-width="2.3622" fill="none" layerid="12" id="gge6216" locked="0"  /><circle cx="4259.999" cy="3022.481" r="1.181" stroke-width="2.3622" fill="none" layerid="12" id="gge8553" locked="0"  /><path d="M 3925.7363 2890.9015 L 3925.7363 2889.4015 L 3925.7363 2886.9015 L 3926.7363 2886.9015 L 3926.7363 2890.9015 Z" stroke-width="0"   net="" type="solid" layerid="12" id="gge18330" locked="0" c_teardrop="" c_targetpad="" c_targetwire="" /><path d="M 3928.2362 2889.4015 L 3926.7363 2889.4016 L 3924.2363 2889.4015 L 3924.2363 2888.4015 L 3928.2362 2888.4015 Z" stroke-width="0"   net="" type="solid" layerid="12" id="gge18333" locked="0" c_teardrop="" c_targetpad="" c_targetwire="" /><path d="M 3927 2880 A 5.1213 5.1213 0 0 1 3930.6213 2878.5 L 3931.5 2878.5 L 3931.8787 2878.5 A 5.1213 5.1213 0 0 1 3935.5 2880 Z" stroke-width="0"   net="" type="solid" layerid="12" id="gge18336" locked="0" c_teardrop="" c_targetpad="" c_targetwire="" /><path d="M 4771.4015 2840.7637 L 4769.9015 2840.7637 L 4767.4015 2840.7637 L 4767.4015 2839.7637 L 4771.4015 2839.7637 Z " stroke-width="0"   net="" type="solid" layerid="12" id="gge18417" locked="0" c_teardrop="" c_targetpad="" c_targetwire="" /><path d="M 4769.9015 2838.2638 L 4769.9016 2839.7637 L 4769.9015 2842.2637 L 4768.9015 2842.2637 L 4768.9015 2838.2638 Z " stroke-width="0"   net="" type="solid" layerid="12" id="gge18420" locked="0" c_teardrop="" c_targetpad="" c_targetwire="" /><path d="M 4760.5 2839.5 A 5.1213 5.1213 0 0 1 4759 2835.8787 L 4759 2835 L 4759 2834.6213 A 5.1213 5.1213 0 0 1 4760.5 2831 Z " stroke-width="0"   net="" type="solid" layerid="12" id="gge18423" locked="0" c_teardrop="" c_targetpad="" c_targetwire="" /><path d="M 3908.2637 2883.0985 L 3908.2637 2884.5985 L 3908.2637 2887.0985 L 3907.2637 2887.0985 L 3907.2637 2883.0985 Z" stroke-width="0"   net="" type="solid" layerid="12" id="gge18504" locked="0" c_teardrop="" c_targetpad="" c_targetwire="" /><path d="M 3905.7638 2884.5985 L 3907.2637 2884.5984 L 3909.7637 2884.5985 L 3909.7637 2885.5985 L 3905.7638 2885.5985 Z" stroke-width="0"   net="" type="solid" layerid="12" id="gge18507" locked="0" c_teardrop="" c_targetpad="" c_targetwire="" /><path d="M 3907 2894 A 5.1213 5.1213 0 0 1 3903.3787 2895.5 L 3902.5 2895.5 L 3902.1213 2895.5 A 5.1213 5.1213 0 0 1 3898.5 2894 Z" stroke-width="0"   net="" type="solid" layerid="12" id="gge18510" locked="0" c_teardrop="" c_targetpad="" c_targetwire="" /><path d="M 4178.25 2742 L 4178.25 2740 L 4176.25 2740 L 4176.25 2742 Z " stroke-width="0"   net="" type="solid" layerid="12" id="gge17477" locked="0" c_teardrop="" c_targetpad="" c_targetwire="" /><path d="M 4178.25 2752 L 4178.25 2750 L 4176.25 2750 L 4176.25 2752 Z " stroke-width="0"   net="" type="solid" layerid="12" id="gge17480" locked="0" c_teardrop="" c_targetpad="" c_targetwire="" /><path d="M 4178.25 2762 L 4178.25 2760 L 4176.25 2760 L 4176.25 2762 Z " stroke-width="0"   net="" type="solid" layerid="12" id="gge17483" locked="0" c_teardrop="" c_targetpad="" c_targetwire="" /><path d="M 4178.25 2772 L 4178.25 2770 L 4176.25 2770 L 4176.25 2772 Z " stroke-width="0"   net="" type="solid" layerid="12" id="gge17486" locked="0" c_teardrop="" c_targetpad="" c_targetwire="" /><path d="M 4178.25 2732 L 4178.25 2730 L 4176.25 2730 L 4176.25 2732 Z " stroke-width="0"   net="" type="solid" layerid="12" id="gge17489" locked="0" c_teardrop="" c_targetpad="" c_targetwire="" /><path d="M 4357.5 3100 L 4364.5 3100 L 4364.5 3101 L 4357.5 3101 Z " stroke-width="0"   net="" type="solid" layerid="12" id="gge12081" locked="0" c_teardrop="" c_targetpad="" c_targetwire="" /><path d="M 4360.5 3099 L 4360.5 3104 L 4361.5 3104 L 4361.5 3097 L 4360.5 3097 Z " stroke-width="0"   net="" type="solid" layerid="12" id="gge12084" locked="0" c_teardrop="" c_targetpad="" c_targetwire="" /><path d="M 4419 3032 L 4426 3032 L 4426 3033 L 4419 3033 Z " stroke-width="0"   net="" type="solid" layerid="12" id="gge12165" locked="0" c_teardrop="" c_targetpad="" c_targetwire="" /><path d="M 4422 3031 L 4422 3036 L 4423 3036 L 4423 3029 L 4422 3029 Z " stroke-width="0"   net="" type="solid" layerid="12" id="gge12168" locked="0" c_teardrop="" c_targetpad="" c_targetwire="" /><path d="M 4522 3032 L 4529 3032 L 4529 3033 L 4522 3033 Z " stroke-width="0"   net="" type="solid" layerid="12" id="gge12249" locked="0" c_teardrop="" c_targetpad="" c_targetwire="" /><path d="M 4525 3031 L 4525 3036 L 4526 3036 L 4526 3029 L 4525 3029 Z " stroke-width="0"   net="" type="solid" layerid="12" id="gge12252" locked="0" c_teardrop="" c_targetpad="" c_targetwire="" /><path d="M 4460.5786 3015.6496 L 4460.5786 3018.9567 L 4500.1454 3018.9567 L 4500.1454 3015.6496 Z " stroke-width="0"   net="" type="solid" layerid="12" id="gge11249" locked="0" c_teardrop="" c_targetpad="" c_targetwire="" /><path d="M 4465 2840 L 4469.5 2840 L 4469.5 2841 L 4464.5 2841 L 4464.5 2840 Z " stroke-width="0"   net="" type="solid" layerid="12" id="gge10552" locked="0" c_teardrop="" c_targetpad="" c_targetwire="" /><path d="M 4466.5 2842.5 L 4466.5 2838 L 4467.5 2838 L 4467.5001 2843 L 4466.5 2843.0001 Z " stroke-width="0"   net="" type="solid" layerid="12" id="gge10555" locked="0" c_teardrop="" c_targetpad="" c_targetwire="" /><path d="M 4253.7499 3035.75 L 4257.2499 3035.75 L 4257.2499 3036.25 L 4253.7499 3036.25 Z " stroke-width="0"   net="" type="solid" layerid="12" id="gge2145" locked="0" c_teardrop="" c_targetpad="" c_targetwire="" /><path d="M 4255.2499 3037.75 L 4255.2499 3034.25 L 4255.7499 3034.25 L 4255.75 3037.75 Z " stroke-width="0"   net="" type="solid" layerid="12" id="gge2148" locked="0" c_teardrop="" c_targetpad="" c_targetwire="" /><path d="M 4265.5 3036 L 4269 3036 L 4269 3036.5 L 4265.5 3036.5 Z " stroke-width="0"   net="" type="solid" layerid="12" id="gge2151" locked="0" c_teardrop="" c_targetpad="" c_targetwire="" /><path d="M 4295.7501 3045.25 L 4292.2501 3045.25 L 4292.2501 3044.75 L 4295.7501 3044.75 Z " stroke-width="0"   net="" type="solid" layerid="12" id="gge2232" locked="0" c_teardrop="" c_targetpad="" c_targetwire="" /><path d="M 4294.2501 3043.25 L 4294.2501 3046.75 L 4293.7501 3046.75 L 4293.75 3043.25 Z " stroke-width="0"   net="" type="solid" layerid="12" id="gge2235" locked="0" c_teardrop="" c_targetpad="" c_targetwire="" /><path d="M 4284 3045 L 4280.5 3045 L 4280.5 3044.5 L 4284 3044.5 Z " stroke-width="0"   net="" type="solid" layerid="12" id="gge2238" locked="0" c_teardrop="" c_targetpad="" c_targetwire="" /><path d="M 4493.7501 3056.25 L 4490.2501 3056.25 L 4490.2501 3055.75 L 4493.7501 3055.75 Z" stroke-width="0"   net="" type="solid" layerid="12" id="gge2493" locked="0" c_teardrop="" c_targetpad="" c_targetwire="" /><path d="M 4492.2501 3054.25 L 4492.2501 3057.75 L 4491.7501 3057.75 L 4491.75 3054.25 Z" stroke-width="0"   net="" type="solid" layerid="12" id="gge2496" locked="0" c_teardrop="" c_targetpad="" c_targetwire="" /><path d="M 4482 3056 L 4478.5 3056 L 4478.5 3055.5 L 4482 3055.5 Z" stroke-width="0"   net="" type="solid" layerid="12" id="gge2499" locked="0" c_teardrop="" c_targetpad="" c_targetwire="" /><path d="M 4470.7499 2900.25 L 4474.2499 2900.25 L 4474.2499 2900.75 L 4470.7499 2900.75 Z " stroke-width="0"   net="" type="solid" layerid="12" id="gge2580" locked="0" c_teardrop="" c_targetpad="" c_targetwire="" /><path d="M 4472.2499 2902.25 L 4472.2499 2898.75 L 4472.7499 2898.75 L 4472.75 2902.25 Z " stroke-width="0"   net="" type="solid" layerid="12" id="gge2583" locked="0" c_teardrop="" c_targetpad="" c_targetwire="" /><path d="M 4482.5 2900.5 L 4486 2900.5 L 4486 2901 L 4482.5 2901 Z " stroke-width="0"   net="" type="solid" layerid="12" id="gge2586" locked="0" c_teardrop="" c_targetpad="" c_targetwire="" /><path d="M 4763.9015 2890.2637 L 4762.4015 2890.2637 L 4759.9015 2890.2637 L 4759.9015 2889.2637 L 4763.9015 2889.2637 Z" stroke-width="0"   net="" type="solid" layerid="12" id="gge2667" locked="0" c_teardrop="" c_targetpad="" c_targetwire="" /><path d="M 4762.4015 2887.7638 L 4762.4016 2889.2637 L 4762.4015 2891.7637 L 4761.4015 2891.7637 L 4761.4015 2887.7638 Z" stroke-width="0"   net="" type="solid" layerid="12" id="gge2670" locked="0" c_teardrop="" c_targetpad="" c_targetwire="" /><path d="M 4753 2889 A 5.1213 5.1213 0 0 1 4751.5 2885.3787 L 4751.5 2884.5 L 4751.5 2884.1213 A 5.1213 5.1213 0 0 1 4753 2880.5 Z" stroke-width="0"   net="" type="solid" layerid="12" id="gge2673" locked="0" c_teardrop="" c_targetpad="" c_targetwire="" /><path d="M 4309.0786 3002.1496 L 4309.0786 3005.4567 L 4348.6454 3005.4567 L 4348.6454 3002.1496 Z " stroke-width="0"   net="" type="solid" layerid="12" id="gge5922" locked="0" c_teardrop="" c_targetpad="" c_targetwire="" /><path d="M 4230.8504 3013.5786 L 4227.5433 3013.5786 L 4227.5433 3053.1454 L 4230.8504 3053.1454 Z " stroke-width="0"   net="" type="solid" layerid="12" id="gge6021" locked="0" c_teardrop="" c_targetpad="" c_targetwire="" /><path d="M 4703.0786 2876.1496 L 4703.0786 2879.4567 L 4742.6454 2879.4567 L 4742.6454 2876.1496 Z " stroke-width="0"   net="" type="solid" layerid="12" id="gge6120" locked="0" c_teardrop="" c_targetpad="" c_targetwire="" /><path d="M 4363.0786 3002.1496 L 4363.0786 3005.4567 L 4402.6454 3005.4567 L 4402.6454 3002.1496 Z " stroke-width="0"   net="" type="solid" layerid="12" id="gge6219" locked="0" c_teardrop="" c_targetpad="" c_targetwire="" /><path d="M 4251.5786 3002.1496 L 4251.5786 3005.4567 L 4291.1454 3005.4567 L 4291.1454 3002.1496 Z " stroke-width="0"   net="" type="solid" layerid="12" id="gge8556" locked="0" c_teardrop="" c_targetpad="" c_targetwire="" /></svg>