<svg xmlns="http://www.w3.org/2000/svg" xmlns:xlink="http://www.w3.org/1999/xlink" width="266.192mm" height="114.681mm" viewBox="3804.5 2684 1048 451.5"><title></title><style type="text/css">
*[layerid="1"] {stroke:#000000;fill:#000000;}
*[layerid="2"] {stroke:#000000;fill:#000000;}
*[layerid="3"] {stroke:#000000;fill:#000000;}
*[layerid="4"] {stroke:#000000;fill:#000000;}
*[layerid="5"] {stroke:#000000;fill:#000000;}
*[layerid="6"] {stroke:#000000;fill:#000000;}
*[layerid="7"] {stroke:#000000;fill:#000000;}
*[layerid="8"] {stroke:#000000;fill:#000000;}
*[layerid="9"] {stroke:#000000;fill:#000000;}
*[layerid="10"] {stroke:#000000;fill:#000000;}
*[layerid="11"] {stroke:#000000;fill:#000000;}
*[layerid="12"] {stroke:#000000;fill:#000000;}
*[layerid="13"] {stroke:#000000;fill:#000000;}
*[layerid="14"] {stroke:#000000;fill:#000000;}
*[layerid="15"] {stroke:#000000;fill:#000000;}
*[layerid="19"] {stroke:#000000;fill:#000000;}
*[layerid="21"] {stroke:#000000;fill:#000000;}
*[layerid="22"] {stroke:#000000;fill:#000000;}
*[layerid="23"] {stroke:#000000;fill:#000000;}
*[layerid="24"] {stroke:#000000;fill:#000000;}
*[layerid="25"] {stroke:#000000;fill:#000000;}
*[layerid="26"] {stroke:#000000;fill:#000000;}
*[layerid="27"] {stroke:#000000;fill:#000000;}
*[layerid="28"] {stroke:#000000;fill:#000000;}
*[layerid="29"] {stroke:#000000;fill:#000000;}
*[layerid="30"] {stroke:#000000;fill:#000000;}
*[layerid="31"] {stroke:#000000;fill:#000000;}
*[layerid="32"] {stroke:#000000;fill:#000000;}
*[layerid="33"] {stroke:#000000;fill:#000000;}
*[layerid="34"] {stroke:#000000;fill:#000000;}
*[layerid="35"] {stroke:#000000;fill:#000000;}
*[layerid="36"] {stroke:#000000;fill:#000000;}
*[layerid="37"] {stroke:#000000;fill:#000000;}
*[layerid="38"] {stroke:#000000;fill:#000000;}
*[layerid="39"] {stroke:#000000;fill:#000000;}
*[layerid="40"] {stroke:#000000;fill:#000000;}
*[layerid="41"] {stroke:#000000;fill:#000000;}
*[layerid="42"] {stroke:#000000;fill:#000000;}
*[layerid="43"] {stroke:#000000;fill:#000000;}
*[layerid="44"] {stroke:#000000;fill:#000000;}
*[layerid="45"] {stroke:#000000;fill:#000000;}
*[layerid="46"] {stroke:#000000;fill:#000000;}
*[layerid="47"] {stroke:#000000;fill:#000000;}
*[layerid="48"] {stroke:#000000;fill:#000000;}
*[layerid="49"] {stroke:#000000;fill:#000000;}
*[layerid="50"] {stroke:#000000;fill:#000000;}
*[layerid="51"] {stroke:#000000;fill:#000000;}
*[layerid="52"] {stroke:#000000;fill:#000000;}
*[layerid="99"] {stroke:#000000;fill:#000000;}
*[layerid="100"] {stroke:#000000;fill:#000000;}
*[layerid="101"] {stroke:#000000;fill:#000000;}
*[layerid="Hole"] {stroke:#000000;fill:#000000;}
*[layerid="DRCError"] {stroke:#000000;fill:#000000;}
*[fill="none"] {fill: none;}
*[stroke="none"] {stroke: none;}
path, polyline, polygon, line {stroke-linecap:round;}
g[c_partid="part_pad"][layerid="1"] ellipse:not([c_etype="pad_outer"]) {fill:#000000;}
g[c_partid="part_pad"][layerid="1"] polygon:not([c_etype="pad_outer"]) {fill:#000000;}
g[c_partid="part_pad"][layerid="1"] polyline:not([c_etype="pad_outer"]) {stroke:#000000;}
g[c_partid="part_pad"][layerid="2"] ellipse:not([c_etype="pad_outer"]) {fill:#000000;}
g[c_partid="part_pad"][layerid="2"] polygon:not([c_etype="pad_outer"]) {fill:#000000;}
g[c_partid="part_pad"][layerid="2"] polyline:not([c_etype="pad_outer"]) {stroke:#000000;}
g[c_partid="part_pad"][layerid="11"] ellipse:not([c_etype="pad_outer"]) {fill:#000000;}
g[c_partid="part_pad"][layerid="11"] polygon:not([c_etype="pad_outer"]) {fill:#000000;}
g[c_partid="part_pad"][layerid="11"] polyline:not([c_etype="pad_outer"]) {stroke:#000000;}
g[c_partid="part_pad"][layerid="11"] circle {fill:#FFFFFF;}
g[c_partid="part_pad"][layerid="11"] > polyline:nth-of-type(2) {stroke:#FFFFFF;}
g[c_partid="part_pad"][layerid="11"][c_shape="ELLIPSE"]  polyline:nth-last-of-type(1) {stroke:#FFFFFF;}
g[c_partid="part_pad"][layerid="11"][c_shape="RECT"]  polyline:nth-last-of-type(1) {stroke:#FFFFFF;}
g[c_partid="part_pad"][layerid="11"][c_shape="POLYGON"]  polyline:nth-last-of-type(1) {stroke:#FFFFFF;}
g[c_partid="part_via"] > * + circle, #gCurParts g[c_partid="part_via"] > * + circle {fill:#FFFFFF;}
g[c_partid="part_pad"] > polygon[c_etype="pad_outer"], #gCurParts g[c_partid="part_pad"] > polygon[c_etype="pad_outer"] {stroke-linejoin: round;stroke-miterlimit: 100;}
g[c_partid="part_hole"] > circle {fill: #FFFFFF;}path, polyline, polygon {stroke-linejoin:round;}
rect, circle, ellipse, polyline, line, polygon, path {shape-rendering:crispEdges;}
</style>
<rect x="3804.5" y="2684" width="1048" height="451.5" fill="#FFFFFF" stroke="none"/><g transform="matrix(-1, 0, 0, 1, 8657, 0)"><g c_partid="part_pcbtext" c_etype="pinpart" c_origin="4408.5,2978.5" c_rotation="0" c_mirror="1" id="gge46536" locked="0" layerid="4" c_shapetype="group" ><path c_fontsize="8" c_fontfamily="" c_text="MOTHER-BOARD-v1.0.0" d="M 4408.5 2970.4273 L 4408.5 2978.0636 M 4408.5 2970.4273 L 4405.5909 2978.0636 M 4402.6818 2970.4273 L 4405.5909 2978.0636 M 4402.6818 2970.4273 L 4402.6818 2978.0636 M 4398.1 2970.4273 L 4398.8273 2970.7909 L 4399.5545 2971.5182 L 4399.9182 2972.2455 L 4400.2818 2973.3364 L 4400.2818 2975.1545 L 4399.9182 2976.2455 L 4399.5545 2976.9727 L 4398.8273 2977.7 L 4398.1 2978.0636 L 4396.6455 2978.0636 L 4395.9182 2977.7 L 4395.1909 2976.9727 L 4394.8273 2976.2455 L 4394.4636 2975.1545 L 4394.4636 2973.3364 L 4394.8273 2972.2455 L 4395.1909 2971.5182 L 4395.9182 2970.7909 L 4396.6455 2970.4273 L 4398.1 2970.4273 M 4389.5182 2970.4273 L 4389.5182 2978.0636 M 4392.0636 2970.4273 L 4386.9727 2970.4273 M 4384.5727 2970.4273 L 4384.5727 2978.0636 M 4379.4818 2970.4273 L 4379.4818 2978.0636 M 4384.5727 2974.0636 L 4379.4818 2974.0636 M 4377.0818 2970.4273 L 4377.0818 2978.0636 M 4377.0818 2970.4273 L 4372.3545 2970.4273 M 4377.0818 2974.0636 L 4374.1727 2974.0636 M 4377.0818 2978.0636 L 4372.3545 2978.0636 M 4369.9545 2970.4273 L 4369.9545 2978.0636 M 4369.9545 2970.4273 L 4366.6818 2970.4273 L 4365.5909 2970.7909 L 4365.2273 2971.1545 L 4364.8636 2971.8818 L 4364.8636 2972.6091 L 4365.2273 2973.3364 L 4365.5909 2973.7 L 4366.6818 2974.0636 L 4369.9545 2974.0636 M 4367.4091 2974.0636 L 4364.8636 2978.0636 M 4362.4636 2974.7909 L 4355.9182 2974.7909 M 4353.5182 2970.4273 L 4353.5182 2978.0636 M 4353.5182 2970.4273 L 4350.2455 2970.4273 L 4349.1545 2970.7909 L 4348.7909 2971.1545 L 4348.4273 2971.8818 L 4348.4273 2972.6091 L 4348.7909 2973.3364 L 4349.1545 2973.7 L 4350.2455 2974.0636 M 4353.5182 2974.0636 L 4350.2455 2974.0636 L 4349.1545 2974.4273 L 4348.7909 2974.7909 L 4348.4273 2975.5182 L 4348.4273 2976.6091 L 4348.7909 2977.3364 L 4349.1545 2977.7 L 4350.2455 2978.0636 L 4353.5182 2978.0636 M 4343.8455 2970.4273 L 4344.5727 2970.7909 L 4345.3 2971.5182 L 4345.6636 2972.2455 L 4346.0273 2973.3364 L 4346.0273 2975.1545 L 4345.6636 2976.2455 L 4345.3 2976.9727 L 4344.5727 2977.7 L 4343.8455 2978.0636 L 4342.3909 2978.0636 L 4341.6636 2977.7 L 4340.9364 2976.9727 L 4340.5727 2976.2455 L 4340.2091 2975.1545 L 4340.2091 2973.3364 L 4340.5727 2972.2455 L 4340.9364 2971.5182 L 4341.6636 2970.7909 L 4342.3909 2970.4273 L 4343.8455 2970.4273 M 4334.9 2970.4273 L 4337.8091 2978.0636 M 4334.9 2970.4273 L 4331.9909 2978.0636 M 4336.7182 2975.5182 L 4333.0818 2975.5182 M 4329.5909 2970.4273 L 4329.5909 2978.0636 M 4329.5909 2970.4273 L 4326.3182 2970.4273 L 4325.2273 2970.7909 L 4324.8636 2971.1545 L 4324.5 2971.8818 L 4324.5 2972.6091 L 4324.8636 2973.3364 L 4325.2273 2973.7 L 4326.3182 2974.0636 L 4329.5909 2974.0636 M 4327.0455 2974.0636 L 4324.5 2978.0636 M 4322.1 2970.4273 L 4322.1 2978.0636 M 4322.1 2970.4273 L 4319.5545 2970.4273 L 4318.4636 2970.7909 L 4317.7364 2971.5182 L 4317.3727 2972.2455 L 4317.0091 2973.3364 L 4317.0091 2975.1545 L 4317.3727 2976.2455 L 4317.7364 2976.9727 L 4318.4636 2977.7 L 4319.5545 2978.0636 L 4322.1 2978.0636 M 4314.6091 2974.7909 L 4308.0636 2974.7909 M 4305.6636 2972.9727 L 4303.4818 2978.0636 M 4301.3 2972.9727 L 4303.4818 2978.0636 M 4298.9 2971.8818 L 4298.1727 2971.5182 L 4297.0818 2970.4273 L 4297.0818 2978.0636 M 4294.3182 2976.2455 L 4294.6818 2976.6091 L 4294.3182 2976.9727 L 4293.9545 2976.6091 L 4294.3182 2976.2455 M 4289.3727 2970.4273 L 4290.4636 2970.7909 L 4291.1909 2971.8818 L 4291.5545 2973.7 L 4291.5545 2974.7909 L 4291.1909 2976.6091 L 4290.4636 2977.7 L 4289.3727 2978.0636 L 4288.6455 2978.0636 L 4287.5545 2977.7 L 4286.8273 2976.6091 L 4286.4636 2974.7909 L 4286.4636 2973.7 L 4286.8273 2971.8818 L 4287.5545 2970.7909 L 4288.6455 2970.4273 L 4289.3727 2970.4273 M 4283.7 2976.2455 L 4284.0636 2976.6091 L 4283.7 2976.9727 L 4283.3364 2976.6091 L 4283.7 2976.2455 M 4278.7545 2970.4273 L 4279.8455 2970.7909 L 4280.5727 2971.8818 L 4280.9364 2973.7 L 4280.9364 2974.7909 L 4280.5727 2976.6091 L 4279.8455 2977.7 L 4278.7545 2978.0636 L 4278.0273 2978.0636 L 4276.9364 2977.7 L 4276.2091 2976.6091 L 4275.8455 2974.7909 L 4275.8455 2973.7 L 4276.2091 2971.8818 L 4276.9364 2970.7909 L 4278.0273 2970.4273 L 4278.7545 2970.4273" fill="none"  stroke-width="0.8"  /></g><g c_partid="part_pcbtext" c_etype="pinpart" c_origin="4418.5,2965" c_rotation="0" c_mirror="1" id="gge46557" locked="0" layerid="4" c_shapetype="group" ><path c_fontsize="8" c_fontfamily="" c_text="ROBOT-VACCUM-CLEANER" d="M 4418.5 2956.9273 L 4418.5 2964.5636 M 4418.5 2956.9273 L 4415.2273 2956.9273 L 4414.1364 2957.2909 L 4413.7727 2957.6545 L 4413.4091 2958.3818 L 4413.4091 2959.1091 L 4413.7727 2959.8364 L 4414.1364 2960.2 L 4415.2273 2960.5636 L 4418.5 2960.5636 M 4415.9545 2960.5636 L 4413.4091 2964.5636 M 4408.8273 2956.9273 L 4409.5545 2957.2909 L 4410.2818 2958.0182 L 4410.6455 2958.7455 L 4411.0091 2959.8364 L 4411.0091 2961.6545 L 4410.6455 2962.7455 L 4410.2818 2963.4727 L 4409.5545 2964.2 L 4408.8273 2964.5636 L 4407.3727 2964.5636 L 4406.6455 2964.2 L 4405.9182 2963.4727 L 4405.5545 2962.7455 L 4405.1909 2961.6545 L 4405.1909 2959.8364 L 4405.5545 2958.7455 L 4405.9182 2958.0182 L 4406.6455 2957.2909 L 4407.3727 2956.9273 L 4408.8273 2956.9273 M 4402.7909 2956.9273 L 4402.7909 2964.5636 M 4402.7909 2956.9273 L 4399.5182 2956.9273 L 4398.4273 2957.2909 L 4398.0636 2957.6545 L 4397.7 2958.3818 L 4397.7 2959.1091 L 4398.0636 2959.8364 L 4398.4273 2960.2 L 4399.5182 2960.5636 M 4402.7909 2960.5636 L 4399.5182 2960.5636 L 4398.4273 2960.9273 L 4398.0636 2961.2909 L 4397.7 2962.0182 L 4397.7 2963.1091 L 4398.0636 2963.8364 L 4398.4273 2964.2 L 4399.5182 2964.5636 L 4402.7909 2964.5636 M 4393.1182 2956.9273 L 4393.8455 2957.2909 L 4394.5727 2958.0182 L 4394.9364 2958.7455 L 4395.3 2959.8364 L 4395.3 2961.6545 L 4394.9364 2962.7455 L 4394.5727 2963.4727 L 4393.8455 2964.2 L 4393.1182 2964.5636 L 4391.6636 2964.5636 L 4390.9364 2964.2 L 4390.2091 2963.4727 L 4389.8455 2962.7455 L 4389.4818 2961.6545 L 4389.4818 2959.8364 L 4389.8455 2958.7455 L 4390.2091 2958.0182 L 4390.9364 2957.2909 L 4391.6636 2956.9273 L 4393.1182 2956.9273 M 4384.5364 2956.9273 L 4384.5364 2964.5636 M 4387.0818 2956.9273 L 4381.9909 2956.9273 M 4379.5909 2961.2909 L 4373.0455 2961.2909 M 4370.6455 2956.9273 L 4367.7364 2964.5636 M 4364.8273 2956.9273 L 4367.7364 2964.5636 M 4359.5182 2956.9273 L 4362.4273 2964.5636 M 4359.5182 2956.9273 L 4356.6091 2964.5636 M 4361.3364 2962.0182 L 4357.7 2962.0182 M 4348.7545 2958.7455 L 4349.1182 2958.0182 L 4349.8455 2957.2909 L 4350.5727 2956.9273 L 4352.0273 2956.9273 L 4352.7545 2957.2909 L 4353.4818 2958.0182 L 4353.8455 2958.7455 L 4354.2091 2959.8364 L 4354.2091 2961.6545 L 4353.8455 2962.7455 L 4353.4818 2963.4727 L 4352.7545 2964.2 L 4352.0273 2964.5636 L 4350.5727 2964.5636 L 4349.8455 2964.2 L 4349.1182 2963.4727 L 4348.7545 2962.7455 M 4340.9 2958.7455 L 4341.2636 2958.0182 L 4341.9909 2957.2909 L 4342.7182 2956.9273 L 4344.1727 2956.9273 L 4344.9 2957.2909 L 4345.6273 2958.0182 L 4345.9909 2958.7455 L 4346.3545 2959.8364 L 4346.3545 2961.6545 L 4345.9909 2962.7455 L 4345.6273 2963.4727 L 4344.9 2964.2 L 4344.1727 2964.5636 L 4342.7182 2964.5636 L 4341.9909 2964.2 L 4341.2636 2963.4727 L 4340.9 2962.7455 M 4338.5 2956.9273 L 4338.5 2962.3818 L 4338.1364 2963.4727 L 4337.4091 2964.2 L 4336.3182 2964.5636 L 4335.5909 2964.5636 L 4334.5 2964.2 L 4333.7727 2963.4727 L 4333.4091 2962.3818 L 4333.4091 2956.9273 M 4331.0091 2956.9273 L 4331.0091 2964.5636 M 4331.0091 2956.9273 L 4328.1 2964.5636 M 4325.1909 2956.9273 L 4328.1 2964.5636 M 4325.1909 2956.9273 L 4325.1909 2964.5636 M 4322.7909 2961.2909 L 4316.2455 2961.2909 M 4308.3909 2958.7455 L 4308.7545 2958.0182 L 4309.4818 2957.2909 L 4310.2091 2956.9273 L 4311.6636 2956.9273 L 4312.3909 2957.2909 L 4313.1182 2958.0182 L 4313.4818 2958.7455 L 4313.8455 2959.8364 L 4313.8455 2961.6545 L 4313.4818 2962.7455 L 4313.1182 2963.4727 L 4312.3909 2964.2 L 4311.6636 2964.5636 L 4310.2091 2964.5636 L 4309.4818 2964.2 L 4308.7545 2963.4727 L 4308.3909 2962.7455 M 4305.9909 2956.9273 L 4305.9909 2964.5636 M 4305.9909 2964.5636 L 4301.6273 2964.5636 M 4299.2273 2956.9273 L 4299.2273 2964.5636 M 4299.2273 2956.9273 L 4294.5 2956.9273 M 4299.2273 2960.5636 L 4296.3182 2960.5636 M 4299.2273 2964.5636 L 4294.5 2964.5636 M 4289.1909 2956.9273 L 4292.1 2964.5636 M 4289.1909 2956.9273 L 4286.2818 2964.5636 M 4291.0091 2962.0182 L 4287.3727 2962.0182 M 4283.8818 2956.9273 L 4283.8818 2964.5636 M 4283.8818 2956.9273 L 4278.7909 2964.5636 M 4278.7909 2956.9273 L 4278.7909 2964.5636 M 4276.3909 2956.9273 L 4276.3909 2964.5636 M 4276.3909 2956.9273 L 4271.6636 2956.9273 M 4276.3909 2960.5636 L 4273.4818 2960.5636 M 4276.3909 2964.5636 L 4271.6636 2964.5636 M 4269.2636 2956.9273 L 4269.2636 2964.5636 M 4269.2636 2956.9273 L 4265.9909 2956.9273 L 4264.9 2957.2909 L 4264.5364 2957.6545 L 4264.1727 2958.3818 L 4264.1727 2959.1091 L 4264.5364 2959.8364 L 4264.9 2960.2 L 4265.9909 2960.5636 L 4269.2636 2960.5636 M 4266.7182 2960.5636 L 4264.1727 2964.5636" fill="none"  stroke-width="0.8"  /></g><g c_partid="part_pcbtext" c_etype="pinpart" c_origin="4410,2994" c_rotation="0" c_mirror="1" id="gge46581" locked="0" layerid="4" c_shapetype="group" ><path c_fontsize="8" c_fontfamily="" c_text="Yurii Alieksieiev 2022" d="M 4410 2985.9273 L 4407.0909 2989.5636 L 4407.0909 2993.5636 M 4404.1818 2985.9273 L 4407.0909 2989.5636 M 4401.7818 2988.4727 L 4401.7818 2992.1091 L 4401.4182 2993.2 L 4400.6909 2993.5636 L 4399.6 2993.5636 L 4398.8727 2993.2 L 4397.7818 2992.1091 M 4397.7818 2988.4727 L 4397.7818 2993.5636 M 4395.3818 2988.4727 L 4395.3818 2993.5636 M 4395.3818 2990.6545 L 4395.0182 2989.5636 L 4394.2909 2988.8364 L 4393.5636 2988.4727 L 4392.4727 2988.4727 M 4390.0727 2985.9273 L 4389.7091 2986.2909 L 4389.3455 2985.9273 L 4389.7091 2985.5636 L 4390.0727 2985.9273 M 4389.7091 2988.4727 L 4389.7091 2993.5636 M 4386.9455 2985.9273 L 4386.5818 2986.2909 L 4386.2182 2985.9273 L 4386.5818 2985.5636 L 4386.9455 2985.9273 M 4386.5818 2988.4727 L 4386.5818 2993.5636 M 4375.3091 2985.9273 L 4378.2182 2993.5636 M 4375.3091 2985.9273 L 4372.4 2993.5636 M 4377.1273 2991.0182 L 4373.4909 2991.0182 M 4370 2985.9273 L 4370 2993.5636 M 4367.6 2985.9273 L 4367.2364 2986.2909 L 4366.8727 2985.9273 L 4367.2364 2985.5636 L 4367.6 2985.9273 M 4367.2364 2988.4727 L 4367.2364 2993.5636 M 4364.4727 2990.6545 L 4360.1091 2990.6545 L 4360.1091 2989.9273 L 4360.4727 2989.2 L 4360.8364 2988.8364 L 4361.5636 2988.4727 L 4362.6545 2988.4727 L 4363.3818 2988.8364 L 4364.1091 2989.5636 L 4364.4727 2990.6545 L 4364.4727 2991.3818 L 4364.1091 2992.4727 L 4363.3818 2993.2 L 4362.6545 2993.5636 L 4361.5636 2993.5636 L 4360.8364 2993.2 L 4360.1091 2992.4727 M 4357.7091 2985.9273 L 4357.7091 2993.5636 M 4354.0727 2988.4727 L 4357.7091 2992.1091 M 4356.2545 2990.6545 L 4353.7091 2993.5636 M 4347.3091 2989.5636 L 4347.6727 2988.8364 L 4348.7636 2988.4727 L 4349.8545 2988.4727 L 4350.9455 2988.8364 L 4351.3091 2989.5636 L 4350.9455 2990.2909 L 4350.2182 2990.6545 L 4348.4 2991.0182 L 4347.6727 2991.3818 L 4347.3091 2992.1091 L 4347.3091 2992.4727 L 4347.6727 2993.2 L 4348.7636 2993.5636 L 4349.8545 2993.5636 L 4350.9455 2993.2 L 4351.3091 2992.4727 M 4344.9091 2985.9273 L 4344.5455 2986.2909 L 4344.1818 2985.9273 L 4344.5455 2985.5636 L 4344.9091 2985.9273 M 4344.5455 2988.4727 L 4344.5455 2993.5636 M 4341.7818 2990.6545 L 4337.4182 2990.6545 L 4337.4182 2989.9273 L 4337.7818 2989.2 L 4338.1455 2988.8364 L 4338.8727 2988.4727 L 4339.9636 2988.4727 L 4340.6909 2988.8364 L 4341.4182 2989.5636 L 4341.7818 2990.6545 L 4341.7818 2991.3818 L 4341.4182 2992.4727 L 4340.6909 2993.2 L 4339.9636 2993.5636 L 4338.8727 2993.5636 L 4338.1455 2993.2 L 4337.4182 2992.4727 M 4335.0182 2985.9273 L 4334.6545 2986.2909 L 4334.2909 2985.9273 L 4334.6545 2985.5636 L 4335.0182 2985.9273 M 4334.6545 2988.4727 L 4334.6545 2993.5636 M 4331.8909 2990.6545 L 4327.5273 2990.6545 L 4327.5273 2989.9273 L 4327.8909 2989.2 L 4328.2545 2988.8364 L 4328.9818 2988.4727 L 4330.0727 2988.4727 L 4330.8 2988.8364 L 4331.5273 2989.5636 L 4331.8909 2990.6545 L 4331.8909 2991.3818 L 4331.5273 2992.4727 L 4330.8 2993.2 L 4330.0727 2993.5636 L 4328.9818 2993.5636 L 4328.2545 2993.2 L 4327.5273 2992.4727 M 4325.1273 2988.4727 L 4322.9455 2993.5636 M 4320.7636 2988.4727 L 4322.9455 2993.5636 M 4312.4 2987.7455 L 4312.4 2987.3818 L 4312.0364 2986.6545 L 4311.6727 2986.2909 L 4310.9455 2985.9273 L 4309.4909 2985.9273 L 4308.7636 2986.2909 L 4308.4 2986.6545 L 4308.0364 2987.3818 L 4308.0364 2988.1091 L 4308.4 2988.8364 L 4309.1273 2989.9273 L 4312.7636 2993.5636 L 4307.6727 2993.5636 M 4303.0909 2985.9273 L 4304.1818 2986.2909 L 4304.9091 2987.3818 L 4305.2727 2989.2 L 4305.2727 2990.2909 L 4304.9091 2992.1091 L 4304.1818 2993.2 L 4303.0909 2993.5636 L 4302.3636 2993.5636 L 4301.2727 2993.2 L 4300.5455 2992.1091 L 4300.1818 2990.2909 L 4300.1818 2989.2 L 4300.5455 2987.3818 L 4301.2727 2986.2909 L 4302.3636 2985.9273 L 4303.0909 2985.9273 M 4297.4182 2987.7455 L 4297.4182 2987.3818 L 4297.0545 2986.6545 L 4296.6909 2986.2909 L 4295.9636 2985.9273 L 4294.5091 2985.9273 L 4293.7818 2986.2909 L 4293.4182 2986.6545 L 4293.0545 2987.3818 L 4293.0545 2988.1091 L 4293.4182 2988.8364 L 4294.1455 2989.9273 L 4297.7818 2993.5636 L 4292.6909 2993.5636 M 4289.9273 2987.7455 L 4289.9273 2987.3818 L 4289.5636 2986.6545 L 4289.2 2986.2909 L 4288.4727 2985.9273 L 4287.0182 2985.9273 L 4286.2909 2986.2909 L 4285.9273 2986.6545 L 4285.5636 2987.3818 L 4285.5636 2988.1091 L 4285.9273 2988.8364 L 4286.6545 2989.9273 L 4290.2909 2993.5636 L 4285.2 2993.5636" fill="none"  stroke-width="0.8"  /></g></g><g transform="matrix(-1, 0, 0, 1, 8657, 0)"><polyline points="4020 2694 4768 2694 4768 2772.5" stroke-width="1"  stroke-linecap="round" fill="none" layerid="10" net="S$9581" id="gge9580" locked="1" /><polyline points="4768 2772.5 4842.5 2772.5 4842.5 2844" stroke-width="1"  stroke-linecap="round" fill="none" layerid="10" net="S$9600" id="gge9599" locked="1" /><polyline points="4020 2814 4020 2844 3814.5 2844 3814.5 2924 3988 2924 3988 2992.5" stroke-width="1"  stroke-linecap="round" fill="none" layerid="10" net="S$9625" id="gge9624" locked="1" /><polyline points="4842.5 2844 4800 2844 4800 2924" stroke-width="1"  stroke-linecap="round" fill="none" layerid="10" net="S$9610" id="gge9609" locked="1" /><polyline points="4800 2924 4690.5 2924" stroke-width="1"  stroke-linecap="round" fill="none" layerid="10" net="S$9617" id="gge9616" locked="1" /><polyline points="4690.5 2924 4690.5999 3010.4" stroke-width="1"  stroke-linecap="round" fill="none" layerid="10" net="S$9632" id="gge9631" locked="1" /><polyline points="4020 2694 4020 2814" stroke-width="1"  stroke-linecap="round" fill="none" layerid="10" net="S$9621" id="gge9620" locked="0" /><path d="M3988,2992.5 A560.803,560.803 0 0 0 4690.4983,3010.4978" locked="1"  fill="none" stroke-width="1" c_helper_type="arc2" net="" layerid="10" id="gge9822" /></g></svg>